# Blender 3.5.0
# www.blender.org
mtllib cactus4.mtl
o main_cactus.004
v 0.316935 0.000000 -0.180642
v -0.072484 -0.043862 -0.354826
v -0.361732 -0.027108 -0.038653
v -0.151079 0.027108 0.330937
v 0.268360 0.043862 0.243183
v 0.325322 0.201222 -0.214940
v -0.090005 0.154442 -0.400712
v -0.398497 0.172311 -0.063504
v -0.173829 0.230134 0.330674
v 0.273516 0.248002 0.237082
v 0.337309 0.401892 -0.251209
v -0.108334 0.352135 -0.450577
v -0.439361 0.371903 -0.088844
v -0.198305 0.433878 0.334089
v 0.281704 0.452412 0.233742
v 0.359348 0.569869 -0.288497
v -0.127955 0.541652 -0.509476
v -0.490387 0.599091 -0.119045
v -0.227079 0.662807 0.343234
v 0.298087 0.644747 0.238507
v 0.419229 0.729097 -0.342991
v -0.124191 0.726085 -0.594388
v -0.527646 0.829436 -0.164204
v -0.233574 0.896322 0.353062
v 0.351627 0.834310 0.242565
v 0.507328 0.916218 -0.417273
v -0.126321 0.912733 -0.710417
v -0.596765 1.033256 -0.208806
v -0.253866 1.111229 0.394351
v 0.428501 1.038896 0.265511
v 0.675716 1.087675 -0.535165
v -0.146752 1.086833 -0.916418
v -0.757462 1.244986 -0.265398
v -0.312435 1.343572 0.518209
v 0.573318 1.246348 0.351483
v 0.737492 1.276907 -0.593367
v -0.140769 1.279906 -1.001288
v -0.792999 1.450605 -0.306156
v -0.317838 1.553105 0.531380
v 0.628057 1.445753 0.353874
v 0.733562 1.479801 -0.615968
v -0.119825 1.482715 -1.012336
v -0.753583 1.648580 -0.336891
v -0.291879 1.748176 0.476925
v 0.627227 1.643865 0.304445
v 0.419119 1.736720 -0.469017
v -0.027821 1.738246 -0.676605
v -0.359736 1.825114 -0.322858
v -0.117930 1.877275 0.103358
v 0.363429 1.822644 0.013027
v -0.051342 1.713315 0.776561
v -0.048613 2.263436 0.699096
v -0.581608 1.692791 0.612126
v -0.578879 2.242913 0.534662
v -0.217030 1.788061 1.301540
v -0.214301 2.338183 1.224075
v -0.747296 1.767537 1.137105
v -0.744567 2.317659 1.059640
v 0.071815 1.978887 0.674734
v -0.287957 1.593701 0.616029
v -0.644044 1.951179 0.452747
v -0.041867 1.658008 1.081383
v -0.038182 2.400672 0.976805
v -0.511636 1.694608 1.324750
v -0.507952 2.437273 1.220172
v -0.757726 1.630301 0.859396
v -0.867723 2.052087 1.161468
v -0.284272 2.336365 0.511451
v -0.151864 2.079794 1.383455
v -0.754042 2.372965 0.754818
v -0.248835 1.948215 0.445620
v 0.079285 2.033958 1.066092
v -0.547074 2.082758 1.390581
v -0.875194 1.997015 0.770109
v -0.400411 1.520377 0.987819
v -0.395498 2.510596 0.848382
v 0.937407 2.020668 -0.809357
v 0.979856 2.566766 -0.902187
v 1.067762 2.101308 -0.275366
v 1.110210 2.647406 -0.368196
v 1.475782 1.958086 -0.931331
v 1.518231 2.504184 -1.024161
v 1.606137 2.038726 -0.397340
v 1.648585 2.584823 -0.490170
v 0.841604 2.290557 -0.927875
v 0.900940 1.976373 -0.504771
v 1.017582 2.399420 -0.206987
v 1.176354 1.879698 -0.947547
v 1.233660 2.616930 -1.072868
v 1.627747 1.891887 -0.669436
v 1.685052 2.629119 -0.794756
v 1.352333 1.988562 -0.226659
v 1.744389 2.314934 -0.371652
v 0.958246 2.713605 -0.630091
v 1.568410 2.206071 -1.092540
v 1.409638 2.725794 -0.351979
v 0.808459 2.359070 -0.539987
v 1.175677 2.230170 -1.130356
v 1.777534 2.246422 -0.759540
v 1.410316 2.375321 -0.169171
v 1.254793 1.811258 -0.566216
v 1.331200 2.794234 -0.733310
v 0.114910 0.605913 -0.019059
v 0.025049 0.737337 -0.119349
v -0.151757 0.678965 -0.146512
v -0.171168 0.511467 -0.063010
v -0.006359 0.466318 0.015761
v 0.111290 0.696922 0.162656
v -0.008714 0.872430 0.028724
v -0.244828 0.794479 -0.007551
v -0.270750 0.570794 0.103962
v -0.050657 0.510500 0.209155
v 0.107605 0.787928 0.344351
v -0.042505 1.007466 0.176820
v -0.337851 0.909959 0.131445
v -0.370276 0.630159 0.270932
v -0.094969 0.554740 0.402515
v 0.103788 0.878929 0.526005
v -0.048207 1.075912 0.242507
v -0.413384 0.984290 0.219549
v -0.487080 0.730682 0.488859
v -0.167450 0.665566 0.678259
v 0.128867 1.062122 0.608912
v -0.024954 1.181648 0.212001
v -0.462304 1.116791 0.209766
v -0.578779 0.957181 0.605296
v -0.213415 0.923394 0.851982
v 0.181660 1.248406 0.698024
v -0.005926 1.391525 0.211775
v -0.540714 1.313386 0.209450
v -0.683645 1.121975 0.694261
v -0.237193 1.081815 0.996217
v 0.208705 1.433694 0.779152
v -0.002004 1.594455 0.232966
v -0.602713 1.506684 0.230354
v -0.763262 1.291679 0.774925
v -0.261778 1.246568 1.114101
v 0.183353 1.616954 0.844032
v -0.028081 1.778267 0.295968
v -0.630855 1.690195 0.293347
v -0.791956 1.474451 0.839790
v -0.288748 1.429185 1.180133
v 0.101873 1.798042 0.891506
v -0.086292 1.941602 0.403758
v -0.622729 1.863222 0.401426
v -0.766100 1.671221 0.887732
v -0.318272 1.630937 1.190618
v -0.156934 1.972266 0.883992
v -0.246027 2.040239 0.653052
v -0.500021 2.003128 0.651947
v -0.567905 1.912219 0.882205
v -0.355866 1.893145 1.025616
v -0.023709 1.181421 -0.292166
v -0.033148 1.311728 -0.217526
v 0.011961 1.287630 -0.076019
v 0.049279 1.142430 -0.063201
v 0.027233 1.076789 -0.196788
v 0.113565 1.209428 -0.374574
v 0.100959 1.383445 -0.274897
v 0.161200 1.351264 -0.085922
v 0.211036 1.157357 -0.068805
v 0.181596 1.069698 -0.247202
v 0.250851 1.237442 -0.456930
v 0.235084 1.455115 -0.332248
v 0.310437 1.414860 -0.095865
v 0.372775 1.172309 -0.074454
v 0.335949 1.062659 -0.297605
v 0.388164 1.265473 -0.539180
v 0.292117 1.492676 -0.365593
v 0.412003 1.457360 -0.091077
v 0.582143 1.208331 -0.095004
v 0.567410 1.089738 -0.371947
v 0.462198 1.384056 -0.621121
v 0.278889 1.578368 -0.389507
v 0.446431 1.564477 -0.078475
v 0.733285 1.361579 -0.117860
v 0.743030 1.250073 -0.453234
v 0.529506 1.501354 -0.724856
v 0.304065 1.736812 -0.441085
v 0.509389 1.720623 -0.061124
v 0.861728 1.475159 -0.110067
v 0.874161 1.339644 -0.520276
v 0.601877 1.621784 -0.807857
v 0.348646 1.886266 -0.489106
v 0.579280 1.868081 -0.062310
v 0.975050 1.592360 -0.117286
v 0.989015 1.440141 -0.578059
v 0.684547 1.748586 -0.848663
v 0.430446 2.013977 -0.528817
v 0.661872 1.995729 -0.100554
v 1.059003 1.719061 -0.155718
v 1.073017 1.566319 -0.618076
v 0.778251 1.882214 -0.844272
v 0.552114 2.118397 -0.559626
v 0.758071 2.102158 -0.178493
v 1.111497 1.855938 -0.227587
v 1.123968 1.720005 -0.639061
v 0.906813 2.037405 -0.697082
v 0.799742 2.149234 -0.562307
v 0.897259 2.141545 -0.381848
v 1.064600 2.024964 -0.405093
v 1.070505 1.960602 -0.599919
vn 0.4182 -0.1695 -0.8924
vn -0.7262 -0.2152 -0.6529
vn -0.8587 -0.0956 0.5035
vn 0.2038 0.0241 0.9787
vn 0.9930 -0.0216 0.1160
vn 0.4185 -0.1856 -0.8891
vn -0.7240 -0.2309 -0.6500
vn -0.8563 -0.1113 0.5044
vn 0.2044 0.0080 0.9789
vn 0.9923 -0.0379 0.1177
vn 0.4154 -0.2390 -0.8777
vn -0.7232 -0.2595 -0.6401
vn -0.8541 -0.1261 0.5046
vn 0.1998 -0.0265 0.9795
vn 0.9876 -0.0940 0.1257
vn 0.3907 -0.4072 -0.8255
vn -0.7311 -0.2572 -0.6319
vn -0.8658 -0.0437 0.4985
vn 0.1863 -0.0529 0.9811
vn 0.9458 -0.2850 0.1557
vn 0.3688 -0.4877 -0.7913
vn -0.7199 -0.3723 -0.5857
vn -0.8457 -0.1766 0.5036
vn 0.1653 -0.1710 0.9713
vn 0.9158 -0.3633 0.1710
vn 0.2944 -0.7176 -0.6311
vn -0.6447 -0.6133 -0.4564
vn -0.7530 -0.4452 0.4845
vn 0.1189 -0.4465 0.8869
vn 0.7636 -0.6145 0.1983
vn 0.3885 -0.3826 -0.8383
vn -0.7357 -0.2526 -0.6285
vn -0.8657 -0.0523 0.4979
vn 0.1780 -0.0589 0.9823
vn 0.9520 -0.2629 0.1569
vn 0.4192 -0.0925 -0.9032
vn -0.7242 0.0373 -0.6886
vn -0.8564 0.2414 0.4563
vn 0.2051 0.2377 0.9494
vn 0.9935 0.0314 0.1092
vn 0.2944 0.7199 -0.6286
vn -0.3366 0.7915 -0.5102
vn -0.4096 0.9041 0.1217
vn 0.1763 0.9021 0.3938
vn 0.6114 0.7882 -0.0699
vn 0.0626 -0.9920 0.1098
vn 0.0804 0.9829 -0.1659
vn 0.5902 -0.4490 -0.6709
vn -0.0744 -0.4747 -0.8770
vn -0.0710 0.2148 -0.9741
vn 0.5936 0.2405 -0.7680
vn 0.9329 -0.3594 -0.0228
vn 0.9363 0.3301 -0.1199
vn 0.7286 0.4237 0.5381
vn 0.7252 -0.2658 0.6352
vn 0.0710 -0.2148 0.9741
vn 0.0744 0.4747 0.8770
vn -0.5902 0.4490 0.6709
vn -0.5936 -0.2405 0.7680
vn -0.7286 -0.4237 -0.5381
vn -0.9363 -0.3301 0.1199
vn -0.9329 0.3594 0.0228
vn -0.7252 0.2658 -0.6352
vn 0.4319 -0.8959 -0.1046
vn 0.2242 -0.8022 0.5534
vn -0.4404 -0.8279 0.3473
vn -0.2327 -0.9216 -0.3107
vn 0.4404 0.8279 -0.3473
vn -0.2242 0.8022 -0.5534
vn -0.4319 0.8959 0.1046
vn 0.2327 0.9216 0.3107
vn -0.9518 -0.2947 -0.0854
vn -0.7884 -0.1936 0.5839
vn -0.7352 0.4908 0.4676
vn -0.8986 0.3897 -0.2017
vn -0.5682 -0.4293 -0.7020
vn -0.5150 0.2551 -0.8183
vn 0.1598 0.1767 -0.9712
vn 0.1066 -0.5078 -0.8549
vn 0.7352 -0.4908 -0.4676
vn 0.7884 0.1936 -0.5839
vn 0.9518 0.2947 0.0854
vn 0.8986 -0.3897 0.2017
vn -0.1598 -0.1767 0.9712
vn 0.5150 -0.2551 0.8183
vn 0.5682 0.4293 0.7020
vn -0.1066 0.5078 0.8549
vn -0.4856 -0.8669 -0.1128
vn 0.1892 -0.9453 -0.2656
vn 0.3526 -0.8443 0.4036
vn -0.3222 -0.7658 0.5565
vn -0.3526 0.8443 -0.4036
vn -0.1892 0.9453 0.2656
vn 0.4856 0.8669 0.1128
vn 0.3222 0.7658 -0.5565
vn 0.8736 0.4418 -0.2039
vn -0.1316 0.7172 -0.6843
vn -0.8713 -0.1343 -0.4719
vn -0.3232 -0.9359 0.1398
vn 0.7552 -0.5799 0.3055
vn 0.8736 0.4419 -0.2036
vn -0.1317 0.7174 -0.6841
vn -0.8715 -0.1342 -0.4717
vn -0.3233 -0.9359 0.1400
vn 0.7552 -0.5798 0.3057
vn 0.8881 0.4011 -0.2244
vn -0.1251 0.6933 -0.7097
vn -0.8754 -0.1721 -0.4518
vn -0.3493 -0.9024 0.2524
vn 0.7184 -0.5843 0.3776
vn 0.8971 -0.0710 -0.4362
vn 0.0621 -0.1599 -0.9852
vn -0.8885 -0.2300 -0.3971
vn -0.5049 -0.5447 0.6696
vn 0.6428 -0.3623 0.6749
vn 0.9212 -0.0817 -0.3804
vn 0.0048 -0.0006 -1.0000
vn -0.8569 -0.3394 -0.3879
vn -0.4728 -0.6315 0.6145
vn 0.6288 -0.4715 0.6183
vn 0.9347 0.0190 -0.3550
vn -0.0109 0.1041 -0.9945
vn -0.8980 -0.2488 -0.3630
vn -0.5007 -0.5519 0.6669
vn 0.6320 -0.3864 0.6718
vn 0.9286 0.2312 -0.2902
vn -0.0424 0.3186 -0.9470
vn -0.9534 -0.0438 -0.2984
vn -0.5454 -0.3551 0.7592
vn 0.6177 -0.1851 0.7643
vn 0.8714 0.4458 -0.2049
vn -0.0739 0.5308 -0.8443
vn -0.9607 0.1781 -0.2129
vn -0.5635 -0.1249 0.8166
vn 0.5687 0.0405 0.8215
vn 0.5576 0.8296 0.0291
vn -0.1283 0.8913 -0.4349
vn -0.7719 0.6353 0.0233
vn -0.4837 0.4154 0.7704
vn 0.3380 0.5355 0.7739
vn 0.2799 -0.4541 -0.8458
vn -0.1380 0.9345 0.3283
vn -0.5310 0.3919 -0.7513
vn -0.3628 0.8926 0.2677
vn 0.0258 0.0945 0.9952
vn 0.0978 -0.8995 0.4259
vn -0.2463 -0.7157 -0.6535
vn -0.5308 0.3920 -0.7514
vn -0.3626 0.8927 0.2676
vn 0.0260 0.0945 0.9952
vn 0.0980 -0.8995 0.4258
vn -0.2461 -0.7157 -0.6537
vn -0.5636 0.3576 -0.7446
vn -0.3921 0.8764 0.2795
vn 0.0372 0.0531 0.9979
vn 0.2119 -0.8971 0.3876
vn -0.1680 -0.7368 -0.6549
vn -0.8383 -0.0325 -0.5442
vn -0.8866 0.1236 0.4456
vn 0.0782 -0.0165 0.9968
vn 0.7109 -0.6603 0.2423
vn 0.1630 -0.6029 -0.7810
vn -0.8062 -0.0611 -0.5885
vn -0.8382 0.2854 0.4647
vn 0.0482 -0.1265 0.9908
vn 0.6312 -0.7305 0.2608
vn 0.1013 -0.6893 -0.7173
vn -0.7720 0.0262 -0.6351
vn -0.8049 0.3851 0.4514
vn 0.1079 -0.0432 0.9932
vn 0.7050 -0.6668 0.2416
vn 0.1612 -0.6239 -0.7647
vn -0.6729 0.2105 -0.7092
vn -0.7067 0.5791 0.4066
vn 0.2308 0.1392 0.9630
vn 0.8439 -0.5012 0.1912
vn 0.2855 -0.4572 -0.8423
vn -0.5299 0.3962 -0.7498
vn -0.5628 0.7550 0.3363
vn 0.3497 0.3269 0.8780
vn 0.9466 -0.2965 0.1267
vn 0.4030 -0.2537 -0.8794
vn -0.0978 0.7263 -0.6804
vn -0.1217 0.9867 0.1078
vn 0.5405 0.6760 0.5009
vn 0.9737 0.2236 -0.0443
vn 0.5792 0.2547 -0.7744
vn -0.9399 -0.2184 0.2624
vn 0.5295 0.8102 -0.2516
s 0
usemtl cactus_green
f 1//1 2//1 7//1 6//1
f 2//2 3//2 8//2 7//2
f 3//3 4//3 9//3 8//3
f 4//4 5//4 10//4 9//4
f 5//5 1//5 6//5 10//5
f 6//6 7//6 12//6 11//6
f 7//7 8//7 13//7 12//7
f 8//8 9//8 14//8 13//8
f 9//9 10//9 15//9 14//9
f 10//10 6//10 11//10 15//10
f 11//11 12//11 17//11 16//11
f 12//12 13//12 18//12 17//12
f 13//13 14//13 19//13 18//13
f 14//14 15//14 20//14 19//14
f 15//15 11//15 16//15 20//15
f 16//16 17//16 22//16 21//16
f 17//17 18//17 23//17 22//17
f 18//18 19//18 24//18 23//18
f 19//19 20//19 25//19 24//19
f 20//20 16//20 21//20 25//20
f 21//21 22//21 27//21 26//21
f 22//22 23//22 28//22 27//22
f 23//23 24//23 29//23 28//23
f 24//24 25//24 30//24 29//24
f 25//25 21//25 26//25 30//25
f 26//26 27//26 32//26 31//26
f 27//27 28//27 33//27 32//27
f 28//28 29//28 34//28 33//28
f 29//29 30//29 35//29 34//29
f 30//30 26//30 31//30 35//30
f 31//31 32//31 37//31 36//31
f 32//32 33//32 38//32 37//32
f 33//33 34//33 39//33 38//33
f 34//34 35//34 40//34 39//34
f 35//35 31//35 36//35 40//35
f 36//36 37//36 42//36 41//36
f 37//37 38//37 43//37 42//37
f 38//38 39//38 44//38 43//38
f 39//39 40//39 45//39 44//39
f 40//40 36//40 41//40 45//40
f 41//41 42//41 47//41 46//41
f 42//42 43//42 48//42 47//42
f 43//43 44//43 49//43 48//43
f 44//44 45//44 50//44 49//44
f 45//45 41//45 46//45 50//45
f 5//46 4//46 3//46 2//46 1//46
f 46//47 47//47 48//47 49//47 50//47
f 103//96 104//96 109//96 108//96
f 104//97 105//97 110//97 109//97
f 105//98 106//98 111//98 110//98
f 106//99 107//99 112//99 111//99
f 107//100 103//100 108//100 112//100
f 108//101 109//101 114//101 113//101
f 109//102 110//102 115//102 114//102
f 110//103 111//103 116//103 115//103
f 111//104 112//104 117//104 116//104
f 112//105 108//105 113//105 117//105
f 113//106 114//106 119//106 118//106
f 114//107 115//107 120//107 119//107
f 115//108 116//108 121//108 120//108
f 116//109 117//109 122//109 121//109
f 117//110 113//110 118//110 122//110
f 118//111 119//111 124//111 123//111
f 119//112 120//112 125//112 124//112
f 120//113 121//113 126//113 125//113
f 121//114 122//114 127//114 126//114
f 122//115 118//115 123//115 127//115
f 123//116 124//116 129//116 128//116
f 124//117 125//117 130//117 129//117
f 125//118 126//118 131//118 130//118
f 126//119 127//119 132//119 131//119
f 127//120 123//120 128//120 132//120
f 128//121 129//121 134//121 133//121
f 129//122 130//122 135//122 134//122
f 130//123 131//123 136//123 135//123
f 131//124 132//124 137//124 136//124
f 132//125 128//125 133//125 137//125
f 133//126 134//126 139//126 138//126
f 134//127 135//127 140//127 139//127
f 135//128 136//128 141//128 140//128
f 136//129 137//129 142//129 141//129
f 137//130 133//130 138//130 142//130
f 138//131 139//131 144//131 143//131
f 139//132 140//132 145//132 144//132
f 140//133 141//133 146//133 145//133
f 141//134 142//134 147//134 146//134
f 142//135 138//135 143//135 147//135
f 143//136 144//136 149//136 148//136
f 144//137 145//137 150//137 149//137
f 145//138 146//138 151//138 150//138
f 146//139 147//139 152//139 151//139
f 147//140 143//140 148//140 152//140
f 107//141 106//141 105//141 104//141 103//141
f 148//142 149//142 150//142 151//142 152//142
f 153//143 154//143 159//143 158//143
f 154//144 155//144 160//144 159//144
f 155//145 156//145 161//145 160//145
f 156//146 157//146 162//146 161//146
f 157//147 153//147 158//147 162//147
f 158//148 159//148 164//148 163//148
f 159//149 160//149 165//149 164//149
f 160//150 161//150 166//150 165//150
f 161//151 162//151 167//151 166//151
f 162//152 158//152 163//152 167//152
f 163//153 164//153 169//153 168//153
f 164//154 165//154 170//154 169//154
f 165//155 166//155 171//155 170//155
f 166//156 167//156 172//156 171//156
f 167//157 163//157 168//157 172//157
f 168//158 169//158 174//158 173//158
f 169//159 170//159 175//159 174//159
f 170//160 171//160 176//160 175//160
f 171//161 172//161 177//161 176//161
f 172//162 168//162 173//162 177//162
f 173//163 174//163 179//163 178//163
f 174//164 175//164 180//164 179//164
f 175//165 176//165 181//165 180//165
f 176//166 177//166 182//166 181//166
f 177//167 173//167 178//167 182//167
f 178//168 179//168 184//168 183//168
f 179//169 180//169 185//169 184//169
f 180//170 181//170 186//170 185//170
f 181//171 182//171 187//171 186//171
f 182//172 178//172 183//172 187//172
f 183//173 184//173 189//173 188//173
f 184//174 185//174 190//174 189//174
f 185//175 186//175 191//175 190//175
f 186//176 187//176 192//176 191//176
f 187//177 183//177 188//177 192//177
f 188//178 189//178 194//178 193//178
f 189//179 190//179 195//179 194//179
f 190//180 191//180 196//180 195//180
f 191//181 192//181 197//181 196//181
f 192//182 188//182 193//182 197//182
f 193//183 194//183 199//183 198//183
f 194//184 195//184 200//184 199//184
f 195//185 196//185 201//185 200//185
f 196//186 197//186 202//186 201//186
f 197//187 193//187 198//187 202//187
f 157//188 156//188 155//188 154//188 153//188
f 198//189 199//189 200//189 201//189 202//189
usemtl cactus_flower
f 51//48 60//48 71//48 59//48
f 60//49 53//49 61//49 71//49
f 71//50 61//50 54//50 68//50
f 59//51 71//51 68//51 52//51
f 51//52 59//52 72//52 62//52
f 59//53 52//53 63//53 72//53
f 72//54 63//54 56//54 69//54
f 62//55 72//55 69//55 55//55
f 55//56 69//56 73//56 64//56
f 69//57 56//57 65//57 73//57
f 73//58 65//58 58//58 67//58
f 64//59 73//59 67//59 57//59
f 53//60 66//60 74//60 61//60
f 66//61 57//61 67//61 74//61
f 74//62 67//62 58//62 70//62
f 61//63 74//63 70//63 54//63
f 51//64 62//64 75//64 60//64
f 62//65 55//65 64//65 75//65
f 75//66 64//66 57//66 66//66
f 60//67 75//67 66//67 53//67
f 52//68 68//68 76//68 63//68
f 68//69 54//69 70//69 76//69
f 76//70 70//70 58//70 65//70
f 63//71 76//71 65//71 56//71
f 77//72 86//72 97//72 85//72
f 86//73 79//73 87//73 97//73
f 97//74 87//74 80//74 94//74
f 85//75 97//75 94//75 78//75
f 77//76 85//76 98//76 88//76
f 85//77 78//77 89//77 98//77
f 98//78 89//78 82//78 95//78
f 88//79 98//79 95//79 81//79
f 81//80 95//80 99//80 90//80
f 95//81 82//81 91//81 99//81
f 99//82 91//82 84//82 93//82
f 90//83 99//83 93//83 83//83
f 79//84 92//84 100//84 87//84
f 92//85 83//85 93//85 100//85
f 100//86 93//86 84//86 96//86
f 87//87 100//87 96//87 80//87
f 77//88 88//88 101//88 86//88
f 88//89 81//89 90//89 101//89
f 101//90 90//90 83//90 92//90
f 86//91 101//91 92//91 79//91
f 78//92 94//92 102//92 89//92
f 94//93 80//93 96//93 102//93
f 102//94 96//94 84//94 91//94
f 89//95 102//95 91//95 82//95
