# Blender 3.5.0
# www.blender.org
mtllib dead_bush_1.mtl
o dead_bush.001
v -0.069118 0.000000 -0.072269
v -0.088207 -0.022107 0.041602
v 0.014602 -0.013663 0.097980
v 0.097232 0.013663 0.018953
v 0.045490 0.022107 -0.086267
v -0.102671 0.223216 -0.030170
v -0.120277 0.202089 0.075366
v -0.024705 0.208786 0.127478
v 0.051967 0.234051 0.054148
v 0.003782 0.242969 -0.043284
v -0.132227 0.444899 0.015051
v -0.149073 0.429546 0.113000
v -0.060807 0.434782 0.160908
v 0.010591 0.453371 0.092568
v -0.033550 0.459624 0.002423
v -0.151264 0.665633 0.039650
v -0.166695 0.651430 0.129456
v -0.086049 0.658284 0.173662
v -0.020776 0.676723 0.111176
v -0.061082 0.681264 0.028353
v -0.192775 0.893683 0.084681
v -0.206495 0.878454 0.165793
v -0.132499 0.877645 0.204823
v -0.073048 0.892375 0.147833
v -0.110301 0.902287 0.073581
v -0.178039 1.119682 0.128475
v -0.188392 1.127779 0.202586
v -0.123118 1.112842 0.236959
v -0.072423 1.095513 0.184090
v -0.106367 1.099740 0.117043
v -0.057340 1.332168 0.056812
v -0.060177 1.358961 0.116471
v -0.002044 1.350338 0.145304
v 0.036721 1.318215 0.103465
v 0.002546 1.306985 0.048774
v -0.006819 1.539193 -0.044322
v -0.009575 1.551498 0.010305
v 0.040989 1.569411 0.026601
v 0.074995 1.568176 -0.017954
v 0.045449 1.549500 -0.061787
v -0.185098 1.768783 -0.025301
v -0.176618 1.754076 0.016741
v -0.137272 1.772124 0.030229
v -0.121435 1.797985 -0.003477
v -0.150992 1.795921 -0.037797
v -0.269187 1.999985 0.191351
v -0.258558 1.980673 0.216693
v -0.226326 1.988070 0.222567
v -0.217035 2.011954 0.200856
v -0.243524 2.019318 0.181563
v -0.118483 0.628990 0.090406
v -0.070040 0.633994 0.106783
v -0.059094 0.684151 0.108893
v -0.100772 0.710146 0.093821
v -0.137477 0.676054 0.082395
v -0.202933 0.644055 0.349912
v -0.162301 0.648142 0.360810
v -0.153596 0.689413 0.363529
v -0.188848 0.710832 0.354311
v -0.219340 0.682799 0.345895
v -0.252295 0.637252 0.622851
v -0.221182 0.640469 0.633412
v -0.214144 0.672695 0.634753
v -0.240907 0.689396 0.625021
v -0.264485 0.667491 0.617665
v -0.372245 0.674675 0.868756
v -0.350591 0.677120 0.878334
v -0.345219 0.700309 0.878551
v -0.363553 0.712195 0.869107
v -0.380256 0.696353 0.863053
v -0.470462 0.698383 1.122988
v -0.456879 0.699847 1.128362
v -0.453653 0.714165 1.128700
v -0.465242 0.721549 1.123534
v -0.475630 0.711796 1.120004
v -0.127347 0.863338 0.111661
v -0.140583 0.904833 0.100712
v -0.157192 0.924293 0.137621
v -0.154221 0.894826 0.171381
v -0.135776 0.857154 0.155336
v 0.086814 0.951161 0.169461
v 0.077066 0.985826 0.160727
v 0.063493 1.001930 0.191213
v 0.064853 0.977218 0.218789
v 0.079266 0.945841 0.205346
v 0.304319 1.024061 0.234392
v 0.298399 1.051929 0.228001
v 0.287710 1.064620 0.252025
v 0.287025 1.044597 0.273263
v 0.297290 1.019530 0.262366
v 0.525404 1.084777 0.309496
v 0.517201 1.103624 0.303884
v 0.509347 1.112865 0.321403
v 0.512697 1.099730 0.337841
v 0.522620 1.082371 0.330482
v 0.726649 1.247689 0.321831
v 0.719210 1.257477 0.318157
v 0.714491 1.263049 0.328708
v 0.719012 1.256704 0.338903
v 0.726526 1.247211 0.334652
v -0.022209 1.308855 0.086097
v -0.038460 1.326090 0.106324
v -0.023754 1.353335 0.109748
v 0.001587 1.352938 0.091638
v 0.002542 1.325448 0.077020
v -0.109437 1.376576 -0.037437
v -0.121885 1.390130 -0.019606
v -0.110139 1.412780 -0.017244
v -0.090432 1.413225 -0.033616
v -0.089999 1.390850 -0.046095
v -0.218315 1.444863 -0.145950
v -0.228770 1.455946 -0.132972
v -0.219315 1.473448 -0.130765
v -0.203017 1.473181 -0.142378
v -0.202399 1.455515 -0.151763
v -0.283552 1.512123 -0.284685
v -0.291715 1.520604 -0.276336
v -0.284659 1.533036 -0.274360
v -0.272136 1.532239 -0.281487
v -0.271452 1.519314 -0.287868
v -0.362263 1.579652 -0.414113
v -0.367135 1.584749 -0.408682
v -0.362846 1.592467 -0.407571
v -0.355324 1.592141 -0.412315
v -0.354963 1.584221 -0.416359
v 0.021985 1.537580 -0.024209
v 0.008577 1.556019 -0.016565
v 0.023404 1.573817 -0.010119
v 0.045975 1.566379 -0.013778
v 0.045098 1.543983 -0.022486
v 0.019221 1.587114 -0.141919
v 0.008146 1.602569 -0.136255
v 0.020377 1.617281 -0.131008
v 0.039012 1.610918 -0.133429
v 0.038297 1.592274 -0.140172
v 0.022917 1.630728 -0.261827
v 0.014212 1.643234 -0.258333
v 0.023850 1.654828 -0.254202
v 0.038512 1.649488 -0.255143
v 0.037936 1.634593 -0.259856
v 0.033964 1.670405 -0.384259
v 0.027689 1.678704 -0.379581
v 0.034723 1.687153 -0.376538
v 0.045346 1.684076 -0.379334
v 0.044877 1.673725 -0.384106
v -0.006215 1.747594 -0.492375
v -0.009663 1.751831 -0.488208
v -0.005428 1.756922 -0.486381
v 0.000637 1.755832 -0.489418
v 0.000151 1.750067 -0.493123
vn -0.9763 -0.1118 -0.1853
vn -0.4589 -0.1961 0.8666
vn 0.6866 0.0250 0.7266
vn 0.8775 0.2459 -0.4116
vn -0.1502 0.1614 -0.9754
vn -0.9788 -0.0935 -0.1825
vn -0.4580 -0.2012 0.8659
vn 0.6908 0.0035 0.7231
vn 0.8788 0.2384 -0.4133
vn -0.1520 0.1785 -0.9721
vn -0.9817 -0.0647 -0.1790
vn -0.4706 -0.1028 0.8764
vn 0.6860 0.0359 0.7268
vn 0.8909 0.1604 -0.4249
vn -0.1405 0.0977 -0.9852
vn -0.9718 -0.1397 -0.1898
vn -0.4559 -0.2185 0.8628
vn 0.6853 0.0422 0.7271
vn 0.8711 0.2783 -0.4045
vn -0.1497 0.1657 -0.9748
vn -0.9845 0.0932 -0.1484
vn -0.4726 -0.0978 0.8758
vn 0.6991 -0.1258 0.7039
vn 0.8934 0.0779 -0.4424
vn -0.1267 0.2055 -0.9704
vn -0.8832 0.4251 -0.1980
vn -0.3249 0.4816 0.8139
vn 0.7014 -0.0860 0.7075
vn 0.7575 -0.5206 -0.3939
vn -0.2112 -0.2032 -0.9561
vn -0.9756 0.1887 -0.1123
vn -0.3668 0.5089 0.7788
vn 0.7850 0.1690 0.5960
vn 0.8330 -0.3421 -0.4349
vn -0.2523 -0.3688 -0.8946
vn -0.7800 -0.6250 0.0306
vn -0.2275 -0.2174 0.9492
vn 0.6334 0.5249 0.5686
vn 0.5962 0.5399 -0.5942
vn -0.2743 -0.1298 -0.9529
vn -0.9184 -0.3906 0.0632
vn 0.0296 -0.6566 0.7536
vn 0.9089 0.0055 0.4171
vn 0.5291 0.6968 -0.4843
vn -0.5887 0.4286 -0.6853
vn 0.1680 -0.9726 -0.1607
vn -0.2805 0.7031 0.6534
vn 0.0761 -0.9937 0.0827
vn 0.9142 -0.2147 0.3438
vn 0.4807 0.8621 0.1604
vn -0.6282 0.7479 -0.2143
vn -0.8784 -0.3992 -0.2627
vn 0.1030 -0.9947 -0.0060
vn 0.9557 -0.2158 0.2002
vn 0.4808 0.8620 0.1606
vn -0.6659 0.7428 -0.0690
vn -0.9016 -0.3968 -0.1725
vn 0.0410 -0.9847 0.1694
vn 0.8524 -0.2044 0.4812
vn 0.4791 0.8631 0.1600
vn -0.5727 0.7380 -0.3569
vn -0.8453 -0.4026 -0.3513
vn 0.0608 -0.9914 0.1159
vn 0.8926 -0.2105 0.3986
vn 0.4783 0.8636 0.1595
vn -0.6088 0.7457 -0.2708
vn -0.8671 -0.3994 -0.2978
vn 0.3229 -0.0307 -0.9459
vn -0.3730 0.0622 0.9257
vn 0.3137 -0.1477 -0.9380
vn -0.1691 0.8384 -0.5182
vn -0.3897 0.6764 0.6250
vn -0.0431 -0.4096 0.9112
vn 0.3914 -0.9186 -0.0542
vn 0.3270 -0.1440 -0.9340
vn -0.1045 0.8594 -0.5005
vn -0.3628 0.6845 0.6323
vn -0.0908 -0.4276 0.8994
vn 0.3354 -0.9396 -0.0684
vn 0.3518 -0.1318 -0.9268
vn -0.0403 0.8761 -0.4805
vn -0.3492 0.6910 0.6329
vn -0.1426 -0.4477 0.8827
vn 0.2889 -0.9542 -0.0773
vn 0.2148 -0.1931 -0.9574
vn -0.4731 0.6739 -0.5675
vn -0.4841 0.6319 0.6053
vn 0.2033 -0.2744 0.9399
vn 0.6292 -0.7772 -0.0122
vn -0.9095 -0.3495 -0.2250
vn 0.7903 0.6120 0.0304
vn -0.6788 -0.7301 0.0788
vn -0.7146 0.3059 0.6291
vn 0.2191 0.9324 0.2876
vn 0.8329 0.2820 -0.4762
vn 0.2781 -0.7459 -0.6053
vn -0.6265 -0.7656 0.1465
vn -0.6287 0.2481 0.7370
vn 0.2189 0.9324 0.2876
vn 0.7407 0.3369 -0.5813
vn 0.2241 -0.7072 -0.6705
vn -0.7220 -0.6919 0.0045
vn -0.7830 0.3611 0.5064
vn 0.2206 0.9324 0.2864
vn 0.9075 0.2223 -0.3564
vn 0.3266 -0.7811 -0.5321
vn -0.6954 -0.7170 0.0488
vn -0.7430 0.3290 0.5829
vn 0.2216 0.9323 0.2859
vn 0.8644 0.2589 -0.4311
vn 0.2987 -0.7595 -0.5779
vn 0.5332 -0.3827 0.7545
vn -0.4814 0.3811 -0.7893
vn -0.8299 -0.5210 -0.1997
vn -0.7872 0.5739 0.2260
vn 0.3428 0.8867 0.3102
vn 0.9979 -0.0147 -0.0636
vn 0.2735 -0.8842 -0.3786
vn -0.8292 -0.5167 -0.2134
vn -0.7863 0.5968 0.1597
vn 0.3433 0.8957 0.2825
vn 0.9993 -0.0334 -0.0148
vn 0.2749 -0.9062 -0.3212
vn -0.8301 -0.5039 -0.2389
vn -0.7816 0.6167 0.0935
vn 0.3398 0.9012 0.2690
vn 0.9977 -0.0559 0.0387
vn 0.2776 -0.9208 -0.2739
vn -0.8189 -0.5653 -0.0991
vn -0.7342 0.4188 0.5344
vn 0.3526 0.8429 0.4064
vn 0.9439 0.1082 -0.3121
vn 0.2301 -0.7499 -0.6202
vn 0.0312 -0.3633 0.9312
vn -0.3001 0.5335 -0.7907
s 0
g dead_bush.001_wood
usemtl wood
f 1//1 2//1 7//1 6//1
f 2//2 3//2 8//2 7//2
f 3//3 4//3 9//3 8//3
f 4//4 5//4 10//4 9//4
f 5//5 1//5 6//5 10//5
f 6//6 7//6 12//6 11//6
f 7//7 8//7 13//7 12//7
f 8//8 9//8 14//8 13//8
f 9//9 10//9 15//9 14//9
f 10//10 6//10 11//10 15//10
f 11//11 12//11 17//11 16//11
f 12//12 13//12 18//12 17//12
f 13//13 14//13 19//13 18//13
f 14//14 15//14 20//14 19//14
f 15//15 11//15 16//15 20//15
f 16//16 17//16 22//16 21//16
f 17//17 18//17 23//17 22//17
f 18//18 19//18 24//18 23//18
f 19//19 20//19 25//19 24//19
f 20//20 16//20 21//20 25//20
f 21//21 22//21 27//21 26//21
f 22//22 23//22 28//22 27//22
f 23//23 24//23 29//23 28//23
f 24//24 25//24 30//24 29//24
f 25//25 21//25 26//25 30//25
f 26//26 27//26 32//26 31//26
f 27//27 28//27 33//27 32//27
f 28//28 29//28 34//28 33//28
f 29//29 30//29 35//29 34//29
f 30//30 26//30 31//30 35//30
f 31//31 32//31 37//31 36//31
f 32//32 33//32 38//32 37//32
f 33//33 34//33 39//33 38//33
f 34//34 35//34 40//34 39//34
f 35//35 31//35 36//35 40//35
f 36//36 37//36 42//36 41//36
f 37//37 38//37 43//37 42//37
f 38//38 39//38 44//38 43//38
f 39//39 40//39 45//39 44//39
f 40//40 36//40 41//40 45//40
f 41//41 42//41 47//41 46//41
f 42//42 43//42 48//42 47//42
f 43//43 44//43 49//43 48//43
f 44//44 45//44 50//44 49//44
f 45//45 41//45 46//45 50//45
f 5//46 4//46 3//46 2//46 1//46
f 46//47 47//47 48//47 49//47 50//47
f 51//48 52//48 57//48 56//48
f 52//49 53//49 58//49 57//49
f 53//50 54//50 59//50 58//50
f 54//51 55//51 60//51 59//51
f 55//52 51//52 56//52 60//52
f 56//53 57//53 62//53 61//53
f 57//54 58//54 63//54 62//54
f 58//55 59//55 64//55 63//55
f 59//56 60//56 65//56 64//56
f 60//57 56//57 61//57 65//57
f 61//58 62//58 67//58 66//58
f 62//59 63//59 68//59 67//59
f 63//60 64//60 69//60 68//60
f 64//61 65//61 70//61 69//61
f 65//62 61//62 66//62 70//62
f 66//63 67//63 72//63 71//63
f 67//64 68//64 73//64 72//64
f 68//65 69//65 74//65 73//65
f 69//66 70//66 75//66 74//66
f 70//67 66//67 71//67 75//67
f 55//68 54//68 53//68 52//68 51//68
f 71//69 72//69 73//69 74//69 75//69
f 76//70 77//70 82//70 81//70
f 77//71 78//71 83//71 82//71
f 78//72 79//72 84//72 83//72
f 79//73 80//73 85//73 84//73
f 80//74 76//74 81//74 85//74
f 81//75 82//75 87//75 86//75
f 82//76 83//76 88//76 87//76
f 83//77 84//77 89//77 88//77
f 84//78 85//78 90//78 89//78
f 85//79 81//79 86//79 90//79
f 86//80 87//80 92//80 91//80
f 87//81 88//81 93//81 92//81
f 88//82 89//82 94//82 93//82
f 89//83 90//83 95//83 94//83
f 90//84 86//84 91//84 95//84
f 91//85 92//85 97//85 96//85
f 92//86 93//86 98//86 97//86
f 93//87 94//87 99//87 98//87
f 94//88 95//88 100//88 99//88
f 95//89 91//89 96//89 100//89
f 80//90 79//90 78//90 77//90 76//90
f 96//91 97//91 98//91 99//91 100//91
f 101//92 102//92 107//92 106//92
f 102//93 103//93 108//93 107//93
f 103//94 104//94 109//94 108//94
f 104//95 105//95 110//95 109//95
f 105//96 101//96 106//96 110//96
f 106//97 107//97 112//97 111//97
f 107//98 108//98 113//98 112//98
f 108//99 109//99 114//99 113//99
f 109//100 110//100 115//100 114//100
f 110//101 106//101 111//101 115//101
f 111//102 112//102 117//102 116//102
f 112//103 113//103 118//103 117//103
f 113//104 114//104 119//104 118//104
f 114//105 115//105 120//105 119//105
f 115//106 111//106 116//106 120//106
f 116//107 117//107 122//107 121//107
f 117//108 118//108 123//108 122//108
f 118//109 119//109 124//109 123//109
f 119//110 120//110 125//110 124//110
f 120//111 116//111 121//111 125//111
f 105//112 104//112 103//112 102//112 101//112
f 121//113 122//113 123//113 124//113 125//113
f 126//114 127//114 132//114 131//114
f 127//115 128//115 133//115 132//115
f 128//116 129//116 134//116 133//116
f 129//117 130//117 135//117 134//117
f 130//118 126//118 131//118 135//118
f 131//119 132//119 137//119 136//119
f 132//120 133//120 138//120 137//120
f 133//121 134//121 139//121 138//121
f 134//122 135//122 140//122 139//122
f 135//123 131//123 136//123 140//123
f 136//124 137//124 142//124 141//124
f 137//125 138//125 143//125 142//125
f 138//126 139//126 144//126 143//126
f 139//127 140//127 145//127 144//127
f 140//128 136//128 141//128 145//128
f 141//129 142//129 147//129 146//129
f 142//130 143//130 148//130 147//130
f 143//131 144//131 149//131 148//131
f 144//132 145//132 150//132 149//132
f 145//133 141//133 146//133 150//133
f 130//134 129//134 128//134 127//134 126//134
f 146//135 147//135 148//135 149//135 150//135
