# Blender 3.5.0
# www.blender.org
mtllib dead_bush_3.mtl
o dead_bush.003
v -0.069504 0.000000 -0.071897
v -0.089809 -0.003515 0.043840
v 0.013999 -0.002172 0.098991
v 0.098461 0.002172 0.017340
v 0.046853 0.003515 -0.088275
v -0.068924 0.176055 -0.061906
v -0.087766 0.175610 0.045105
v 0.008149 0.178160 0.096097
v 0.086270 0.180182 0.020602
v 0.038636 0.178881 -0.077049
v -0.068316 0.357441 -0.061179
v -0.085613 0.356484 0.037064
v 0.002464 0.354244 0.083851
v 0.074195 0.353817 0.014525
v 0.030451 0.355792 -0.075108
v -0.051808 0.533025 -0.046358
v -0.067555 0.532652 0.043100
v 0.012656 0.533221 0.085723
v 0.077977 0.533945 0.022607
v 0.038135 0.533824 -0.059023
v -0.060773 0.717736 -0.048930
v -0.075019 0.708894 0.031238
v -0.002731 0.703116 0.069304
v 0.056192 0.708387 0.012662
v 0.020321 0.717423 -0.060410
v -0.033090 0.900081 0.007825
v -0.045818 0.882051 0.076986
v 0.018222 0.873471 0.110083
v 0.070530 0.886198 0.061377
v 0.038817 0.902643 -0.001821
v -0.046234 1.052820 0.053809
v -0.059938 1.054210 0.115678
v -0.007971 1.072815 0.146838
v 0.037851 1.082923 0.104225
v 0.014203 1.070566 0.046730
v -0.130833 1.228462 -0.023703
v -0.144414 1.237032 0.026290
v -0.102385 1.255847 0.051525
v -0.062829 1.258904 0.017128
v -0.080411 1.241979 -0.029365
v -0.147582 1.421922 -0.032255
v -0.158854 1.429198 0.009165
v -0.122844 1.426834 0.033522
v -0.089316 1.418097 0.007156
v -0.104606 1.415061 -0.033496
v -0.060297 1.602857 -0.063289
v -0.067708 1.612765 -0.032063
v -0.041696 1.605032 -0.012272
v -0.018208 1.590345 -0.031266
v -0.029705 1.589001 -0.062797
v -0.009567 0.499523 -0.014432
v -0.000716 0.499344 0.035116
v 0.011724 0.546137 0.048862
v 0.010561 0.575236 0.007811
v -0.002598 0.546427 -0.031307
v -0.265346 0.560472 0.036018
v -0.255531 0.559844 0.076236
v -0.246265 0.598520 0.087750
v -0.250354 0.623050 0.054648
v -0.262147 0.599536 0.022676
v -0.520775 0.597036 0.121379
v -0.515126 0.596930 0.153221
v -0.507119 0.626992 0.162051
v -0.507818 0.645678 0.135666
v -0.516258 0.627165 0.110530
v -0.776856 0.682877 0.136519
v -0.774780 0.683293 0.159741
v -0.768243 0.704781 0.166007
v -0.766280 0.717646 0.146658
v -0.771603 0.704108 0.128434
v -1.032758 0.753452 0.173275
v -1.030930 0.753564 0.187538
v -1.027108 0.766871 0.191425
v -1.026574 0.774984 0.179564
v -1.030066 0.766691 0.168346
v 0.017050 0.901246 0.023320
v 0.002709 0.868096 0.028875
v -0.001926 0.863681 0.064854
v 0.009550 0.894103 0.081535
v 0.021277 0.917319 0.055866
v -0.163405 0.974274 0.014289
v -0.175722 0.947132 0.018842
v -0.178889 0.943205 0.048568
v -0.168530 0.967920 0.062387
v -0.158961 0.987122 0.041202
v -0.340789 1.055308 0.016040
v -0.351356 1.034330 0.019610
v -0.352982 1.030822 0.043052
v -0.343419 1.049632 0.053970
v -0.335883 1.064765 0.037276
v -0.512898 1.145177 0.026207
v -0.518678 1.129064 0.028959
v -0.521866 1.127338 0.045913
v -0.518057 1.142384 0.053640
v -0.512514 1.153409 0.041461
v -0.711463 1.170476 -0.033050
v -0.713524 1.160437 -0.031051
v -0.716849 1.159729 -0.021179
v -0.716844 1.169331 -0.017076
v -0.713515 1.175972 -0.024413
v 0.008819 1.053181 0.093964
v -0.015490 1.046752 0.078387
v -0.035554 1.067844 0.083634
v -0.023644 1.087309 0.102455
v 0.003780 1.078247 0.108840
v 0.060777 1.138759 -0.027423
v 0.040256 1.132692 -0.039005
v 0.023952 1.150340 -0.035159
v 0.034397 1.167314 -0.021200
v 0.057156 1.160157 -0.016419
v 0.102747 1.208121 -0.165047
v 0.087136 1.204002 -0.175075
v 0.074241 1.217550 -0.171696
v 0.081883 1.230041 -0.159581
v 0.099501 1.224214 -0.155472
v 0.164742 1.310212 -0.269966
v 0.153944 1.307931 -0.278090
v 0.144472 1.317436 -0.275312
v 0.149415 1.325592 -0.265471
v 0.161942 1.321127 -0.262167
v 0.220600 1.402181 -0.384972
v 0.213811 1.400579 -0.389744
v 0.208019 1.406516 -0.388122
v 0.211228 1.411787 -0.382348
v 0.219004 1.409108 -0.380401
vn -0.9849 0.0128 -0.1729
vn -0.4693 -0.0010 0.8830
vn 0.6939 0.0342 0.7193
vn 0.8964 0.0697 -0.4377
vn -0.1407 0.0566 -0.9884
vn -0.9848 0.0040 -0.1734
vn -0.4689 0.0455 0.8821
vn 0.6927 0.0728 0.7176
vn 0.8978 0.0467 -0.4379
vn -0.1396 0.0044 -0.9902
vn -0.9794 0.1064 -0.1717
vn -0.4690 0.0176 0.8830
vn 0.6942 -0.0469 0.7183
vn 0.8987 0.0008 -0.4386
vn -0.1385 0.0956 -0.9857
vn -0.9829 -0.0518 -0.1766
vn -0.4662 0.0414 0.8837
vn 0.6850 0.1288 0.7171
vn 0.8969 0.0855 -0.4340
vn -0.1397 -0.0208 -0.9900
vn -0.9706 0.1957 -0.1401
vn -0.4699 -0.1505 0.8698
vn 0.6873 -0.2454 0.6837
vn 0.8984 0.0478 -0.4366
vn -0.1345 0.3120 -0.9405
vn -0.9791 -0.0297 -0.2013
vn -0.4573 -0.2244 0.8606
vn 0.6861 -0.0440 0.7262
vn 0.8857 0.2389 -0.3981
vn -0.1604 0.2617 -0.9517
vn -0.8596 -0.4830 -0.1667
vn -0.5509 0.1455 0.8218
vn 0.4879 0.5914 0.6420
vn 0.8606 0.2857 -0.4217
vn 0.0079 -0.4013 -0.9159
vn -0.9647 -0.0944 -0.2459
vn -0.5405 0.0294 0.8408
vn 0.6387 0.1547 0.7537
vn 0.9187 0.1242 -0.3750
vn -0.0707 -0.0424 -0.9966
vn -0.8763 0.3671 -0.3122
vn -0.4818 0.4151 0.7717
vn 0.6030 -0.0710 0.7946
vn 0.8590 -0.4197 -0.2933
vn -0.0508 -0.1448 -0.9882
vn 0.0266 -0.9993 -0.0257
vn 0.4078 0.8938 -0.1868
vn -0.2248 -0.9737 0.0380
vn 0.0818 -0.3015 0.9499
vn 0.2452 0.7937 0.5567
vn 0.0384 0.7983 -0.6010
vn -0.2520 -0.2943 -0.9219
vn -0.1357 -0.9906 0.0190
vn 0.2253 -0.3281 0.9174
vn 0.2451 0.7936 0.5568
vn -0.1060 0.8184 -0.5647
vn -0.3403 -0.2763 -0.8988
vn -0.3145 -0.9480 0.0494
vn -0.0638 -0.2638 0.9625
vn 0.2451 0.7948 0.5551
vn 0.1856 0.7611 -0.6215
vn -0.1605 -0.3144 -0.9356
vn -0.2602 -0.9647 0.0407
vn 0.0252 -0.2869 0.9576
vn 0.2452 0.7954 0.5542
vn 0.0958 0.7856 -0.6112
vn -0.2163 -0.3008 -0.9288
vn 0.9633 -0.2053 -0.1728
vn -0.9629 0.2410 0.1215
vn -0.0149 -0.1589 -0.9872
vn -0.3921 -0.9056 -0.1615
vn -0.2561 -0.3883 0.8852
vn 0.2049 0.6775 0.7064
vn 0.3541 0.8196 -0.4503
vn -0.0706 -0.1333 -0.9886
vn -0.4393 -0.8834 -0.1631
vn -0.2293 -0.3995 0.8876
vn 0.2694 0.6499 0.7107
vn 0.3676 0.8146 -0.4487
vn -0.1195 -0.1154 -0.9861
vn -0.4920 -0.8540 -0.1693
vn -0.2161 -0.4041 0.8888
vn 0.3286 0.6211 0.7115
vn 0.3931 0.8038 -0.4466
vn 0.2488 -0.2448 -0.9371
vn -0.1223 -0.9853 -0.1191
vn -0.3560 -0.3590 0.8628
vn -0.1224 0.7628 0.6349
vn 0.2485 0.8472 -0.4695
vn 0.9198 -0.3860 0.0711
vn -0.9422 0.1321 -0.3079
vn 0.4532 -0.8082 -0.3761
vn -0.6348 -0.4482 -0.6294
vn -0.8360 0.5474 -0.0384
vn 0.1304 0.8034 0.5810
vn 0.9274 -0.0346 0.3725
vn 0.4218 -0.8548 -0.3024
vn -0.6840 -0.5223 -0.5092
vn -0.8360 0.5473 -0.0386
vn 0.1797 0.8714 0.4564
vn 0.9549 0.0120 0.2968
vn 0.4872 -0.7523 -0.4436
vn -0.5737 -0.3601 -0.7357
vn -0.8352 0.5487 -0.0373
vn 0.0740 0.7164 0.6938
vn 0.8920 -0.0858 0.4438
vn 0.4684 -0.7869 -0.4018
vn -0.6131 -0.4144 -0.6726
vn -0.8348 0.5493 -0.0365
vn 0.1093 0.7715 0.6268
vn 0.9143 -0.0532 0.4016
vn -0.3543 -0.5289 0.7712
vn 0.3788 0.5690 -0.7299
s 0
g dead_bush.003_wood
usemtl wood
f 1//1 2//1 7//1 6//1
f 2//2 3//2 8//2 7//2
f 3//3 4//3 9//3 8//3
f 4//4 5//4 10//4 9//4
f 5//5 1//5 6//5 10//5
f 6//6 7//6 12//6 11//6
f 7//7 8//7 13//7 12//7
f 8//8 9//8 14//8 13//8
f 9//9 10//9 15//9 14//9
f 10//10 6//10 11//10 15//10
f 11//11 12//11 17//11 16//11
f 12//12 13//12 18//12 17//12
f 13//13 14//13 19//13 18//13
f 14//14 15//14 20//14 19//14
f 15//15 11//15 16//15 20//15
f 16//16 17//16 22//16 21//16
f 17//17 18//17 23//17 22//17
f 18//18 19//18 24//18 23//18
f 19//19 20//19 25//19 24//19
f 20//20 16//20 21//20 25//20
f 21//21 22//21 27//21 26//21
f 22//22 23//22 28//22 27//22
f 23//23 24//23 29//23 28//23
f 24//24 25//24 30//24 29//24
f 25//25 21//25 26//25 30//25
f 26//26 27//26 32//26 31//26
f 27//27 28//27 33//27 32//27
f 28//28 29//28 34//28 33//28
f 29//29 30//29 35//29 34//29
f 30//30 26//30 31//30 35//30
f 31//31 32//31 37//31 36//31
f 32//32 33//32 38//32 37//32
f 33//33 34//33 39//33 38//33
f 34//34 35//34 40//34 39//34
f 35//35 31//35 36//35 40//35
f 36//36 37//36 42//36 41//36
f 37//37 38//37 43//37 42//37
f 38//38 39//38 44//38 43//38
f 39//39 40//39 45//39 44//39
f 40//40 36//40 41//40 45//40
f 41//41 42//41 47//41 46//41
f 42//42 43//42 48//42 47//42
f 43//43 44//43 49//43 48//43
f 44//44 45//44 50//44 49//44
f 45//45 41//45 46//45 50//45
f 5//46 4//46 3//46 2//46 1//46
f 46//47 47//47 48//47 49//47 50//47
f 51//48 52//48 57//48 56//48
f 52//49 53//49 58//49 57//49
f 53//50 54//50 59//50 58//50
f 54//51 55//51 60//51 59//51
f 55//52 51//52 56//52 60//52
f 56//53 57//53 62//53 61//53
f 57//54 58//54 63//54 62//54
f 58//55 59//55 64//55 63//55
f 59//56 60//56 65//56 64//56
f 60//57 56//57 61//57 65//57
f 61//58 62//58 67//58 66//58
f 62//59 63//59 68//59 67//59
f 63//60 64//60 69//60 68//60
f 64//61 65//61 70//61 69//61
f 65//62 61//62 66//62 70//62
f 66//63 67//63 72//63 71//63
f 67//64 68//64 73//64 72//64
f 68//65 69//65 74//65 73//65
f 69//66 70//66 75//66 74//66
f 70//67 66//67 71//67 75//67
f 55//68 54//68 53//68 52//68 51//68
f 71//69 72//69 73//69 74//69 75//69
f 76//70 77//70 82//70 81//70
f 77//71 78//71 83//71 82//71
f 78//72 79//72 84//72 83//72
f 79//73 80//73 85//73 84//73
f 80//74 76//74 81//74 85//74
f 81//75 82//75 87//75 86//75
f 82//76 83//76 88//76 87//76
f 83//77 84//77 89//77 88//77
f 84//78 85//78 90//78 89//78
f 85//79 81//79 86//79 90//79
f 86//80 87//80 92//80 91//80
f 87//81 88//81 93//81 92//81
f 88//82 89//82 94//82 93//82
f 89//83 90//83 95//83 94//83
f 90//84 86//84 91//84 95//84
f 91//85 92//85 97//85 96//85
f 92//86 93//86 98//86 97//86
f 93//87 94//87 99//87 98//87
f 94//88 95//88 100//88 99//88
f 95//89 91//89 96//89 100//89
f 80//90 79//90 78//90 77//90 76//90
f 96//91 97//91 98//91 99//91 100//91
f 101//92 102//92 107//92 106//92
f 102//93 103//93 108//93 107//93
f 103//94 104//94 109//94 108//94
f 104//95 105//95 110//95 109//95
f 105//96 101//96 106//96 110//96
f 106//97 107//97 112//97 111//97
f 107//98 108//98 113//98 112//98
f 108//99 109//99 114//99 113//99
f 109//100 110//100 115//100 114//100
f 110//101 106//101 111//101 115//101
f 111//102 112//102 117//102 116//102
f 112//103 113//103 118//103 117//103
f 113//104 114//104 119//104 118//104
f 114//105 115//105 120//105 119//105
f 115//106 111//106 116//106 120//106
f 116//107 117//107 122//107 121//107
f 117//108 118//108 123//108 122//108
f 118//109 119//109 124//109 123//109
f 119//110 120//110 125//110 124//110
f 120//111 116//111 121//111 125//111
f 105//112 104//112 103//112 102//112 101//112
f 121//113 122//113 123//113 124//113 125//113
