# Blender 3.5.0
# www.blender.org
mtllib cactus1.mtl
o main_cactus.001
v 0.413655 0.000000 0.027152
v 0.153592 -0.026496 -0.384130
v -0.318731 -0.016375 -0.264557
v -0.350578 0.016375 0.220624
v 0.102062 0.026496 0.400911
v 0.444239 0.696458 -0.017816
v 0.166879 0.678409 -0.457003
v -0.336871 0.681788 -0.329082
v -0.370846 0.701924 0.189165
v 0.111906 0.710992 0.381538
v 0.468740 1.401223 -0.023490
v 0.170913 1.397360 -0.494937
v -0.369267 1.381101 -0.357391
v -0.405290 1.374915 0.199064
v 0.112627 1.387351 0.405426
v 0.477439 2.145486 0.000522
v 0.154406 2.113156 -0.514583
v -0.430945 2.037256 -0.365138
v -0.469678 2.022678 0.242329
v 0.091734 2.089568 0.468320
v 0.400368 2.776862 0.003711
v 0.034660 2.802047 -0.569511
v -0.623727 2.772611 -0.400338
v -0.664924 2.729233 0.277438
v -0.031999 2.731860 0.527154
v 0.579677 3.272639 0.074674
v 0.166751 3.446274 -0.580160
v -0.584831 3.584198 -0.366700
v -0.636409 3.495805 0.420060
v 0.083296 3.303251 0.692844
v 0.984496 4.051073 0.166807
v 0.410141 3.954231 -0.682874
v -0.580442 4.009214 -0.405492
v -0.618302 4.140038 0.615621
v 0.348883 4.165908 0.969321
v 0.870619 4.806173 -0.106203
v 0.266278 4.517413 -0.979318
v -0.786519 4.468127 -0.662887
v -0.832842 4.726427 0.405792
v 0.191326 4.935350 0.749842
v 0.849244 5.212515 -0.150120
v 0.265597 5.314219 -1.040250
v -0.755700 5.446243 -0.752427
v -0.803248 5.426134 0.315587
v 0.188662 5.281682 0.687833
v 0.585462 5.875131 -0.065660
v 0.299308 6.025835 -0.522829
v -0.226386 6.140836 -0.367846
v -0.265129 6.061207 0.185107
v 0.236621 5.896992 0.371868
v -0.648071 3.212653 1.962256
v -0.653192 3.768106 1.952867
v -1.153989 3.204112 1.732874
v -1.159110 3.759564 1.723485
v -0.877555 3.219088 2.468159
v -0.882676 3.774541 2.458770
v -1.383473 3.210547 2.238776
v -1.388594 3.766000 2.229388
v -0.521936 3.490748 1.909171
v -0.859974 3.110052 1.760675
v -1.204925 3.479217 1.599504
v -0.673382 3.120161 2.256992
v -0.680295 3.870022 2.244318
v -1.169778 3.118740 2.443644
v -1.176691 3.868601 2.430969
v -1.356370 3.108630 1.947326
v -1.514729 3.487905 2.282473
v -0.866888 3.859913 1.748000
v -0.831740 3.499436 2.592139
v -1.363284 3.858491 1.934651
v -0.811797 3.483534 1.640509
v -0.563007 3.497014 2.302266
v -1.224869 3.495118 2.551134
v -1.473659 3.481639 1.889378
v -1.013724 2.989419 2.104272
v -1.022942 3.989233 2.087372
v 1.845459 4.418215 -0.378122
v 1.782250 4.970075 -0.368268
v 1.873774 4.411552 0.176672
v 1.810565 4.963412 0.186525
v 2.396680 4.481839 -0.405490
v 2.333472 5.033699 -0.395637
v 2.424995 4.475176 0.149303
v 2.361787 5.027036 0.159157
v 1.712436 4.684177 -0.465494
v 1.774214 4.307174 -0.097660
v 1.750661 4.675182 0.283477
v 2.127176 4.354618 -0.490619
v 2.041844 5.099629 -0.477317
v 2.518363 4.393066 -0.134608
v 2.433031 5.138078 -0.121305
v 2.165401 4.345623 0.258352
v 2.494810 4.761075 0.246529
v 1.688883 5.052185 -0.084358
v 2.456584 4.770070 -0.502442
v 2.080070 5.090634 0.271654
v 1.607523 4.665364 -0.084851
v 2.078139 4.728622 -0.608797
v 2.599722 4.779887 -0.134114
v 2.129106 4.716629 0.389832
v 2.160510 4.225952 -0.118351
v 2.046735 5.219300 -0.100614
v 0.002818 5.365524 -1.979125
v 0.038575 5.917514 -1.927446
v 0.549222 5.321671 -1.888788
v 0.584979 5.873661 -1.837109
v 0.096655 5.410538 -2.524845
v 0.132412 5.962527 -2.473166
v 0.643059 5.366685 -2.434508
v 0.678816 5.918674 -2.382829
v -0.091346 5.641316 -1.873594
v 0.253341 5.239122 -1.847499
v 0.646300 5.582115 -1.751638
v -0.052142 5.299107 -2.276838
v -0.003870 6.044293 -2.207071
v 0.380021 5.299891 -2.584221
v 0.428293 6.045077 -2.514454
v 0.685504 5.239906 -2.154883
v 0.772980 5.642883 -2.488360
v 0.301613 5.984308 -1.777732
v 0.035334 5.702084 -2.610316
v 0.733776 5.985092 -2.085116
v 0.256364 5.601587 -1.689829
v -0.150947 5.681567 -2.262280
v 0.425270 5.682611 -2.672125
v 0.832581 5.602632 -2.099673
v 0.308636 5.145308 -2.227488
v 0.372998 6.138890 -2.134465
v 0.187040 1.003083 0.015591
v 0.085214 1.180213 -0.102044
v -0.128278 1.108294 -0.171543
v -0.158397 0.886717 -0.096861
v 0.036480 0.821693 0.018794
v 0.081982 1.148581 0.404903
v -0.054018 1.385159 0.247787
v -0.339163 1.289103 0.154962
v -0.379392 0.993159 0.254710
v -0.119110 0.906311 0.409181
v -0.023153 1.294076 0.794179
v -0.193286 1.590028 0.597632
v -0.549992 1.469865 0.481512
v -0.600317 1.099649 0.606292
v -0.274713 0.991005 0.799531
v -0.128446 1.439570 1.183384
v -0.283878 1.727849 0.842489
v -0.730581 1.609192 0.743246
v -0.851228 1.247579 1.022805
v -0.479088 1.142746 1.294825
v -0.156722 1.804256 1.399012
v -0.294295 2.016136 0.906288
v -0.834515 1.925197 0.825732
v -1.030816 1.657113 1.268669
v -0.611917 1.582367 1.622975
v -0.148986 2.179121 1.621810
v -0.315538 2.431315 1.016115
v -0.976577 2.322751 0.918912
v -1.218570 2.003460 1.464531
v -0.707090 1.914691 1.898946
v -0.171864 2.553468 1.830728
v -0.359005 2.836839 1.150159
v -1.101761 2.714854 1.040939
v -1.373668 2.356093 1.654007
v -0.798960 2.256351 2.142123
v -0.257465 2.926757 2.011207
v -0.445272 3.211138 1.328214
v -1.190674 3.088718 1.218605
v -1.463550 2.728678 1.833857
v -0.886795 2.628582 2.323712
v -0.410183 3.298913 2.161256
v -0.577339 3.552022 1.553366
v -1.240775 3.443064 1.455810
v -1.483645 3.122616 2.003407
v -0.970311 3.033526 2.439397
v -0.775007 3.667488 2.215135
v -0.854141 3.787313 1.927351
v -1.168221 3.735731 1.881167
v -1.283199 3.584026 2.140407
v -1.040180 3.541850 2.346811
v -0.027752 2.002196 -0.216745
v -0.097089 2.157375 -0.084637
v -0.057707 2.095067 0.117618
v 0.035970 1.901379 0.110511
v 0.054483 1.843982 -0.096137
v 0.316611 2.171576 -0.293830
v 0.224003 2.378836 -0.117383
v 0.276603 2.295616 0.152754
v 0.401720 2.036922 0.143262
v 0.426446 1.960261 -0.132742
v 0.660979 2.340954 -0.370836
v 0.545129 2.600230 -0.150107
v 0.610930 2.496124 0.187826
v 0.767447 2.172507 0.175951
v 0.798379 2.076607 -0.169321
v 1.005354 2.510330 -0.447685
v 0.767549 2.749841 -0.178607
v 0.884245 2.652270 0.225350
v 1.194172 2.352457 0.205932
v 1.269022 2.264733 -0.210027
v 1.156923 2.860929 -0.514198
v 0.796275 3.017493 -0.196323
v 0.964323 2.950563 0.275804
v 1.428831 2.752634 0.249720
v 1.547864 2.697238 -0.238528
v 1.298356 3.219882 -0.612928
v 0.854731 3.404728 -0.224267
v 1.061213 3.325408 0.352883
v 1.632451 3.091540 0.320920
v 1.779014 3.026321 -0.275984
v 1.441353 3.578465 -0.681004
v 0.942888 3.786162 -0.244298
v 1.174896 3.697037 0.404199
v 1.816749 3.434258 0.368285
v 1.981429 3.360977 -0.302408
v 1.587556 3.936295 -0.686276
v 1.087315 4.144732 -0.248014
v 1.320149 4.055289 0.402793
v 1.964289 3.791574 0.366751
v 2.129555 3.718031 -0.306331
v 1.737188 4.293317 -0.624342
v 1.291955 4.478833 -0.234272
v 1.499186 4.399226 0.344971
v 2.072495 4.164510 0.312892
v 2.219588 4.099054 -0.286176
v 1.897660 4.647788 -0.350024
v 1.686880 4.735614 -0.165359
v 1.784986 4.697927 0.108862
v 2.056399 4.586810 0.093676
v 2.126035 4.555822 -0.189932
v -0.389159 3.013051 -0.058704
v -0.276021 3.147283 0.024702
v -0.094517 3.077976 0.029997
v -0.095479 2.900908 -0.050138
v -0.277578 2.860782 -0.104958
v -0.380670 3.158683 -0.380600
v -0.229561 3.337968 -0.269200
v 0.012861 3.245399 -0.262129
v 0.011575 3.008903 -0.369159
v -0.231640 2.955310 -0.442378
v -0.372112 3.304310 -0.702485
v -0.183079 3.528589 -0.563127
v 0.120182 3.412789 -0.554281
v 0.118574 3.116941 -0.688172
v -0.185680 3.049897 -0.779766
v -0.363414 3.449926 -1.024346
v -0.156261 3.657602 -0.767753
v 0.215210 3.542113 -0.791265
v 0.237639 3.263061 -1.062390
v -0.119970 3.206086 -1.206441
v -0.370546 3.764480 -1.177769
v -0.149126 3.898671 -0.801814
v 0.294087 3.805056 -0.858157
v 0.346587 3.613007 -1.268933
v -0.064178 3.587930 -1.466464
v -0.407426 4.088785 -1.328597
v -0.137629 4.247021 -0.866440
v 0.404537 4.134797 -0.936294
v 0.469817 3.907203 -1.441622
v -0.032004 3.878766 -1.684079
v -0.417047 4.410903 -1.474918
v -0.113898 4.588700 -0.955631
v 0.495289 4.462603 -1.034120
v 0.568638 4.206874 -1.601915
v 0.004784 4.174922 -1.874344
v -0.370821 4.728539 -1.612006
v -0.066593 4.906970 -1.090869
v 0.544764 4.780423 -1.169637
v 0.618375 4.523783 -1.739456
v 0.052512 4.491717 -2.012855
v -0.264835 5.041379 -1.739214
v 0.005939 5.200188 -1.275382
v 0.550070 5.087557 -1.345489
v 0.615587 4.859138 -1.852649
v 0.111948 4.830598 -2.095984
v 0.030005 5.339061 -1.835198
v 0.158193 5.414244 -1.615613
v 0.415793 5.360923 -1.648803
v 0.446809 5.252786 -1.888900
v 0.208379 5.239275 -2.004098
vn 0.8449 -0.0710 -0.5302
vn -0.2459 -0.0953 -0.9646
vn -0.9975 -0.0321 -0.0637
vn -0.3705 0.0316 0.9283
vn 0.7686 0.0073 0.6397
vn 0.8454 -0.0333 -0.5332
vn -0.2456 -0.0501 -0.9681
vn -0.9967 -0.0494 -0.0643
vn -0.3694 -0.0325 0.9287
vn 0.7688 -0.0225 0.6391
vn 0.8462 0.0061 -0.5328
vn -0.2444 -0.0333 -0.9691
vn -0.9934 -0.0943 -0.0655
vn -0.3641 -0.0959 0.9264
vn 0.7713 -0.0317 0.6356
vn 0.8401 0.1044 -0.5323
vn -0.2376 -0.1132 -0.9648
vn -0.9632 -0.2592 -0.0716
vn -0.3584 -0.1489 0.9216
vn 0.7637 0.0893 0.6394
vn 0.8141 -0.1934 -0.5475
vn -0.2584 0.0456 -0.9650
vn -0.9971 0.0491 -0.0587
vn -0.3757 -0.1696 0.9111
vn 0.7333 -0.3338 0.5923
vn 0.7614 -0.3879 -0.5194
vn -0.2778 -0.0715 -0.9580
vn -0.9983 0.0283 -0.0501
vn -0.3586 -0.2169 0.9079
vn 0.6903 -0.4151 0.5926
vn 0.8308 -0.0758 -0.5514
vn -0.2389 -0.5246 -0.8171
vn -0.9318 -0.3616 0.0298
vn -0.3448 0.1961 0.9180
vn 0.7653 0.3172 0.5601
vn 0.8305 -0.0332 -0.5560
vn -0.2817 -0.0763 -0.9565
vn -0.9984 0.0309 -0.0473
vn -0.3354 0.1441 0.9310
vn 0.7858 0.1107 0.6085
vn 0.8178 0.3402 -0.4642
vn -0.1395 0.5736 -0.8072
vn -0.7795 0.6264 -0.0030
vn -0.2393 0.4240 0.8735
vn 0.7699 0.2373 0.5924
vn -0.0044 -0.9977 0.0671
vn 0.2546 0.9545 0.1553
vn 0.6798 -0.3528 -0.6430
vn 0.0457 -0.3635 -0.9305
vn 0.0393 0.3327 -0.9422
vn 0.6734 0.3434 -0.6547
vn 0.9396 -0.3387 0.0482
vn 0.9332 0.3574 0.0365
vn 0.6456 0.3655 0.6705
vn 0.6520 -0.3307 0.6823
vn -0.0393 -0.3327 0.9422
vn -0.0457 0.3635 0.9305
vn -0.6798 0.3528 0.6430
vn -0.6734 -0.3434 0.6547
vn -0.6456 -0.3655 -0.6705
vn -0.9332 -0.3574 -0.0365
vn -0.9396 0.3387 -0.0482
vn -0.6520 0.3307 -0.6823
vn 0.4689 -0.8689 -0.1586
vn 0.1813 -0.8608 0.4755
vn -0.4528 -0.8715 0.1880
vn -0.1652 -0.8796 -0.4461
vn 0.4528 0.8715 -0.1880
vn -0.1813 0.8608 -0.4755
vn -0.4689 0.8689 0.1586
vn 0.1652 0.8796 0.4461
vn -0.8417 -0.4413 -0.3110
vn -0.8062 -0.4497 0.3844
vn -0.8855 0.2420 0.3967
vn -0.9210 0.2503 -0.2986
vn -0.3502 -0.3753 -0.8582
vn -0.4294 0.3164 -0.8459
vn 0.2615 0.3962 -0.8802
vn 0.3407 -0.2955 -0.8925
vn 0.8855 -0.2420 -0.3967
vn 0.8062 0.4497 -0.3844
vn 0.8417 0.4413 0.3110
vn 0.9210 -0.2503 0.2986
vn -0.2615 -0.3962 0.8802
vn 0.4294 -0.3164 0.8459
vn 0.3502 0.3753 0.8582
vn -0.3407 0.2955 0.8925
vn -0.2642 -0.9003 -0.3460
vn 0.4267 -0.8206 -0.3803
vn 0.4622 -0.8289 0.3151
vn -0.2287 -0.9086 0.3494
vn -0.4622 0.8289 -0.3151
vn -0.4267 0.8206 0.3803
vn 0.2642 0.9003 0.3460
vn 0.2287 0.9086 -0.3494
vn -0.5118 -0.3890 0.7660
vn 0.1730 -0.4439 0.8792
vn 0.2178 0.2479 0.9440
vn -0.4670 0.3029 0.8308
vn -0.9373 -0.3054 0.1681
vn -0.8924 0.3864 0.2328
vn -0.7748 0.4428 -0.4511
vn -0.8197 -0.2490 -0.5159
vn -0.2178 -0.2479 -0.9440
vn -0.1730 0.4439 -0.8792
vn 0.5118 0.3890 -0.7660
vn 0.4670 -0.3029 -0.8308
vn 0.7748 -0.4428 0.4511
vn 0.8924 -0.3864 -0.2328
vn 0.9373 0.3054 -0.1681
vn 0.8197 0.2490 0.5159
vn -0.4572 -0.8655 0.2044
vn -0.3396 -0.8091 -0.4796
vn 0.3452 -0.8641 -0.3663
vn 0.2276 -0.9205 0.3176
vn -0.3452 0.8641 0.3663
vn 0.3396 0.8091 0.4796
vn 0.4572 0.8655 -0.2044
vn -0.2276 0.9205 -0.3176
vn 0.8553 0.5167 0.0377
vn -0.1085 0.8383 -0.5343
vn -0.8531 -0.0588 -0.5184
vn -0.3495 -0.9348 0.0633
vn 0.7064 -0.5791 0.4070
vn 0.8553 0.5168 0.0378
vn -0.1085 0.8384 -0.5342
vn -0.8532 -0.0587 -0.5183
vn -0.3496 -0.9348 0.0635
vn 0.7063 -0.5791 0.4072
vn 0.8583 0.5118 0.0365
vn -0.1114 0.8455 -0.5222
vn -0.8562 -0.0818 -0.5101
vn -0.3638 -0.9235 0.1219
vn 0.6761 -0.5938 0.4362
vn 0.9574 0.1597 -0.2407
vn 0.1206 0.2551 -0.9594
vn -0.8667 -0.1195 -0.4843
vn -0.5786 -0.5921 0.5610
vn 0.5553 -0.3866 0.7363
vn 0.9689 0.1099 -0.2218
vn 0.0990 0.2598 -0.9606
vn -0.8518 -0.1876 -0.4891
vn -0.5696 -0.6159 0.5443
vn 0.5577 -0.4312 0.7092
vn 0.9661 0.1682 -0.1956
vn 0.0860 0.3210 -0.9432
vn -0.8744 -0.1341 -0.4663
vn -0.5878 -0.5680 0.5760
vn 0.5497 -0.3812 0.7433
vn 0.9478 0.2858 -0.1416
vn 0.0595 0.4400 -0.8960
vn -0.9097 -0.0193 -0.4148
vn -0.6205 -0.4572 0.6371
vn 0.5275 -0.2687 0.8059
vn 0.9102 0.4062 -0.0811
vn 0.0301 0.5590 -0.8286
vn -0.9303 0.1039 -0.3518
vn -0.6437 -0.3300 0.6905
vn 0.4938 -0.1432 0.8577
vn 0.7144 0.6936 0.0924
vn -0.0535 0.8269 -0.5598
vn -0.8914 0.4299 -0.1438
vn -0.6413 0.0513 0.7656
vn 0.3511 0.2143 0.9115
vn 0.3929 -0.3412 -0.8539
vn -0.2071 0.8816 0.4240
vn -0.4093 0.4785 -0.7769
vn -0.5095 0.7894 0.3424
vn -0.0641 -0.0675 0.9957
vn 0.3114 -0.9080 0.2801
vn 0.0981 -0.5706 -0.8154
vn -0.4091 0.4786 -0.7769
vn -0.5094 0.7895 0.3424
vn -0.0640 -0.0675 0.9957
vn 0.3116 -0.9080 0.2801
vn 0.0983 -0.5705 -0.8154
vn -0.4112 0.4734 -0.7790
vn -0.4983 0.7978 0.3394
vn -0.0529 -0.0895 0.9946
vn 0.3685 -0.8907 0.2661
vn 0.1392 -0.5811 -0.8019
vn -0.6651 0.0930 -0.7409
vn -0.9297 0.1595 0.3321
vn -0.0215 -0.1242 0.9920
vn 0.8205 -0.5107 0.2568
vn 0.4383 -0.3417 -0.8314
vn -0.6485 0.0447 -0.7599
vn -0.9214 0.1651 0.3519
vn -0.0255 -0.1930 0.9809
vn 0.8041 -0.5363 0.2564
vn 0.4178 -0.3888 -0.8212
vn -0.6301 0.1052 -0.7693
vn -0.9064 0.2282 0.3556
vn -0.0005 -0.1366 0.9906
vn 0.8355 -0.4850 0.2581
vn 0.4464 -0.3355 -0.8295
vn -0.5861 0.2280 -0.7775
vn -0.8649 0.3521 0.3578
vn 0.0493 -0.0161 0.9987
vn 0.8930 -0.3676 0.2594
vn 0.5003 -0.2168 -0.8383
vn -0.5279 0.3551 -0.7715
vn -0.8041 0.4780 0.3534
vn 0.1017 0.1132 0.9884
vn 0.9377 -0.2351 0.2559
vn 0.5486 -0.0856 -0.8317
vn -0.3150 0.6659 -0.6763
vn -0.5560 0.7732 0.3052
vn 0.2343 0.4549 0.8592
vn 0.9637 0.1510 0.2201
vn 0.6242 0.2814 -0.7288
vn -0.8989 -0.4362 0.0406
vn 0.3785 0.9256 -0.0082
vn -0.8094 0.5428 0.2242
vn 0.2831 0.7835 0.5531
vn 0.9524 -0.1299 0.2756
vn 0.2737 -0.9352 -0.2247
vn -0.8151 -0.5194 -0.2565
vn -0.8093 0.5429 0.2241
vn 0.2831 0.7836 0.5530
vn 0.9525 -0.1299 0.2755
vn 0.2738 -0.9351 -0.2249
vn -0.8151 -0.5194 -0.2566
vn -0.8122 0.5379 0.2258
vn 0.2832 0.7917 0.5413
vn 0.9522 -0.1522 0.2650
vn 0.2733 -0.9191 -0.2839
vn -0.7941 -0.5323 -0.2935
vn -0.8557 0.1655 0.4903
vn 0.1396 0.1715 0.9752
vn 0.9538 -0.1877 0.2345
vn 0.3865 -0.5561 -0.7358
vn -0.7428 -0.3027 -0.5972
vn -0.8741 0.1179 0.4712
vn 0.1610 0.1755 0.9712
vn 0.9372 -0.2555 0.2375
vn 0.3809 -0.5810 -0.7193
vn -0.7405 -0.3495 -0.5740
vn -0.8751 0.1782 0.4499
vn 0.1723 0.2376 0.9560
vn 0.9560 -0.2008 0.2139
vn 0.3928 -0.5311 -0.7507
vn -0.7389 -0.2969 -0.6049
vn -0.8650 0.2996 0.4024
vn 0.1921 0.3595 0.9132
vn 0.9829 -0.0829 0.1643
vn 0.4146 -0.4163 -0.8092
vn -0.7275 -0.1799 -0.6621
vn -0.8379 0.4238 0.3440
vn 0.2095 0.4831 0.8501
vn 0.9931 0.0448 0.1081
vn 0.4300 -0.2855 -0.8565
vn -0.7016 -0.0513 -0.7107
vn -0.6780 0.7197 0.1494
vn 0.2358 0.7715 0.5909
vn 0.9195 0.3890 -0.0564
vn 0.4282 0.1009 -0.8980
vn -0.5591 0.3052 -0.7708
vn -0.1807 -0.4047 0.8964
vn 0.1378 0.9096 -0.3919
s 0
usemtl cactus_green
f 1//1 2//1 7//1 6//1
f 2//2 3//2 8//2 7//2
f 3//3 4//3 9//3 8//3
f 4//4 5//4 10//4 9//4
f 5//5 1//5 6//5 10//5
f 6//6 7//6 12//6 11//6
f 7//7 8//7 13//7 12//7
f 8//8 9//8 14//8 13//8
f 9//9 10//9 15//9 14//9
f 10//10 6//10 11//10 15//10
f 11//11 12//11 17//11 16//11
f 12//12 13//12 18//12 17//12
f 13//13 14//13 19//13 18//13
f 14//14 15//14 20//14 19//14
f 15//15 11//15 16//15 20//15
f 16//16 17//16 22//16 21//16
f 17//17 18//17 23//17 22//17
f 18//18 19//18 24//18 23//18
f 19//19 20//19 25//19 24//19
f 20//20 16//20 21//20 25//20
f 21//21 22//21 27//21 26//21
f 22//22 23//22 28//22 27//22
f 23//23 24//23 29//23 28//23
f 24//24 25//24 30//24 29//24
f 25//25 21//25 26//25 30//25
f 26//26 27//26 32//26 31//26
f 27//27 28//27 33//27 32//27
f 28//28 29//28 34//28 33//28
f 29//29 30//29 35//29 34//29
f 30//30 26//30 31//30 35//30
f 31//31 32//31 37//31 36//31
f 32//32 33//32 38//32 37//32
f 33//33 34//33 39//33 38//33
f 34//34 35//34 40//34 39//34
f 35//35 31//35 36//35 40//35
f 36//36 37//36 42//36 41//36
f 37//37 38//37 43//37 42//37
f 38//38 39//38 44//38 43//38
f 39//39 40//39 45//39 44//39
f 40//40 36//40 41//40 45//40
f 41//41 42//41 47//41 46//41
f 42//42 43//42 48//42 47//42
f 43//43 44//43 49//43 48//43
f 44//44 45//44 50//44 49//44
f 45//45 41//45 46//45 50//45
f 5//46 4//46 3//46 2//46 1//46
f 46//47 47//47 48//47 49//47 50//47
f 129//120 130//120 135//120 134//120
f 130//121 131//121 136//121 135//121
f 131//122 132//122 137//122 136//122
f 132//123 133//123 138//123 137//123
f 133//124 129//124 134//124 138//124
f 134//125 135//125 140//125 139//125
f 135//126 136//126 141//126 140//126
f 136//127 137//127 142//127 141//127
f 137//128 138//128 143//128 142//128
f 138//129 134//129 139//129 143//129
f 139//130 140//130 145//130 144//130
f 140//131 141//131 146//131 145//131
f 141//132 142//132 147//132 146//132
f 142//133 143//133 148//133 147//133
f 143//134 139//134 144//134 148//134
f 144//135 145//135 150//135 149//135
f 145//136 146//136 151//136 150//136
f 146//137 147//137 152//137 151//137
f 147//138 148//138 153//138 152//138
f 148//139 144//139 149//139 153//139
f 149//140 150//140 155//140 154//140
f 150//141 151//141 156//141 155//141
f 151//142 152//142 157//142 156//142
f 152//143 153//143 158//143 157//143
f 153//144 149//144 154//144 158//144
f 154//145 155//145 160//145 159//145
f 155//146 156//146 161//146 160//146
f 156//147 157//147 162//147 161//147
f 157//148 158//148 163//148 162//148
f 158//149 154//149 159//149 163//149
f 159//150 160//150 165//150 164//150
f 160//151 161//151 166//151 165//151
f 161//152 162//152 167//152 166//152
f 162//153 163//153 168//153 167//153
f 163//154 159//154 164//154 168//154
f 164//155 165//155 170//155 169//155
f 165//156 166//156 171//156 170//156
f 166//157 167//157 172//157 171//157
f 167//158 168//158 173//158 172//158
f 168//159 164//159 169//159 173//159
f 169//160 170//160 175//160 174//160
f 170//161 171//161 176//161 175//161
f 171//162 172//162 177//162 176//162
f 172//163 173//163 178//163 177//163
f 173//164 169//164 174//164 178//164
f 133//165 132//165 131//165 130//165 129//165
f 174//166 175//166 176//166 177//166 178//166
f 179//167 180//167 185//167 184//167
f 180//168 181//168 186//168 185//168
f 181//169 182//169 187//169 186//169
f 182//170 183//170 188//170 187//170
f 183//171 179//171 184//171 188//171
f 184//172 185//172 190//172 189//172
f 185//173 186//173 191//173 190//173
f 186//174 187//174 192//174 191//174
f 187//175 188//175 193//175 192//175
f 188//176 184//176 189//176 193//176
f 189//177 190//177 195//177 194//177
f 190//178 191//178 196//178 195//178
f 191//179 192//179 197//179 196//179
f 192//180 193//180 198//180 197//180
f 193//181 189//181 194//181 198//181
f 194//182 195//182 200//182 199//182
f 195//183 196//183 201//183 200//183
f 196//184 197//184 202//184 201//184
f 197//185 198//185 203//185 202//185
f 198//186 194//186 199//186 203//186
f 199//187 200//187 205//187 204//187
f 200//188 201//188 206//188 205//188
f 201//189 202//189 207//189 206//189
f 202//190 203//190 208//190 207//190
f 203//191 199//191 204//191 208//191
f 204//192 205//192 210//192 209//192
f 205//193 206//193 211//193 210//193
f 206//194 207//194 212//194 211//194
f 207//195 208//195 213//195 212//195
f 208//196 204//196 209//196 213//196
f 209//197 210//197 215//197 214//197
f 210//198 211//198 216//198 215//198
f 211//199 212//199 217//199 216//199
f 212//200 213//200 218//200 217//200
f 213//201 209//201 214//201 218//201
f 214//202 215//202 220//202 219//202
f 215//203 216//203 221//203 220//203
f 216//204 217//204 222//204 221//204
f 217//205 218//205 223//205 222//205
f 218//206 214//206 219//206 223//206
f 219//207 220//207 225//207 224//207
f 220//208 221//208 226//208 225//208
f 221//209 222//209 227//209 226//209
f 222//210 223//210 228//210 227//210
f 223//211 219//211 224//211 228//211
f 183//212 182//212 181//212 180//212 179//212
f 224//213 225//213 226//213 227//213 228//213
f 229//214 230//214 235//214 234//214
f 230//215 231//215 236//215 235//215
f 231//216 232//216 237//216 236//216
f 232//217 233//217 238//217 237//217
f 233//218 229//218 234//218 238//218
f 234//219 235//219 240//219 239//219
f 235//220 236//220 241//220 240//220
f 236//221 237//221 242//221 241//221
f 237//222 238//222 243//222 242//222
f 238//223 234//223 239//223 243//223
f 239//224 240//224 245//224 244//224
f 240//225 241//225 246//225 245//225
f 241//226 242//226 247//226 246//226
f 242//227 243//227 248//227 247//227
f 243//228 239//228 244//228 248//228
f 244//229 245//229 250//229 249//229
f 245//230 246//230 251//230 250//230
f 246//231 247//231 252//231 251//231
f 247//232 248//232 253//232 252//232
f 248//233 244//233 249//233 253//233
f 249//234 250//234 255//234 254//234
f 250//235 251//235 256//235 255//235
f 251//236 252//236 257//236 256//236
f 252//237 253//237 258//237 257//237
f 253//238 249//238 254//238 258//238
f 254//239 255//239 260//239 259//239
f 255//240 256//240 261//240 260//240
f 256//241 257//241 262//241 261//241
f 257//242 258//242 263//242 262//242
f 258//243 254//243 259//243 263//243
f 259//244 260//244 265//244 264//244
f 260//245 261//245 266//245 265//245
f 261//246 262//246 267//246 266//246
f 262//247 263//247 268//247 267//247
f 263//248 259//248 264//248 268//248
f 264//249 265//249 270//249 269//249
f 265//250 266//250 271//250 270//250
f 266//251 267//251 272//251 271//251
f 267//252 268//252 273//252 272//252
f 268//253 264//253 269//253 273//253
f 269//254 270//254 275//254 274//254
f 270//255 271//255 276//255 275//255
f 271//256 272//256 277//256 276//256
f 272//257 273//257 278//257 277//257
f 273//258 269//258 274//258 278//258
f 233//259 232//259 231//259 230//259 229//259
f 274//260 275//260 276//260 277//260 278//260
usemtl cactus_flower
f 51//48 60//48 71//48 59//48
f 60//49 53//49 61//49 71//49
f 71//50 61//50 54//50 68//50
f 59//51 71//51 68//51 52//51
f 51//52 59//52 72//52 62//52
f 59//53 52//53 63//53 72//53
f 72//54 63//54 56//54 69//54
f 62//55 72//55 69//55 55//55
f 55//56 69//56 73//56 64//56
f 69//57 56//57 65//57 73//57
f 73//58 65//58 58//58 67//58
f 64//59 73//59 67//59 57//59
f 53//60 66//60 74//60 61//60
f 66//61 57//61 67//61 74//61
f 74//62 67//62 58//62 70//62
f 61//63 74//63 70//63 54//63
f 51//64 62//64 75//64 60//64
f 62//65 55//65 64//65 75//65
f 75//66 64//66 57//66 66//66
f 60//67 75//67 66//67 53//67
f 52//68 68//68 76//68 63//68
f 68//69 54//69 70//69 76//69
f 76//70 70//70 58//70 65//70
f 63//71 76//71 65//71 56//71
f 77//72 86//72 97//72 85//72
f 86//73 79//73 87//73 97//73
f 97//74 87//74 80//74 94//74
f 85//75 97//75 94//75 78//75
f 77//76 85//76 98//76 88//76
f 85//77 78//77 89//77 98//77
f 98//78 89//78 82//78 95//78
f 88//79 98//79 95//79 81//79
f 81//80 95//80 99//80 90//80
f 95//81 82//81 91//81 99//81
f 99//82 91//82 84//82 93//82
f 90//83 99//83 93//83 83//83
f 79//84 92//84 100//84 87//84
f 92//85 83//85 93//85 100//85
f 100//86 93//86 84//86 96//86
f 87//87 100//87 96//87 80//87
f 77//88 88//88 101//88 86//88
f 88//89 81//89 90//89 101//89
f 101//90 90//90 83//90 92//90
f 86//91 101//91 92//91 79//91
f 78//92 94//92 102//92 89//92
f 94//93 80//93 96//93 102//93
f 102//94 96//94 84//94 91//94
f 89//95 102//95 91//95 82//95
f 103//96 112//96 123//96 111//96
f 112//97 105//97 113//97 123//97
f 123//98 113//98 106//98 120//98
f 111//99 123//99 120//99 104//99
f 103//100 111//100 124//100 114//100
f 111//101 104//101 115//101 124//101
f 124//102 115//102 108//102 121//102
f 114//103 124//103 121//103 107//103
f 107//104 121//104 125//104 116//104
f 121//105 108//105 117//105 125//105
f 125//106 117//106 110//106 119//106
f 116//107 125//107 119//107 109//107
f 105//108 118//108 126//108 113//108
f 118//109 109//109 119//109 126//109
f 126//110 119//110 110//110 122//110
f 113//111 126//111 122//111 106//111
f 103//112 114//112 127//112 112//112
f 114//113 107//113 116//113 127//113
f 127//114 116//114 109//114 118//114
f 112//115 127//115 118//115 105//115
f 104//116 120//116 128//116 115//116
f 120//117 106//117 122//117 128//117
f 128//118 122//118 110//118 117//118
f 115//119 128//119 117//119 108//119
