# Blender 3.5.0
# www.blender.org
mtllib bush3.mtl
o main_birch.004
v -0.420074 2.691997 2.388465
v -0.654169 3.885554 2.273071
v -1.456934 2.392690 1.396085
v -1.691029 3.586248 1.280691
v -2.082979 2.538305 4.172256
v -2.317074 3.731862 4.056862
v -3.119838 2.238999 3.179875
v -3.353933 3.432556 3.064481
v -0.064663 3.368050 2.192272
v -0.606529 2.360367 1.600306
v -1.464424 2.963986 0.852558
v -1.029109 2.458657 3.474221
v -1.345138 4.069959 3.318439
v -2.851450 2.152884 4.008423
v -3.167479 3.764186 3.852641
v -2.428870 2.054594 2.134507
v -3.709344 2.756503 3.260675
v -0.922558 3.971669 1.444524
v -2.309584 3.160566 4.600389
v -2.744898 3.665896 1.978726
v -0.390390 3.200599 1.121062
v -0.953830 3.331652 3.619616
v -3.383618 2.923954 4.331885
v -2.820177 2.792901 1.833331
v -1.676318 1.988075 2.830328
v -2.097690 4.136477 2.622619
v -1.025459 3.922947 -1.256252
v -0.603311 4.670502 -1.040441
v -0.108250 3.499973 -1.585246
v 0.313898 4.247528 -1.369435
v -1.316644 4.557114 -2.883375
v -0.894496 5.304669 -2.667564
v -0.399436 4.134140 -3.212369
v 0.022712 4.881694 -2.996558
v -0.923939 4.259766 -0.806026
v -0.589773 3.469659 -1.173769
v 0.314293 3.688751 -1.250168
v -1.405439 4.183229 -2.050006
v -0.835539 5.192429 -1.758661
v -0.982873 4.325784 -3.370386
v -0.412974 5.334983 -3.079041
v -0.167207 3.612213 -2.494149
v -0.078808 4.544876 -3.446784
v -0.019873 4.478858 -0.882424
v -1.317039 5.115891 -3.002642
v 0.402692 4.621413 -2.202804
v -0.239306 3.831571 -0.661994
v -1.326861 4.782998 -1.830310
v -0.763440 4.973071 -3.590816
v 0.324114 4.021644 -2.422500
v -0.881306 3.729521 -2.320635
v -0.121440 5.075120 -1.932175
v -0.687413 5.111700 -0.398146
v -0.266573 5.438077 -0.333462
v -0.581035 5.100349 -1.032973
v -0.160195 5.426726 -0.968289
v -1.328811 5.963054 -0.520848
v -0.907971 6.289431 -0.456163
v -1.222433 5.951703 -1.155675
v -0.801593 6.278080 -1.090990
v -0.383365 5.127888 -0.233236
v -0.595627 4.899921 -0.705407
v -0.239755 5.112564 -1.090253
v -1.100376 5.482247 -0.359722
v -0.532242 5.922856 -0.272398
v -1.461514 6.049249 -0.871054
v -0.893380 6.489859 -0.783729
v -0.956765 5.466924 -1.216738
v -1.105642 6.261892 -1.255900
v -0.027493 5.340531 -0.618082
v -1.249252 6.277216 -0.398883
v -0.388631 5.907533 -1.129414
v -0.167245 4.928671 -0.634137
v -0.840244 5.705106 -0.173224
v -1.321761 6.461109 -0.854999
v -0.648763 5.684674 -1.315912
v -1.123259 5.401150 -0.802784
v -0.365747 5.988630 -0.686352
v 0.176670 5.670331 0.514405
v 0.053181 5.993328 0.415248
v -0.174731 5.484358 0.346240
v -0.298219 5.807355 0.247082
v -0.160420 5.735553 1.146663
v -0.283908 6.058549 1.047505
v -0.511820 5.549580 0.978497
v -0.635309 5.872576 0.879340
v 0.235411 5.852961 0.383611
v 0.081570 5.509407 0.337030
v -0.238979 5.601898 0.156587
v 0.091230 5.678963 0.877315
v -0.075479 6.115008 0.743453
v -0.373501 5.597456 1.190577
v -0.540209 6.033501 1.056715
v -0.383160 5.427900 0.650292
v -0.694050 5.689947 1.010134
v -0.085138 5.945452 0.203168
v -0.219660 5.941010 1.237158
v -0.549869 5.863945 0.516430
v 0.074061 5.712754 0.127841
v 0.086941 5.938829 0.848222
v -0.532700 5.830153 1.265904
v -0.545580 5.604078 0.545523
v -0.118180 5.480757 0.786114
v -0.340459 6.062150 0.607631
v -0.282843 0.000000 -0.282843
v -0.356398 -0.002140 0.181592
v 0.062576 -0.001322 0.395073
v 0.395073 0.001322 0.062576
v 0.181592 0.002140 -0.356398
v -0.247945 1.200000 -0.238399
v -0.310738 1.179608 0.160449
v 0.049303 1.187397 0.344158
v 0.334613 1.212603 0.058848
v 0.150903 1.220392 -0.301192
v -0.309580 2.400000 -0.096859
v -0.362428 2.398416 0.236832
v -0.061400 2.399021 0.390215
v 0.177495 2.400980 0.151321
v 0.024111 2.401585 -0.149707
v -0.178058 3.600000 -0.148580
v -0.217537 3.642933 0.116600
v 0.023244 3.626534 0.241011
v 0.211534 3.573467 0.052721
v 0.087123 3.557068 -0.188059
v 0.112685 4.800000 -0.356627
v 0.080968 4.801318 -0.156350
v 0.261643 4.800815 -0.064289
v 0.405023 4.799186 -0.207670
v 0.312963 4.798683 -0.388345
v -0.080812 6.000000 -0.080812
v -0.099049 5.971029 0.049104
v 0.019597 5.982095 0.111160
v 0.111160 6.017905 0.019597
v 0.049104 6.028971 -0.099049
v -0.208372 2.426575 0.031905
v -0.175418 2.291766 0.093215
v -0.047028 2.306533 0.172691
v -0.000634 2.450468 0.160500
v -0.100350 2.524658 0.073490
v -0.619777 2.615992 0.702338
v -0.593729 2.505322 0.754714
v -0.486249 2.516750 0.817858
v -0.445872 2.634483 0.804508
v -0.528396 2.695818 0.733113
v -0.995577 2.849504 1.380439
v -0.976993 2.763470 1.424961
v -0.890342 2.771292 1.471435
v -0.855373 2.862159 1.455635
v -0.920412 2.910497 1.399397
v -1.341670 3.129293 2.053857
v -1.323497 3.064441 2.079257
v -1.265045 3.072295 2.120522
v -1.247092 3.142000 2.120625
v -1.294449 3.177227 2.079424
v -1.913758 3.069530 2.702157
v -1.898853 3.030204 2.712664
v -1.867572 3.035201 2.742255
v -1.863145 3.077615 2.750036
v -1.891690 3.098831 2.725255
v 0.010821 3.517834 -0.021859
v -0.090048 3.544608 0.012673
v -0.086842 3.647932 0.050060
v 0.016008 3.685016 0.038634
v 0.076367 3.604610 -0.005814
v -0.124272 3.729845 -0.549808
v -0.205751 3.750004 -0.516167
v -0.203686 3.835711 -0.487412
v -0.120930 3.868523 -0.503281
v -0.071850 3.803094 -0.541844
v -0.346780 3.911215 -1.069372
v -0.411610 3.928448 -1.047264
v -0.409543 3.994824 -1.023212
v -0.343435 4.018614 -1.030454
v -0.304646 3.966941 -1.058983
v -0.393307 4.154688 -1.605661
v -0.440822 4.168726 -1.593881
v -0.439037 4.215971 -1.574949
v -0.390419 4.231130 -1.575029
v -0.362156 4.193255 -1.594010
v -0.494071 4.378845 -2.136862
v -0.523198 4.387048 -2.128452
v -0.522165 4.416358 -2.117213
v -0.492398 4.426269 -2.118677
v -0.475035 4.403085 -2.130821
v 0.194020 4.764452 -0.217434
v 0.218814 4.815466 -0.182489
v 0.265502 4.845106 -0.219637
v 0.269562 4.812412 -0.277541
v 0.225384 4.762565 -0.276180
v -0.044508 4.984616 -0.358458
v -0.025380 5.027833 -0.330391
v 0.012992 5.052413 -0.361126
v 0.017580 5.024389 -0.408188
v -0.017957 4.982487 -0.406539
v -0.288434 5.186625 -0.515846
v -0.275364 5.222253 -0.494970
v -0.245135 5.241629 -0.519193
v -0.239522 5.217975 -0.555040
v -0.266282 5.183981 -0.552971
v -0.535771 5.375148 -0.692960
v -0.521829 5.397324 -0.675272
v -0.499709 5.411410 -0.692915
v -0.499980 5.397940 -0.721507
v -0.522267 5.375528 -0.721534
v -0.757233 5.685946 -0.740080
v -0.746023 5.696062 -0.728491
v -0.732713 5.704558 -0.739119
v -0.735697 5.699693 -0.757278
v -0.750851 5.688190 -0.757872
v 0.079953 5.410364 -0.129413
v 0.099174 5.377899 -0.105494
v 0.140518 5.391140 -0.094964
v 0.146850 5.431789 -0.112375
v 0.109418 5.443670 -0.133666
v 0.003486 5.509164 0.073423
v 0.019126 5.482656 0.093700
v 0.053535 5.493205 0.101653
v 0.059160 5.526233 0.086292
v 0.028229 5.536097 0.068845
v -0.064182 5.621781 0.272353
v -0.052224 5.601444 0.289292
v -0.024741 5.609200 0.294588
v -0.019714 5.634329 0.280923
v -0.044090 5.642105 0.267181
v -0.125687 5.747714 0.464301
v -0.116075 5.731816 0.474501
v -0.096938 5.738572 0.480607
v -0.094721 5.758646 0.474180
v -0.112489 5.764296 0.464103
v -0.238911 5.770989 0.691807
v -0.232332 5.761036 0.696341
v -0.221590 5.765480 0.701610
v -0.221530 5.778179 0.700332
v -0.232235 5.781584 0.694273
vn 0.9041 -0.4035 -0.1407
vn 0.2510 -0.5920 -0.7658
vn 0.0386 0.4906 -0.8705
vn 0.6918 0.6792 -0.2454
vn 0.8481 -0.2200 0.4820
vn 0.6860 0.6064 0.4021
vn 0.3982 0.5798 0.7109
vn 0.5603 -0.2466 0.7907
vn -0.0386 -0.4906 0.8705
vn -0.2510 0.5920 0.7658
vn -0.9041 0.4035 0.1407
vn -0.6918 -0.6792 0.2454
vn -0.3982 -0.5798 -0.7109
vn -0.6860 -0.6064 -0.4021
vn -0.8481 0.2200 -0.4820
vn -0.5603 0.2466 -0.7907
vn 0.5252 -0.8354 0.1622
vn 0.2714 -0.8588 0.4344
vn -0.1680 -0.9857 0.0138
vn 0.0857 -0.9622 -0.2583
vn 0.1680 0.9857 -0.0138
vn -0.2714 0.8588 -0.4344
vn -0.5252 0.8354 -0.1622
vn -0.0857 0.9622 0.2583
vn -0.5490 -0.5322 0.6445
vn 0.2484 -0.8999 0.3585
vn 0.7769 0.0360 0.6286
vn -0.0205 0.4037 0.9147
vn -0.9277 -0.0821 0.3641
vn -0.5243 0.6323 0.5704
vn -0.5939 0.7838 0.1817
vn -0.9973 0.0694 -0.0246
vn -0.7769 -0.0360 -0.6286
vn -0.2484 0.8999 -0.3585
vn 0.5490 0.5322 -0.6445
vn 0.0205 -0.4037 -0.9147
vn 0.5939 -0.7838 -0.1817
vn 0.5243 -0.6323 -0.5704
vn 0.9277 0.0821 -0.3641
vn 0.9973 -0.0694 0.0246
vn -0.6821 -0.7302 0.0403
vn -0.7434 -0.5966 -0.3023
vn -0.2069 -0.8440 -0.4948
vn -0.1456 -0.9776 -0.1521
vn 0.2069 0.8440 0.4948
vn 0.7434 0.5966 0.3023
vn 0.6821 0.7302 -0.0403
vn 0.1456 0.9776 0.1521
vn -0.0969 -0.8785 0.4677
vn 0.0557 -0.8948 -0.4429
vn 0.9250 -0.2206 -0.3093
vn 0.7724 -0.2043 0.6014
vn -0.3510 -0.4096 0.8421
vn 0.3126 0.1050 0.9441
vn 0.0598 0.4406 0.8957
vn -0.6038 -0.0740 0.7937
vn -0.9250 0.2206 0.3093
vn -0.0557 0.8948 0.4429
vn 0.0969 0.8785 -0.4677
vn -0.7724 0.2043 -0.6014
vn -0.0598 -0.4406 -0.8957
vn -0.3126 -0.1050 -0.9441
vn 0.3510 0.4096 -0.8421
vn 0.6038 0.0740 -0.7937
vn -0.6710 -0.7095 0.2153
vn -0.8939 -0.4136 0.1727
vn -0.7912 -0.4246 -0.4401
vn -0.5684 -0.7204 -0.3974
vn 0.7912 0.4246 0.4401
vn 0.8939 0.4136 -0.1727
vn 0.6710 0.7095 -0.2153
vn 0.5684 0.7204 0.3974
vn 0.8906 -0.3614 -0.2761
vn 0.1388 -0.7592 -0.6358
vn -0.2416 0.2358 -0.9413
vn 0.5102 0.6337 -0.5815
vn 0.9615 -0.0193 0.2740
vn 0.6712 0.7402 0.0408
vn 0.4730 0.7785 0.4125
vn 0.7634 0.0190 0.6457
vn 0.2416 -0.2358 0.9413
vn -0.1388 0.7592 0.6358
vn -0.8906 0.3614 0.2761
vn -0.5102 -0.6337 0.5815
vn -0.4730 -0.7785 -0.4125
vn -0.6712 -0.7402 -0.0408
vn -0.9615 0.0193 -0.2740
vn -0.7634 -0.0190 -0.6457
vn 0.6602 -0.7199 0.2141
vn 0.4855 -0.6861 0.5418
vn -0.0203 -0.9538 0.2997
vn 0.1544 -0.9876 -0.0279
vn 0.0203 0.9538 -0.2997
vn -0.4855 0.6861 -0.5418
vn -0.6602 0.7199 -0.2141
vn -0.1544 0.9876 0.0279
vn -0.9873 0.0349 -0.1550
vn -0.4543 0.0333 0.8902
vn 0.7057 0.0378 0.7075
vn 0.8903 0.0430 -0.4534
vn -0.1569 0.0409 -0.9868
vn -0.9871 -0.0321 -0.1568
vn -0.4522 -0.0750 0.8887
vn 0.7056 0.0379 0.7076
vn 0.8813 0.1517 -0.4475
vn -0.1582 0.1083 -0.9815
vn -0.9823 0.0999 -0.1583
vn -0.4487 0.1379 0.8830
vn 0.7089 0.0377 0.7043
vn 0.8888 -0.0638 -0.4538
vn -0.1540 -0.0251 -0.9878
vn -0.9640 0.2068 -0.1671
vn -0.4247 0.3087 0.8510
vn 0.7097 0.0381 0.7034
vn 0.8695 -0.2294 -0.4374
vn -0.1619 -0.1293 -0.9783
vn -0.9798 -0.1222 -0.1585
vn -0.4404 -0.2201 0.8704
vn 0.7038 0.0381 0.7094
vn 0.8561 0.2858 -0.4307
vn -0.1626 0.1943 -0.9674
vn 0.0040 -1.0000 -0.0040
vn -0.1885 0.9638 0.1885
vn -0.8310 -0.3855 -0.4010
vn -0.0585 -0.9602 0.2730
vn 0.7783 -0.2000 0.5951
vn 0.5229 0.8438 0.1204
vn -0.4713 0.7297 -0.4953
vn -0.8612 -0.3681 -0.3506
vn -0.0846 -0.9451 0.3157
vn 0.7940 -0.2069 0.5716
vn 0.5596 0.8263 0.0630
vn -0.4633 0.7269 -0.5069
vn -0.8832 -0.3564 -0.3048
vn -0.1187 -0.9248 0.3615
vn 0.8015 -0.2094 0.5601
vn 0.5915 0.8062 0.0091
vn -0.4484 0.7202 -0.5294
vn -0.6593 -0.4235 -0.6213
vn 0.1073 -0.9932 0.0442
vn 0.7110 -0.1895 0.6771
vn 0.3072 0.8683 0.3895
vn -0.5375 0.7386 -0.4069
vn 0.5308 -0.2399 -0.8128
vn -0.6805 -0.0629 0.7300
vn -0.3351 -0.9008 -0.2763
vn -0.9793 -0.0420 0.1981
vn -0.2792 0.8859 0.3704
vn 0.8001 0.5999 0.0009
vn 0.7658 -0.5047 -0.3986
vn -0.3110 -0.9308 -0.1920
vn -0.9384 -0.0903 0.3336
vn -0.2794 0.8859 0.3703
vn 0.7537 0.6431 -0.1353
vn 0.7381 -0.4726 -0.4815
vn -0.3497 -0.8643 -0.3616
vn -0.9982 0.0118 0.0583
vn -0.2774 0.8866 0.3701
vn 0.8269 0.5443 0.1412
vn 0.7842 -0.5367 -0.3115
vn -0.3394 -0.8880 -0.3103
vn -0.9893 -0.0204 0.1441
vn -0.2764 0.8869 0.3702
vn 0.8132 0.5794 0.0555
vn 0.7748 -0.5163 -0.3648
vn 0.2234 -0.3378 0.9143
vn -0.1645 0.3582 -0.9190
vn -0.6316 -0.2055 0.7476
vn 0.1479 0.6741 0.7237
vn 0.7012 0.6407 -0.3128
vn 0.2634 -0.2594 -0.9292
vn -0.5598 -0.7820 -0.2741
vn -0.6418 -0.1978 0.7409
vn 0.0984 0.7136 0.6936
vn 0.6804 0.6565 -0.3255
vn 0.3000 -0.2907 -0.9086
vn -0.5170 -0.8187 -0.2497
vn -0.6598 -0.1786 0.7299
vn 0.0491 0.7493 0.6604
vn 0.6694 0.6664 -0.3284
vn 0.3382 -0.3260 -0.8828
vn -0.4801 -0.8462 -0.2314
vn -0.5559 -0.2775 0.7836
vn 0.3792 0.4305 0.8191
vn 0.7728 0.5707 -0.2776
vn 0.0726 -0.0619 -0.9954
vn -0.7371 -0.5788 -0.3489
vn 0.6943 -0.6047 0.3901
vn -0.5978 0.7935 -0.1144
vn -0.8410 -0.5383 -0.0549
vn 0.1439 -0.8508 0.5053
vn 0.9190 0.0258 0.3933
vn 0.4133 0.8795 -0.2357
vn -0.6741 0.5315 -0.5129
vn -0.8602 -0.5100 -0.0040
vn 0.1270 -0.8265 0.5484
vn 0.9294 0.0139 0.3688
vn 0.4372 0.8497 -0.2947
vn -0.6688 0.5262 -0.5252
vn -0.8720 -0.4878 0.0417
vn 0.1025 -0.7970 0.5952
vn 0.9342 0.0088 0.3567
vn 0.4576 0.8180 -0.3486
vn -0.6590 0.5146 -0.5485
vn -0.7239 -0.6227 -0.2970
vn 0.2525 -0.9332 0.2556
vn 0.8727 0.0534 0.4852
vn 0.2677 0.9612 0.0671
vn -0.7176 0.5594 -0.4149
vn 0.3470 -0.4144 -0.8413
vn -0.4685 0.0907 0.8788
s 0
g main_birch.004_leaf
usemtl leaf
f 1//1 10//1 21//1 9//1
f 10//2 3//2 11//2 21//2
f 21//3 11//3 4//3 18//3
f 9//4 21//4 18//4 2//4
f 1//5 9//5 22//5 12//5
f 9//6 2//6 13//6 22//6
f 22//7 13//7 6//7 19//7
f 12//8 22//8 19//8 5//8
f 5//9 19//9 23//9 14//9
f 19//10 6//10 15//10 23//10
f 23//11 15//11 8//11 17//11
f 14//12 23//12 17//12 7//12
f 3//13 16//13 24//13 11//13
f 16//14 7//14 17//14 24//14
f 24//15 17//15 8//15 20//15
f 11//16 24//16 20//16 4//16
f 1//17 12//17 25//17 10//17
f 12//18 5//18 14//18 25//18
f 25//19 14//19 7//19 16//19
f 10//20 25//20 16//20 3//20
f 2//21 18//21 26//21 13//21
f 18//22 4//22 20//22 26//22
f 26//23 20//23 8//23 15//23
f 13//24 26//24 15//24 6//24
f 27//25 36//25 47//25 35//25
f 36//26 29//26 37//26 47//26
f 47//27 37//27 30//27 44//27
f 35//28 47//28 44//28 28//28
f 27//29 35//29 48//29 38//29
f 35//30 28//30 39//30 48//30
f 48//31 39//31 32//31 45//31
f 38//32 48//32 45//32 31//32
f 31//33 45//33 49//33 40//33
f 45//34 32//34 41//34 49//34
f 49//35 41//35 34//35 43//35
f 40//36 49//36 43//36 33//36
f 29//37 42//37 50//37 37//37
f 42//38 33//38 43//38 50//38
f 50//39 43//39 34//39 46//39
f 37//40 50//40 46//40 30//40
f 27//41 38//41 51//41 36//41
f 38//42 31//42 40//42 51//42
f 51//43 40//43 33//43 42//43
f 36//44 51//44 42//44 29//44
f 28//45 44//45 52//45 39//45
f 44//46 30//46 46//46 52//46
f 52//47 46//47 34//47 41//47
f 39//48 52//48 41//48 32//48
f 53//49 62//49 73//49 61//49
f 62//50 55//50 63//50 73//50
f 73//51 63//51 56//51 70//51
f 61//52 73//52 70//52 54//52
f 53//53 61//53 74//53 64//53
f 61//54 54//54 65//54 74//54
f 74//55 65//55 58//55 71//55
f 64//56 74//56 71//56 57//56
f 57//57 71//57 75//57 66//57
f 71//58 58//58 67//58 75//58
f 75//59 67//59 60//59 69//59
f 66//60 75//60 69//60 59//60
f 55//61 68//61 76//61 63//61
f 68//62 59//62 69//62 76//62
f 76//63 69//63 60//63 72//63
f 63//64 76//64 72//64 56//64
f 53//65 64//65 77//65 62//65
f 64//66 57//66 66//66 77//66
f 77//67 66//67 59//67 68//67
f 62//68 77//68 68//68 55//68
f 54//69 70//69 78//69 65//69
f 70//70 56//70 72//70 78//70
f 78//71 72//71 60//71 67//71
f 65//72 78//72 67//72 58//72
f 79//73 88//73 99//73 87//73
f 88//74 81//74 89//74 99//74
f 99//75 89//75 82//75 96//75
f 87//76 99//76 96//76 80//76
f 79//77 87//77 100//77 90//77
f 87//78 80//78 91//78 100//78
f 100//79 91//79 84//79 97//79
f 90//80 100//80 97//80 83//80
f 83//81 97//81 101//81 92//81
f 97//82 84//82 93//82 101//82
f 101//83 93//83 86//83 95//83
f 92//84 101//84 95//84 85//84
f 81//85 94//85 102//85 89//85
f 94//86 85//86 95//86 102//86
f 102//87 95//87 86//87 98//87
f 89//88 102//88 98//88 82//88
f 79//89 90//89 103//89 88//89
f 90//90 83//90 92//90 103//90
f 103//91 92//91 85//91 94//91
f 88//92 103//92 94//92 81//92
f 80//93 96//93 104//93 91//93
f 96//94 82//94 98//94 104//94
f 104//95 98//95 86//95 93//95
f 91//96 104//96 93//96 84//96
g main_birch.004_wood
usemtl wood
f 105//97 106//97 111//97 110//97
f 106//98 107//98 112//98 111//98
f 107//99 108//99 113//99 112//99
f 108//100 109//100 114//100 113//100
f 109//101 105//101 110//101 114//101
f 110//102 111//102 116//102 115//102
f 111//103 112//103 117//103 116//103
f 112//104 113//104 118//104 117//104
f 113//105 114//105 119//105 118//105
f 114//106 110//106 115//106 119//106
f 115//107 116//107 121//107 120//107
f 116//108 117//108 122//108 121//108
f 117//109 118//109 123//109 122//109
f 118//110 119//110 124//110 123//110
f 119//111 115//111 120//111 124//111
f 120//112 121//112 126//112 125//112
f 121//113 122//113 127//113 126//113
f 122//114 123//114 128//114 127//114
f 123//115 124//115 129//115 128//115
f 124//116 120//116 125//116 129//116
f 125//117 126//117 131//117 130//117
f 126//118 127//118 132//118 131//118
f 127//119 128//119 133//119 132//119
f 128//120 129//120 134//120 133//120
f 129//121 125//121 130//121 134//121
f 109//122 108//122 107//122 106//122 105//122
f 130//123 131//123 132//123 133//123 134//123
f 135//124 136//124 141//124 140//124
f 136//125 137//125 142//125 141//125
f 137//126 138//126 143//126 142//126
f 138//127 139//127 144//127 143//127
f 139//128 135//128 140//128 144//128
f 140//129 141//129 146//129 145//129
f 141//130 142//130 147//130 146//130
f 142//131 143//131 148//131 147//131
f 143//132 144//132 149//132 148//132
f 144//133 140//133 145//133 149//133
f 145//134 146//134 151//134 150//134
f 146//135 147//135 152//135 151//135
f 147//136 148//136 153//136 152//136
f 148//137 149//137 154//137 153//137
f 149//138 145//138 150//138 154//138
f 150//139 151//139 156//139 155//139
f 151//140 152//140 157//140 156//140
f 152//141 153//141 158//141 157//141
f 153//142 154//142 159//142 158//142
f 154//143 150//143 155//143 159//143
f 139//144 138//144 137//144 136//144 135//144
f 155//145 156//145 157//145 158//145 159//145
f 160//146 161//146 166//146 165//146
f 161//147 162//147 167//147 166//147
f 162//148 163//148 168//148 167//148
f 163//149 164//149 169//149 168//149
f 164//150 160//150 165//150 169//150
f 165//151 166//151 171//151 170//151
f 166//152 167//152 172//152 171//152
f 167//153 168//153 173//153 172//153
f 168//154 169//154 174//154 173//154
f 169//155 165//155 170//155 174//155
f 170//156 171//156 176//156 175//156
f 171//157 172//157 177//157 176//157
f 172//158 173//158 178//158 177//158
f 173//159 174//159 179//159 178//159
f 174//160 170//160 175//160 179//160
f 175//161 176//161 181//161 180//161
f 176//162 177//162 182//162 181//162
f 177//163 178//163 183//163 182//163
f 178//164 179//164 184//164 183//164
f 179//165 175//165 180//165 184//165
f 164//166 163//166 162//166 161//166 160//166
f 180//167 181//167 182//167 183//167 184//167
f 185//168 186//168 191//168 190//168
f 186//169 187//169 192//169 191//169
f 187//170 188//170 193//170 192//170
f 188//171 189//171 194//171 193//171
f 189//172 185//172 190//172 194//172
f 190//173 191//173 196//173 195//173
f 191//174 192//174 197//174 196//174
f 192//175 193//175 198//175 197//175
f 193//176 194//176 199//176 198//176
f 194//177 190//177 195//177 199//177
f 195//178 196//178 201//178 200//178
f 196//179 197//179 202//179 201//179
f 197//180 198//180 203//180 202//180
f 198//181 199//181 204//181 203//181
f 199//182 195//182 200//182 204//182
f 200//183 201//183 206//183 205//183
f 201//184 202//184 207//184 206//184
f 202//185 203//185 208//185 207//185
f 203//186 204//186 209//186 208//186
f 204//187 200//187 205//187 209//187
f 189//188 188//188 187//188 186//188 185//188
f 205//189 206//189 207//189 208//189 209//189
f 210//190 211//190 216//190 215//190
f 211//191 212//191 217//191 216//191
f 212//192 213//192 218//192 217//192
f 213//193 214//193 219//193 218//193
f 214//194 210//194 215//194 219//194
f 215//195 216//195 221//195 220//195
f 216//196 217//196 222//196 221//196
f 217//197 218//197 223//197 222//197
f 218//198 219//198 224//198 223//198
f 219//199 215//199 220//199 224//199
f 220//200 221//200 226//200 225//200
f 221//201 222//201 227//201 226//201
f 222//202 223//202 228//202 227//202
f 223//203 224//203 229//203 228//203
f 224//204 220//204 225//204 229//204
f 225//205 226//205 231//205 230//205
f 226//206 227//206 232//206 231//206
f 227//207 228//207 233//207 232//207
f 228//208 229//208 234//208 233//208
f 229//209 225//209 230//209 234//209
f 214//210 213//210 212//210 211//210 210//210
f 230//211 231//211 232//211 233//211 234//211
