# Blender 3.5.0
# www.blender.org
mtllib palm_tree2.mtl
o main_palm.003
v 0.517220 -0.669055 0.121855
v 0.325540 -0.774655 -0.154702
v 0.001788 -0.853500 -0.039181
v -0.006621 -0.796628 0.308773
v 0.311933 -0.682634 0.408299
v 0.402148 0.120735 -0.010015
v 0.133795 -0.027105 -0.397195
v -0.319458 -0.137487 -0.235465
v -0.331231 -0.057866 0.251670
v 0.114746 0.101724 0.391006
v 0.304194 -0.002073 0.010768
v 0.122785 -0.104622 -0.251576
v -0.184266 -0.181188 -0.141544
v -0.192625 -0.125959 0.188805
v 0.109260 -0.015261 0.282938
v 0.178043 0.784650 -0.123951
v -0.075930 0.641081 -0.491233
v -0.505801 0.533889 -0.337187
v -0.517503 0.611209 0.125301
v -0.094864 0.766188 0.257087
v 0.076182 0.656037 -0.108726
v -0.095886 0.559553 -0.357378
v -0.386931 0.487516 -0.253224
v -0.394738 0.539478 0.059799
v -0.108518 0.643630 0.149103
v -0.054019 1.441439 -0.242351
v -0.294915 1.306361 -0.590464
v -0.702377 1.205509 -0.444648
v -0.713307 1.278256 -0.006416
v -0.312600 1.424069 0.118610
v -0.159925 1.303558 -0.232762
v -0.325129 1.221656 -0.469113
v -0.602017 1.160506 -0.371873
v -0.607939 1.204615 -0.075426
v -0.334711 1.293026 0.010550
v -0.271354 2.093274 -0.352491
v -0.502640 1.978612 -0.683381
v -0.890284 1.893003 -0.547246
v -0.898574 1.954755 -0.132220
v -0.516055 2.078530 -0.011854
v -0.375841 1.957719 -0.345472
v -0.534431 1.892990 -0.569662
v -0.797350 1.844661 -0.479441
v -0.801253 1.879521 -0.199493
v -0.540745 1.949395 -0.116695
v -0.458413 2.752932 -0.445647
v -0.680440 2.662310 -0.759512
v -1.048526 2.594650 -0.633204
v -1.053990 2.643455 -0.241276
v -0.689280 2.741278 -0.125359
v -0.559972 2.625770 -0.440351
v -0.710813 2.575535 -0.651742
v -0.958915 2.538028 -0.568066
v -0.961409 2.565082 -0.304960
v -0.714848 2.619310 -0.226028
v -0.617350 3.424502 -0.523027
v -0.828527 3.354172 -0.818974
v -1.175870 3.301663 -0.701828
v -1.179361 3.339539 -0.333479
v -0.834177 3.415458 -0.222974
v -0.716728 3.304303 -0.519873
v -0.858947 3.265900 -0.717976
v -1.091580 3.237227 -0.640479
v -1.093135 3.257910 -0.394479
v -0.861464 3.299365 -0.319941
v -0.753144 4.105032 -0.587424
v -0.952251 4.051268 -0.864769
v -1.277936 4.011126 -0.756272
v -1.280115 4.040082 -0.411873
v -0.955775 4.098118 -0.307519
v -0.845271 3.992081 -0.583568
v -0.978161 3.962415 -0.767987
v -1.194798 3.940265 -0.696372
v -1.195795 3.956242 -0.467693
v -0.979776 3.988266 -0.397976
v -0.867267 4.793613 -0.639664
v -1.053314 4.752080 -0.897850
v -1.356604 4.721071 -0.797590
v -1.358001 4.743439 -0.477439
v -1.055574 4.788272 -0.379835
v -0.948205 4.688311 -0.632896
v -1.071103 4.662828 -0.803258
v -1.271246 4.643803 -0.737249
v -1.272043 4.657526 -0.526091
v -1.072392 4.685034 -0.461598
v -0.969176 5.489575 -0.685051
v -1.141234 5.453900 -0.923557
v -1.421434 5.427264 -0.831144
v -1.422549 5.446477 -0.535524
v -1.143039 5.484987 -0.445234
v -1.039121 5.389486 -0.675483
v -1.151587 5.364546 -0.831540
v -1.334908 5.345926 -0.770952
v -1.335741 5.359357 -0.577450
v -1.152935 5.386279 -0.518447
v -1.072376 6.189579 -0.731162
v -1.229828 6.154664 -0.949642
v -1.486477 6.128595 -0.864819
v -1.487644 6.147399 -0.593916
v -1.231715 6.185090 -0.511311
v -1.140731 6.088639 -0.724068
v -1.242800 6.064633 -0.865842
v -1.409328 6.046710 -0.810690
v -1.410177 6.059638 -0.634831
v -1.244175 6.085552 -0.581296
v -1.185804 6.887446 -0.783012
v -1.328701 6.853838 -0.981495
v -1.561839 6.828745 -0.904283
v -1.563029 6.846846 -0.658080
v -1.330626 6.883125 -0.583131
v -1.468299 6.795830 -0.919174
v -0.790101 6.235288 -0.921110
v -1.328207 6.278570 -0.505264
v -1.004689 6.213683 -0.471603
v -1.275617 6.336073 -1.074033
v -0.908831 6.902248 -0.433943
v -0.703646 6.838804 -0.639660
v -0.914159 6.487677 -1.127668
v -0.752514 6.318771 -0.524112
v -1.444714 6.796996 -0.584388
v -0.772896 6.853944 -1.063820
v -1.120437 6.555210 -0.718953
v -1.839419 6.447751 -1.228935
v -1.512315 6.590722 -1.299337
v -1.113798 5.965183 -0.992463
v -1.426756 5.965468 -0.654836
v -1.519370 6.664255 -0.756433
v -1.431176 5.975036 -1.304775
v -1.158678 6.537493 -1.232243
v -1.876039 6.455599 -0.715280
v -1.732158 5.883665 -0.989458
v -1.897393 6.523996 -0.499218
v -1.654050 5.939198 -0.455050
v -1.115474 6.627076 -0.503019
v -1.198521 5.999251 -0.457264
v -1.526279 6.732713 -0.321015
v -1.446555 6.107639 -0.872223
v -1.447224 6.139954 -0.133460
v -5.223217 6.682478 -0.749850
v -5.367430 6.891966 0.755632
v -2.420458 7.197321 -1.729061
v -1.107347 6.748468 -0.837665
v -2.766052 7.889690 0.253832
v -1.706701 7.681535 -0.095856
v -3.214603 7.457969 -1.578623
v -0.638626 6.879081 -0.728290
v -2.972538 5.905186 3.530067
v -2.014648 6.375154 2.660997
v -1.003541 7.075695 0.921964
v -1.686624 6.366085 3.791490
v -2.309384 6.544437 -0.755271
v -0.944239 7.463739 0.920447
v -2.997660 6.600490 1.246311
v -1.983450 5.477763 3.692772
v 0.706578 7.841781 0.388444
v -0.574626 7.491132 1.472124
v -1.056028 6.869173 -1.079297
v 2.214247 7.075043 2.095804
v 2.125659 6.554259 2.955478
v -1.761652 6.906022 0.042585
v -0.244709 7.566000 -0.687913
v 0.647921 7.216594 2.285767
v 0.759778 7.556458 0.823111
v 2.408071 7.401929 -1.032953
v 2.576850 6.901164 -2.465400
v -0.483484 7.740463 -0.255985
v -1.634261 6.670130 -0.756405
v -0.193908 7.469824 -2.347294
v -1.203730 7.242369 -1.882152
v 0.246969 8.053443 -0.555510
v -2.137439 6.663507 -0.806405
v 0.484970 6.626103 -5.007690
v -0.595985 6.720291 -4.161304
v -1.826765 6.999221 -2.445288
v -0.874707 6.614290 -5.300063
v -0.455835 6.931109 -0.737515
v -2.017568 7.342276 -2.443006
v 0.214748 7.252838 -2.719939
v -0.289288 5.883525 -5.198899
v -3.663783 7.049548 -2.036634
v -2.315316 6.905764 -3.085330
v -1.731230 6.816692 -0.481633
v -4.874002 5.661953 -3.581297
v -4.631082 5.065230 -4.357837
v -1.041140 6.879741 -1.611979
v -2.693814 7.202327 -0.952492
v -3.401743 6.194107 -3.823725
v -3.629269 6.700300 -2.423945
vn -0.2875 0.9441 -0.1613
vn -0.8175 -0.0230 0.5754
vn 0.2366 0.3542 0.9048
vn 0.9159 0.3991 -0.0431
vn 0.2816 0.0497 -0.9582
vn -0.7897 -0.2112 -0.5760
vn 0.2875 -0.9441 0.1613
vn -0.2939 0.9415 -0.1648
vn -0.8162 -0.0321 0.5769
vn 0.2361 0.3538 0.9050
vn 0.9156 0.3997 -0.0437
vn 0.2832 0.0423 -0.9581
vn -0.7870 -0.2246 -0.5746
vn 0.2939 -0.9415 0.1648
vn -0.2918 0.9424 -0.1637
vn -0.8150 -0.0367 0.5783
vn 0.2388 0.3467 0.9071
vn 0.9188 0.3924 -0.0422
vn 0.2853 0.0372 -0.9577
vn -0.7863 -0.2280 -0.5742
vn 0.2918 -0.9424 0.1637
vn -0.2623 0.9537 -0.1471
vn -0.8149 -0.0272 0.5790
vn 0.2510 0.3177 0.9144
vn 0.9328 0.3588 -0.0347
vn 0.2883 0.0393 -0.9567
vn -0.7918 -0.1993 -0.5774
vn 0.2623 -0.9537 0.1471
vn -0.2203 0.9676 -0.1236
vn -0.8148 -0.0116 0.5797
vn 0.2656 0.2782 0.9231
vn 0.9495 0.3127 -0.0257
vn 0.2918 0.0443 -0.9555
vn -0.7986 -0.1561 -0.5813
vn 0.2203 -0.9676 0.1236
vn -0.1823 0.9779 -0.1023
vn -0.8142 0.0016 0.5806
vn 0.2771 0.2416 0.9300
vn 0.9626 0.2702 -0.0187
vn 0.2950 0.0479 -0.9543
vn -0.8032 -0.1181 -0.5839
vn 0.1823 -0.9779 0.1023
vn -0.1493 0.9852 -0.0838
vn -0.8134 0.0121 0.5816
vn 0.2858 0.2088 0.9353
vn 0.9726 0.2322 -0.0134
vn 0.2978 0.0500 -0.9533
vn -0.8060 -0.0861 -0.5856
vn 0.1493 -0.9852 0.0838
vn -0.1242 0.9898 -0.0697
vn -0.8126 0.0185 0.5826
vn 0.2918 0.1822 0.9390
vn 0.9794 0.2017 -0.0098
vn 0.3000 0.0500 -0.9526
vn -0.8075 -0.0632 -0.5865
vn 0.1242 -0.9898 0.0697
vn -0.1156 0.9912 -0.0649
vn -0.8121 0.0167 0.5833
vn 0.2942 0.1691 0.9407
vn 0.9823 0.1873 -0.0085
vn 0.3013 0.0461 -0.9524
vn -0.8077 -0.0593 -0.5867
vn 0.1156 -0.9912 0.0649
vn -0.1234 0.9899 -0.0692
vn -0.8118 0.0069 0.5839
vn 0.2937 0.1697 0.9407
vn 0.9819 0.1891 -0.0089
vn 0.3018 0.0383 -0.9526
vn -0.8067 -0.0743 -0.5862
vn 0.1234 -0.9899 0.0692
vn -0.1307 0.9887 -0.0733
vn -0.8113 -0.0026 0.5846
vn 0.2933 0.1698 0.9408
vn 0.9817 0.1903 -0.0093
vn 0.3025 0.0306 -0.9527
vn -0.8057 -0.0887 -0.5857
vn 0.1307 -0.9887 0.0733
vn -0.2843 0.0819 0.9552
vn -0.1955 0.9806 0.0104
vn 0.2373 -0.0860 0.9676
vn -0.1111 -0.0388 0.9930
vn 0.1289 -0.5894 -0.7975
vn -0.2165 0.2289 -0.9491
vn -0.2468 0.2580 -0.9341
vn 0.2842 0.9587 -0.0122
vn 0.9889 -0.0850 -0.1216
vn 0.4069 -0.9009 0.1509
vn -0.1031 0.9898 -0.0982
vn 0.7185 0.0858 0.6902
vn -0.9294 -0.3487 -0.1212
vn -0.1722 -0.9776 -0.1211
vn -0.9755 -0.2086 0.0694
vn 0.7383 -0.1710 -0.6524
vn -0.4407 -0.2419 -0.8645
vn -0.0167 -0.9998 -0.0146
vn -0.0556 0.1364 0.9891
vn 0.0278 0.1474 0.9887
vn 0.4800 -0.1205 -0.8690
vn -0.4668 0.8801 -0.0871
vn -0.9747 -0.2135 -0.0662
vn 0.7010 -0.2934 0.6500
vn -0.5948 -0.4642 0.6563
vn 0.9960 0.0463 -0.0758
vn 0.2219 0.9709 -0.0904
vn 0.2750 -0.9613 -0.0160
vn -0.4536 -0.8904 0.0385
vn -0.0110 0.6606 -0.7507
vn -0.1677 0.6399 -0.7499
vn 0.6692 -0.7424 0.0331
vn 0.4516 0.3233 0.8316
vn -0.5120 0.1963 0.8363
vn -0.7692 -0.3600 -0.5279
vn 0.8311 -0.1490 -0.5357
vn 0.7795 -0.0577 0.6238
vn -0.7319 -0.2569 0.6311
vn -0.4480 -0.8655 0.2241
vn 0.5463 0.7074 -0.4485
vn 0.3806 -0.9102 0.1631
vn 0.2888 -0.8871 0.3601
vn 0.1633 -0.5476 0.8207
vn 0.2267 0.9023 -0.3666
vn 0.1057 0.9618 -0.2525
vn -0.3761 0.9182 -0.1243
vn -0.4135 0.8956 -0.1642
vn -0.2685 -0.2873 -0.9195
vn 0.1915 -0.9687 0.1578
vn 0.1347 -0.8782 -0.4589
vn 0.9621 -0.1461 0.2302
vn -0.1989 0.9369 0.2874
vn -0.4043 0.8998 -0.1642
vn 0.2150 0.7401 0.6372
vn 0.2476 -0.9624 0.1121
vn -0.5555 0.8144 0.1677
vn -0.3442 -0.8992 -0.2700
vn -0.3131 0.8798 0.3577
vn 0.9481 -0.2765 0.1573
vn -0.1778 0.9166 -0.3580
vn -0.9219 0.2781 0.2697
vn -0.5095 0.7877 -0.3463
vn 0.1865 -0.9620 0.1993
vn 0.1395 0.8405 0.5235
vn 0.0049 0.9497 0.3131
vn 0.1556 -0.8519 -0.5000
vn 0.2189 -0.8032 -0.5540
vn -0.3518 0.9358 -0.0213
vn 0.6916 -0.5542 -0.4632
vn 0.1232 0.9414 0.3140
vn -0.3056 -0.9220 -0.2376
vn -0.0646 -0.9709 -0.2305
vn 0.6251 -0.7584 0.1847
vn -0.6994 0.7087 0.0927
vn -0.1789 -0.9351 0.3058
vn -0.0846 -0.9896 0.1164
vn -0.0096 -0.8899 -0.4560
vn -0.4229 0.9018 -0.0889
vn -0.3113 0.9235 -0.2242
vn 0.1747 0.9227 -0.3435
vn 0.2140 0.9297 -0.2998
vn 0.2781 0.2409 0.9299
vn 0.1616 -0.9724 -0.1685
vn 0.1695 -0.8769 0.4499
vn -0.8455 -0.4685 -0.2562
vn -0.1336 0.9517 -0.2765
vn 0.0617 0.9817 0.1802
vn -0.4450 0.6283 -0.6382
vn 0.1058 -0.9866 -0.1243
vn 0.2406 0.9592 -0.1482
vn 0.6297 -0.7270 0.2736
vn -0.0051 0.9389 -0.3441
vn -0.7885 -0.5869 -0.1838
vn -0.1608 0.9158 0.3680
vn 0.7731 0.5856 -0.2437
vn 0.2697 0.9382 0.2170
vn 0.0857 -0.9949 -0.0533
vn -0.3527 0.6854 -0.6370
vn -0.2568 0.8565 -0.4477
vn 0.0723 -0.7798 0.6218
vn -0.0029 -0.7428 0.6695
vn 0.0839 0.9889 -0.1226
vn -0.5236 -0.6475 0.5538
vn -0.3683 0.8164 -0.4448
vn 0.5400 -0.7596 0.3625
vn 0.3216 -0.8725 0.3678
vt 0.000000 0.000000
vt 0.000000 0.000000
vt 0.000000 0.000000
vt 0.000000 0.000000
vt 0.000000 0.000000
vt 0.000000 0.000000
vt 0.000000 0.000000
vt 0.000000 0.000000
vt 0.000000 0.000000
vt 0.000000 0.000000
vt 0.000000 0.000000
vt 0.000000 0.000000
vt 0.000000 0.000000
vt 0.000000 0.000000
vt 0.000000 0.000000
vt 0.000000 0.000000
vt 0.000000 0.000000
vt 0.000000 0.000000
vt 0.000000 0.000000
vt 0.000000 0.000000
vt 0.000000 0.000000
vt 0.000000 0.000000
vt 0.000000 0.000000
vt 0.000000 0.000000
vt 0.000000 0.000000
vt 0.000000 0.000000
vt 0.000000 0.000000
vt 0.000000 0.000000
vt 0.000000 0.000000
vt 0.000000 0.000000
vt 0.000000 0.000000
vt 0.000000 0.000000
vt 0.000000 0.000000
vt 0.000000 0.000000
vt 0.000000 0.000000
vt 0.000000 0.000000
vt 0.000000 0.000000
vt 0.000000 0.000000
vt 0.000000 0.000000
vt 0.000000 0.000000
vt 0.000000 0.000000
vt 0.000000 0.000000
vt 0.000000 0.000000
vt 0.000000 0.000000
vt 0.000000 0.000000
vt 0.000000 0.000000
vt 0.000000 0.000000
vt 0.000000 0.000000
vt 0.000000 0.000000
vt 0.000000 0.000000
vt 0.000000 0.000000
vt 0.000000 0.000000
vt 0.000000 0.000000
vt 0.000000 0.000000
vt 0.000000 0.000000
vt 0.000000 0.000000
vt 0.000000 0.000000
vt 0.000000 0.000000
vt 0.000000 0.000000
vt 0.000000 0.000000
vt 0.000000 0.000000
vt 0.000000 0.000000
vt 0.000000 0.000000
vt 0.000000 0.000000
vt 0.000000 0.000000
vt 0.000000 0.000000
vt 0.000000 0.000000
vt 0.000000 0.000000
vt 0.000000 0.000000
vt 0.000000 0.000000
vt 0.000000 0.000000
vt 0.000000 0.000000
vt 0.000000 0.000000
vt 0.000000 0.000000
vt 0.000000 0.000000
vt 0.000000 0.000000
vt 0.000000 0.000000
vt 0.000000 0.000000
vt 0.000000 0.000000
vt 0.000000 0.000000
vt 0.000000 0.000000
vt 0.000000 0.000000
vt 0.000000 0.000000
vt 0.000000 0.000000
vt 0.000000 0.000000
vt 0.000000 0.000000
vt 0.000000 0.000000
vt 0.000000 0.000000
vt 0.000000 0.000000
vt 0.000000 0.000000
vt 0.000000 0.000000
vt 0.000000 0.000000
vt 0.000000 0.000000
vt 0.000000 0.000000
vt 0.000000 0.000000
vt 0.000000 0.000000
vt 0.000000 0.000000
vt 0.000000 0.000000
vt 0.000000 0.000000
vt 0.000000 0.000000
vt 0.000000 0.000000
vt 0.000000 0.000000
vt 0.000000 0.000000
vt 0.000000 0.000000
vt 0.000000 0.000000
vt 0.000000 0.000000
vt 0.000000 0.000000
vt 0.000000 0.000000
vt 0.000000 0.000000
vt 0.000000 0.000000
vt 0.847803 0.569871
vt 0.595466 0.177053
vt 0.375000 0.459992
vt 0.366662 0.553638
vt 0.402792 1.000000
vt 0.125000 0.718113
vt 0.417679 0.049603
vt 0.394115 0.875489
vt 0.249150 0.723133
vt 0.459123 0.238284
vt 0.125000 0.527341
vt 0.616177 0.788057
vt 0.605882 0.776980
vt 0.578485 0.662926
vt 0.489340 0.442392
vt 0.409933 0.720606
vt 0.602751 1.000000
vt 0.875000 0.736292
vt 0.590169 0.051880
vt 0.623585 0.487734
vt 0.619345 0.533503
vt 0.558407 0.724343
vt 0.875000 0.520491
vt 0.568806 0.205262
vt 0.603084 0.375000
vt 0.750603 0.517105
vt 0.402755 0.620509
vt 0.401987 0.875855
vt 0.248405 0.720316
vt 0.611897 0.875795
vt 0.751732 0.723929
vt 0.414668 0.375000
vt 0.249496 0.517645
vt 0.570940 0.544544
vt 0.875000 0.731242
vt 0.555336 0.032752
vt 0.572742 1.000000
vt 0.408575 0.130379
vt 0.390147 1.000000
vt 0.125000 0.627626
vt 0.563694 0.127296
vt 0.571543 1.000000
vt 0.125000 0.627344
vt 0.397072 0.122656
vt 0.398228 1.000000
vt 0.564868 0.622704
vt 0.393496 0.627344
vt 0.625000 0.375000
vt 0.592511 0.875000
vt 0.249436 0.536243
vt 0.461130 0.375000
vt 0.250000 0.750000
vt 0.434922 0.875000
vt 0.509383 0.519477
vt 0.196020 0.500000
vt 0.830846 0.518980
vt 0.452641 0.673763
vt 0.289964 0.752870
vt 0.567305 0.756881
vt 0.477921 0.010476
vt 0.125075 0.624803
vt 0.486558 0.125197
vt 0.875000 0.625000
vt 0.524741 0.062500
vt 0.859226 0.687500
vt 0.551186 0.625000
vt 0.142911 0.750000
vt 0.505646 0.000000
vt 0.859552 0.750000
vt 0.494487 0.524612
vt 0.790666 0.537768
vt 0.625000 0.332001
vt 0.375000 0.062500
vt 0.166912 0.653647
vt 0.864087 0.522183
vt 0.125000 0.530166
vt 0.547262 0.241563
vt 0.394915 0.732705
vt 0.517863 0.745491
vt 0.522793 0.092282
vt 0.125000 0.625000
vt 0.868756 0.657718
vt 0.455378 0.625000
vt 0.220266 0.509086
vt 0.494089 0.350565
vt 0.476463 0.153428
vt 0.851746 0.599401
vt 0.517836 0.610986
vt 0.875000 0.750000
vt 0.170663 0.743822
vt 0.486931 0.007330
vt 0.207373 0.454712
vt 0.250378 0.272777
vt 0.815859 0.500726
vt 0.368668 0.481337
vt 0.507562 0.734788
vt 0.504391 0.737959
vt 0.858606 0.674311
vt 0.513005 0.075986
vt 0.473051 0.551878
vt 0.329525 0.172726
vt 0.159499 0.602105
vt 0.509383 0.519477
vt 0.196020 0.500000
vt 0.830846 0.518980
vt 0.452641 0.673763
vt 0.289964 0.752870
vt 0.567305 0.756881
vt 0.477921 0.010476
vt 0.125075 0.624803
vt 0.486558 0.125197
vt 0.875000 0.625000
vt 0.524741 0.062500
vt 0.859226 0.687500
vt 0.551186 0.625000
vt 0.142911 0.750000
vt 0.505646 0.000000
vt 0.859552 0.750000
vt 0.494487 0.524612
vt 0.790666 0.537768
vt 0.625000 0.332001
vt 0.375000 0.062500
vt 0.166912 0.653647
vt 0.864087 0.522183
vt 0.125000 0.530166
vt 0.547262 0.241563
vt 0.394915 0.732705
vt 0.517863 0.745491
vt 0.522793 0.092282
vt 0.125000 0.625000
vt 0.868756 0.657718
vt 0.455378 0.625000
vt 0.220266 0.509086
vt 0.494089 0.350565
vt 0.476463 0.153428
vt 0.851746 0.599401
vt 0.517836 0.610986
vt 0.875000 0.750000
vt 0.170663 0.743822
vt 0.486931 0.007330
vt 0.207373 0.454712
vt 0.250378 0.272777
vt 0.815859 0.500726
vt 0.368668 0.481337
vt 0.507562 0.734788
vt 0.504391 0.737959
vt 0.858606 0.674311
vt 0.513005 0.075986
vt 0.473051 0.551878
vt 0.329525 0.172726
vt 0.159499 0.602105
s 0
g main_palm.003_wood
usemtl wood
f 1/1/1 2/2/1 3/3/1 4/4/1 5/5/1
f 1/1/2 6/6/2 7/7/2 2/2/2
f 2/2/3 7/7/3 8/8/3 3/3/3
f 3/3/4 8/8/4 9/9/4 4/4/4
f 4/4/5 9/9/5 10/10/5 5/5/5
f 5/5/6 10/10/6 6/6/6 1/1/6
f 10/10/7 9/9/7 8/8/7 7/7/7 6/6/7
f 11/11/8 12/12/8 13/13/8 14/14/8 15/15/8
f 11/11/9 16/16/9 17/17/9 12/12/9
f 12/12/10 17/17/10 18/18/10 13/13/10
f 13/13/11 18/18/11 19/19/11 14/14/11
f 14/14/12 19/19/12 20/20/12 15/15/12
f 15/15/13 20/20/13 16/16/13 11/11/13
f 20/20/14 19/19/14 18/18/14 17/17/14 16/16/14
f 21/21/15 22/22/15 23/23/15 24/24/15 25/25/15
f 21/21/16 26/26/16 27/27/16 22/22/16
f 22/22/17 27/27/17 28/28/17 23/23/17
f 23/23/18 28/28/18 29/29/18 24/24/18
f 24/24/19 29/29/19 30/30/19 25/25/19
f 25/25/20 30/30/20 26/26/20 21/21/20
f 30/30/21 29/29/21 28/28/21 27/27/21 26/26/21
f 31/31/22 32/32/22 33/33/22 34/34/22 35/35/22
f 31/31/23 36/36/23 37/37/23 32/32/23
f 32/32/24 37/37/24 38/38/24 33/33/24
f 33/33/25 38/38/25 39/39/25 34/34/25
f 34/34/26 39/39/26 40/40/26 35/35/26
f 35/35/27 40/40/27 36/36/27 31/31/27
f 40/40/28 39/39/28 38/38/28 37/37/28 36/36/28
f 41/41/29 42/42/29 43/43/29 44/44/29 45/45/29
f 41/41/30 46/46/30 47/47/30 42/42/30
f 42/42/31 47/47/31 48/48/31 43/43/31
f 43/43/32 48/48/32 49/49/32 44/44/32
f 44/44/33 49/49/33 50/50/33 45/45/33
f 45/45/34 50/50/34 46/46/34 41/41/34
f 50/50/35 49/49/35 48/48/35 47/47/35 46/46/35
f 51/51/36 52/52/36 53/53/36 54/54/36 55/55/36
f 51/51/37 56/56/37 57/57/37 52/52/37
f 52/52/38 57/57/38 58/58/38 53/53/38
f 53/53/39 58/58/39 59/59/39 54/54/39
f 54/54/40 59/59/40 60/60/40 55/55/40
f 55/55/41 60/60/41 56/56/41 51/51/41
f 60/60/42 59/59/42 58/58/42 57/57/42 56/56/42
f 61/61/43 62/62/43 63/63/43 64/64/43 65/65/43
f 61/61/44 66/66/44 67/67/44 62/62/44
f 62/62/45 67/67/45 68/68/45 63/63/45
f 63/63/46 68/68/46 69/69/46 64/64/46
f 64/64/47 69/69/47 70/70/47 65/65/47
f 65/65/48 70/70/48 66/66/48 61/61/48
f 70/70/49 69/69/49 68/68/49 67/67/49 66/66/49
f 71/71/50 72/72/50 73/73/50 74/74/50 75/75/50
f 71/71/51 76/76/51 77/77/51 72/72/51
f 72/72/52 77/77/52 78/78/52 73/73/52
f 73/73/53 78/78/53 79/79/53 74/74/53
f 74/74/54 79/79/54 80/80/54 75/75/54
f 75/75/55 80/80/55 76/76/55 71/71/55
f 80/80/56 79/79/56 78/78/56 77/77/56 76/76/56
f 81/81/57 82/82/57 83/83/57 84/84/57 85/85/57
f 81/81/58 86/86/58 87/87/58 82/82/58
f 82/82/59 87/87/59 88/88/59 83/83/59
f 83/83/60 88/88/60 89/89/60 84/84/60
f 84/84/61 89/89/61 90/90/61 85/85/61
f 85/85/62 90/90/62 86/86/62 81/81/62
f 90/90/63 89/89/63 88/88/63 87/87/63 86/86/63
f 91/91/64 92/92/64 93/93/64 94/94/64 95/95/64
f 91/91/65 96/96/65 97/97/65 92/92/65
f 92/92/66 97/97/66 98/98/66 93/93/66
f 93/93/67 98/98/67 99/99/67 94/94/67
f 94/94/68 99/99/68 100/100/68 95/95/68
f 95/95/69 100/100/69 96/96/69 91/91/69
f 100/100/70 99/99/70 98/98/70 97/97/70 96/96/70
f 101/101/71 102/102/71 103/103/71 104/104/71 105/105/71
f 101/101/72 106/106/72 107/107/72 102/102/72
f 102/102/73 107/107/73 108/108/73 103/103/73
f 103/103/74 108/108/74 109/109/74 104/104/74
f 104/104/75 109/109/75 110/110/75 105/105/75
f 105/105/76 110/110/76 106/106/76 101/101/76
f 110/110/77 109/109/77 108/108/77 107/107/77 106/106/77
g main_palm.003_coconut
usemtl coconut
f 116/122/78 120/127/78 113/115/78
f 111/111/79 120/128/79 116/123/79
f 119/126/80 116/122/80 114/118/80
f 116/122/81 113/115/81 114/118/81
f 115/120/82 118/125/82 112/113/82
f 111/112/83 121/130/83 115/120/83
f 115/120/84 121/130/84 118/125/84
f 117/124/85 121/131/85 116/123/85
f 119/126/86 112/114/86 121/131/86 117/124/86
f 112/114/87 119/126/87 114/119/87
f 121/131/88 111/111/88 116/123/88
f 117/124/89 116/123/89 119/126/89
f 113/117/90 111/112/90 115/120/90
f 113/116/91 115/121/91 112/114/91 114/119/91
f 113/117/92 120/129/92 111/112/92
f 118/125/93 121/131/93 112/114/93
f 128/142/94 131/148/94 123/134/94 124/135/94
f 125/137/95 126/139/95 128/143/95
f 122/132/96 127/140/96 126/138/96
f 126/138/97 127/140/97 130/147/97
f 129/144/98 125/137/98 128/142/98 124/135/98
f 127/141/99 124/136/99 123/133/99 130/145/99
f 131/148/100 130/146/100 123/134/100
f 125/137/101 122/132/101 126/138/101
f 126/138/102 130/147/102 131/149/102
f 129/144/103 122/132/103 125/137/103
f 127/141/104 122/132/104 129/144/104 124/136/104
f 131/150/105 128/143/105 126/139/105
f 137/160/106 135/157/106 138/162/106
f 132/151/107 136/158/107 137/161/107
f 137/161/108 136/158/108 134/156/108
f 137/160/109 138/162/109 133/153/109
f 134/156/110 136/159/110 138/163/110
f 138/163/111 136/159/111 132/152/111
f 133/154/112 132/151/112 137/161/112
f 137/161/113 134/156/113 135/157/113
f 135/157/114 134/156/114 138/163/114
f 138/163/115 132/152/115 133/155/115
g main_palm.003_leaf
usemtl leaf
f 141/167/116 142/168/116 143/171/116
f 144/175/117 142/169/117 141/167/117
f 139/164/118 143/171/118 140/165/118
f 139/164/119 141/167/119 143/171/119
f 144/174/120 143/172/120 142/170/120
f 145/176/121 144/175/121 141/167/121
f 145/176/122 143/173/122 144/175/122
f 140/166/123 143/173/123 145/176/123
f 139/164/124 140/166/124 145/176/124
f 139/164/125 145/176/125 141/167/125
f 149/184/126 151/188/126 146/177/126
f 154/194/127 153/193/127 149/184/127
f 146/178/128 152/190/128 149/183/128
f 148/181/129 153/193/129 147/180/129
f 152/192/130 151/189/130 153/193/130
f 154/195/131 148/182/131 147/180/131
f 149/184/132 153/193/132 151/189/132
f 148/181/133 150/185/133 152/192/133
f 154/194/134 147/180/134 153/193/134
f 148/181/135 152/192/135 153/193/135
f 152/191/136 150/186/136 154/194/136 149/184/136
f 152/192/137 146/179/137 151/189/137
f 150/187/138 148/182/138 154/195/138
f 161/208/139 157/199/139 160/206/139
f 157/200/140 163/212/140 156/198/140 160/207/140
f 159/205/141 158/204/141 162/210/141
f 162/210/142 155/197/142 156/198/142
f 159/205/143 163/212/143 158/202/143
f 155/196/144 158/203/144 163/211/144
f 161/208/145 160/207/145 156/198/145 155/197/145
f 163/211/146 157/201/146 161/209/146 155/196/146
f 162/210/147 158/204/147 155/197/147
f 159/205/148 162/210/148 163/212/148
f 162/210/149 156/198/149 163/212/149
f 166/216/150 167/217/150 168/220/150
f 169/224/151 167/218/151 166/216/151
f 164/213/152 168/220/152 165/214/152
f 164/213/153 166/216/153 168/220/153
f 169/223/154 168/221/154 167/219/154
f 170/225/155 169/224/155 166/216/155
f 170/225/156 168/222/156 169/224/156
f 165/215/157 168/222/157 170/225/157
f 164/213/158 165/215/158 170/225/158
f 164/213/159 170/225/159 166/216/159
f 174/233/160 176/237/160 171/226/160
f 179/243/161 178/242/161 174/233/161
f 171/227/162 177/239/162 174/232/162
f 173/230/163 178/242/163 172/229/163
f 177/241/164 176/238/164 178/242/164
f 179/244/165 173/231/165 172/229/165
f 174/233/166 178/242/166 176/238/166
f 173/230/167 175/234/167 177/241/167
f 179/243/168 172/229/168 178/242/168
f 173/230/169 177/241/169 178/242/169
f 177/240/170 175/235/170 179/243/170 174/233/170
f 177/241/171 171/228/171 176/238/171
f 175/236/172 173/231/172 179/244/172
f 186/257/173 182/248/173 185/255/173
f 182/249/174 188/261/174 181/247/174 185/256/174
f 184/254/175 183/253/175 187/259/175
f 187/259/176 180/246/176 181/247/176
f 184/254/177 188/261/177 183/251/177
f 180/245/178 183/252/178 188/260/178
f 186/257/179 185/256/179 181/247/179 180/246/179
f 188/260/180 182/250/180 186/258/180 180/245/180
f 187/259/181 183/253/181 180/246/181
f 184/254/182 187/259/182 188/261/182
f 187/259/183 181/247/183 188/261/183
