# Blender 3.5.0
# www.blender.org
mtllib palm_tree.mtl
o main_palm.002
v 0.243384 -0.816334 -0.066052
v 0.037411 -0.778602 -0.349827
v -0.297490 -0.764055 -0.240251
v -0.298496 -0.792795 0.111246
v 0.035782 -0.825106 0.218907
v 0.418972 -0.029338 -0.001199
v 0.130610 0.023486 -0.398484
v -0.338251 0.043853 -0.245078
v -0.339660 0.003616 0.247018
v 0.128329 -0.041618 0.397743
v 0.262083 -0.372170 -0.024790
v 0.067375 -0.339188 -0.293008
v -0.248988 -0.326471 -0.189601
v -0.249802 -0.351594 0.142526
v 0.066057 -0.379838 0.244385
v 0.426901 0.416545 0.035276
v 0.154309 0.462721 -0.340229
v -0.288599 0.480524 -0.195459
v -0.289739 0.445352 0.269519
v 0.152465 0.405810 0.412120
v 0.278290 0.072996 0.013564
v 0.094807 0.100275 -0.239142
v -0.203033 0.110792 -0.141922
v -0.203625 0.090014 0.170870
v 0.093850 0.066655 0.266966
v 0.430234 0.863882 0.066389
v 0.173357 0.902072 -0.287401
v -0.243619 0.916796 -0.151292
v -0.244447 0.887707 0.286617
v 0.172017 0.855004 0.421151
v 0.285741 0.517167 0.041703
v 0.113726 0.542742 -0.195207
v -0.165496 0.552603 -0.104064
v -0.166051 0.533122 0.189177
v 0.112829 0.511221 0.279265
v 0.431032 1.308430 0.094544
v 0.190211 1.344236 -0.237130
v -0.200701 1.358041 -0.109529
v -0.201477 1.330767 0.301007
v 0.188955 1.300106 0.427132
v 0.286566 0.959748 0.062112
v 0.126310 0.988248 -0.158664
v -0.134184 0.999237 -0.073467
v -0.134922 0.977528 0.199964
v 0.125116 0.953122 0.283757
v 0.433953 1.749058 0.125178
v 0.209595 1.788959 -0.183909
v -0.155097 1.804343 -0.064633
v -0.156130 1.773950 0.318170
v 0.207923 1.739782 0.435480
v 0.287660 1.401204 0.082834
v 0.139457 1.435390 -0.121466
v -0.102196 1.448571 -0.042083
v -0.103342 1.422531 0.211279
v 0.137602 1.393257 0.288482
v 0.444096 2.186323 0.164235
v 0.236611 2.234184 -0.121786
v -0.101703 2.252637 -0.010649
v -0.103307 2.216181 0.344057
v 0.234015 2.175197 0.452141
v 0.296615 1.841964 0.112726
v 0.160625 1.881637 -0.074910
v -0.062125 1.896933 -0.001268
v -0.063802 1.866714 0.231881
v 0.157912 1.832741 0.302334
v 0.464262 2.621603 0.214983
v 0.273875 2.677145 -0.047708
v -0.037975 2.698560 0.055391
v -0.040323 2.656253 0.381801
v 0.270077 2.608691 0.480434
v 0.303442 2.283151 0.140136
v 0.180392 2.331753 -0.029988
v -0.023174 2.350492 0.038240
v -0.025936 2.313471 0.250531
v 0.175924 2.271852 0.313506
v 0.493760 3.051609 0.276621
v 0.321490 3.119653 0.038448
v 0.036497 3.145887 0.133967
v 0.032631 3.094058 0.431174
v 0.315235 3.035791 0.519339
v 0.329167 2.720907 0.189582
v 0.219484 2.777646 0.037468
v 0.035258 2.799522 0.100479
v 0.031082 2.756303 0.291537
v 0.212728 2.707716 0.346606
v 0.545872 3.473796 0.364627
v 0.392317 3.553231 0.151667
v 0.134400 3.583857 0.239883
v 0.128554 3.523351 0.507364
v 0.382858 3.455330 0.584460
v 0.390714 3.149993 0.280833
v 0.292894 3.205377 0.144973
v 0.127435 3.226730 0.202085
v 0.122997 3.184544 0.373242
v 0.285712 3.137118 0.421912
v 0.613469 3.896937 0.470714
v 0.476520 3.974474 0.280510
v 0.244879 4.004369 0.360466
v 0.238665 3.945308 0.600087
v 0.466466 3.878912 0.668224
v 0.354064 3.908036 0.336055
v 0.763412 3.259506 0.143965
v 0.303320 3.337209 0.540446
v 0.557021 3.180972 0.533746
v 0.387806 3.524981 0.067481
v 0.840175 3.695609 0.749011
v 1.003645 3.641288 0.544716
v 0.741142 3.555628 0.043357
v 0.803935 3.205971 0.503841
v 0.360908 3.809651 0.621042
v 0.966513 3.790825 0.190348
v 0.557990 3.722318 0.435381
v -0.062642 3.987493 0.009728
v 0.259699 4.025902 -0.029199
v 0.400332 3.321895 0.040008
v 0.121534 3.320658 0.345597
v 0.253563 3.937185 0.455024
v 0.146807 3.509037 -0.206693
v 0.541028 3.860974 -0.005802
v -0.112064 3.862750 0.452619
v -0.148019 3.436820 0.054114
v -0.120243 3.850547 0.707921
v -0.088518 3.297262 0.572372
v 0.573148 3.705224 0.690084
v 0.315436 3.212600 0.561980
v 0.248806 3.860251 0.896917
v 0.153937 3.486904 0.250762
v 0.133142 3.309143 0.890655
v -2.444395 4.447726 0.690190
v -2.624288 3.882307 1.708607
v -0.188251 4.617443 0.150177
v 0.631913 3.702368 0.395774
v -0.459403 4.122779 1.694513
v 0.313094 3.965570 1.316429
v -0.738473 4.842568 0.414339
v 2.154687 4.117260 1.173396
v 1.155246 4.234731 2.034772
v 0.598932 3.855482 0.099857
v 3.100349 3.268984 2.513649
v 2.924688 2.963775 3.201103
v 0.115828 4.092439 0.968495
v 1.370721 4.136539 0.363409
v 1.996129 3.765294 2.665470
v 2.131949 3.923322 1.521256
v 3.254347 3.456171 0.288964
v 3.331247 3.539893 -0.884199
v 1.158484 4.067334 1.091734
v 0.099910 3.803730 0.475065
v 1.401255 4.467290 -0.484428
v 0.587238 4.406512 -0.171225
v 1.777560 4.192724 0.936075
v -0.198313 3.955845 0.517467
v 1.966891 4.543408 -2.582571
v 1.154891 4.629415 -1.901550
v 0.222833 4.592496 -0.546322
v 1.004846 5.003104 -2.717144
v 1.076032 3.632795 0.555739
v 0.172831 4.851341 -0.429818
v 1.776181 4.270865 -0.772791
v 1.232991 4.368862 -2.900720
v -0.977263 5.127305 0.025515
v 0.042414 5.086423 -0.819019
v 0.183810 3.814933 0.781147
v -2.075065 5.359814 -1.441078
v -1.993451 5.285106 -2.205513
v 0.800393 4.107764 0.020788
v -0.348787 4.489852 0.710880
v -0.857043 5.318205 -1.499086
v -1.012506 5.087407 -0.369835
vn 0.0699 0.9942 0.0815
vn -0.7944 0.1283 0.5937
vn 0.3117 0.0214 0.9499
vn 0.9987 0.0504 0.0070
vn 0.3171 0.1753 -0.9320
vn -0.7911 0.2234 -0.5695
vn -0.0699 -0.9942 -0.0815
vn 0.0647 0.9951 0.0754
vn -0.7961 0.1212 0.5929
vn 0.3114 0.0222 0.9500
vn 0.9988 0.0491 0.0062
vn 0.3160 0.1647 -0.9343
vn -0.7933 0.2093 -0.5717
vn -0.0647 -0.9951 -0.0754
vn 0.0568 0.9962 0.0663
vn -0.7981 0.1138 0.5917
vn 0.3110 0.0267 0.9500
vn 0.9987 0.0504 0.0052
vn 0.3146 0.1521 -0.9370
vn -0.7959 0.1913 -0.5745
vn -0.0568 -0.9962 -0.0663
vn -0.7990 0.1072 0.5917
vn 0.3109 0.0200 0.9502
vn 0.9990 0.0437 0.0048
vn 0.3145 0.1455 -0.9381
vn -0.7968 0.1847 -0.5753
vn 0.0678 0.9946 0.0791
vn -0.7988 0.1018 0.5930
vn 0.3108 -0.0024 0.9505
vn 0.9997 0.0259 0.0048
vn 0.3159 0.1475 -0.9373
vn -0.7956 0.1944 -0.5737
vn -0.0678 -0.9946 -0.0791
vn 0.0876 0.9909 0.1022
vn -0.7978 0.0973 0.5950
vn 0.3100 -0.0373 0.9500
vn 1.0000 -0.0008 0.0044
vn 0.3186 0.1564 -0.9349
vn -0.7925 0.2170 -0.5699
vn -0.0876 -0.9909 -0.1022
vn 0.1102 0.9856 0.1285
vn -0.7967 0.0930 0.5971
vn 0.3083 -0.0763 0.9482
vn 0.9995 -0.0303 0.0033
vn 0.3218 0.1674 -0.9319
vn -0.7884 0.2436 -0.5649
vn -0.1102 -0.9856 -0.1285
vn 0.1472 0.9741 0.1718
vn -0.7946 0.0901 0.6005
vn 0.3035 -0.1363 0.9430
vn 0.9972 -0.0748 -0.0001
vn 0.3278 0.1896 -0.9255
vn -0.7795 0.2915 -0.5544
vn -0.1472 -0.9741 -0.1718
vn 0.1891 0.9569 0.2206
vn -0.7922 0.0876 0.6039
vn 0.2952 -0.2032 0.9336
vn 0.9922 -0.1243 -0.0064
vn 0.3356 0.2154 -0.9170
vn -0.7672 0.3463 -0.5398
vn -0.1891 -0.9569 -0.2206
vn 0.2051 0.9491 0.2392
vn -0.7925 0.0827 0.6043
vn 0.2903 -0.2329 0.9282
vn 0.9890 -0.1472 -0.0106
vn 0.3381 0.2213 -0.9147
vn -0.7629 0.3634 -0.5347
vn -0.2051 -0.9491 -0.2392
vn -0.2841 -0.1275 0.9503
vn 0.1375 0.9373 0.3203
vn 0.1522 -0.4515 0.8792
vn -0.1621 -0.3035 0.9389
vn -0.0364 -0.3239 -0.9454
vn -0.0864 0.5668 -0.8193
vn -0.1061 0.5981 -0.7943
vn 0.5838 0.7681 0.2629
vn 0.9104 -0.3612 -0.2017
vn 0.0808 -0.9845 -0.1556
vn 0.2325 0.9487 0.2143
vn 0.6751 -0.3697 0.6385
vn -0.9859 0.0287 -0.1647
vn -0.4785 -0.7806 -0.4023
vn -0.9920 0.1104 0.0619
vn 0.6695 -0.1933 -0.7172
vn -0.4564 0.1931 -0.8686
vn -0.3438 -0.8839 -0.3172
vn -0.0520 -0.1637 0.9851
vn 0.0304 -0.1810 0.9830
vn 0.4522 0.0026 -0.8919
vn -0.1471 0.9658 0.2136
vn -0.9867 0.1475 -0.0686
vn 0.5356 -0.6907 0.4859
vn -0.7431 -0.4226 0.5188
vn 0.9582 -0.2602 -0.1186
vn 0.5326 0.8233 0.1961
vn -0.0559 -0.9442 -0.3246
vn -0.7223 -0.6599 -0.2068
vn 0.2404 0.8248 -0.5118
vn 0.0858 0.8572 -0.5079
vn 0.3857 -0.8921 -0.2353
vn 0.4950 -0.1137 0.8614
vn -0.4559 0.0856 0.8859
vn -0.8203 0.0913 -0.5646
vn 0.7591 -0.2397 -0.6052
vn 0.6884 -0.4974 0.5279
vn -0.8032 -0.1848 0.5663
vn -0.6563 -0.6774 -0.3322
vn 0.7350 0.6753 0.0615
vn 0.0944 -0.8774 -0.4704
vn -0.0014 -0.9523 -0.3053
vn -0.0739 -0.9653 0.2504
vn 0.4719 0.8403 0.2668
vn 0.3648 0.8433 0.3946
vn -0.0922 0.8592 0.5032
vn -0.1278 0.8765 0.4641
vn -0.2405 0.4320 -0.8692
vn -0.2069 0.9086 -0.3629
vn -0.1438 -0.9625 0.2300
vn 0.4163 0.7868 0.4557
vn 0.3225 0.9131 0.2497
vn -0.1553 -0.8876 -0.4337
vn -0.0849 -0.8679 -0.4894
vn -0.0062 0.9982 -0.0594
vn 0.4296 -0.7947 -0.4288
vn 0.4253 0.8697 0.2504
vn -0.5818 -0.7934 -0.1786
vn -0.3796 -0.9093 -0.1706
vn 0.3364 -0.9238 -0.1826
vn -0.4392 0.7978 0.4129
vn -0.4468 -0.8898 -0.0928
vn -0.3664 -0.8869 -0.2815
vn -0.2443 -0.6103 -0.7535
vn -0.1146 0.9452 0.3057
vn -0.0003 0.9818 0.1898
vn 0.4418 0.8953 0.0560
vn 0.4769 0.8739 0.0936
vn 0.2830 -0.2468 0.9268
vn -0.1881 -0.8082 -0.5581
vn -0.2019 -0.9794 0.0064
vn -0.9275 -0.0109 -0.3737
vn 0.2433 0.9550 0.1695
vn 0.3855 0.7359 0.5566
vn -0.1157 0.9589 -0.2591
vn -0.2452 -0.8171 -0.5217
vn 0.5623 0.7861 0.2567
vn 0.2766 -0.9541 -0.1145
vn 0.3573 0.9288 0.0984
vn -0.9177 -0.1643 -0.3617
vn 0.1530 0.6875 0.7099
vn 0.9394 0.3425 -0.0159
vn 0.5610 0.5106 0.6516
vn -0.2868 -0.7622 -0.5803
vn 0.0295 0.9951 -0.0941
vn 0.1507 0.9794 0.1345
vn -0.3046 -0.9506 0.0604
vn -0.3633 -0.9232 0.1255
vn 0.4519 0.7859 0.4220
vn -0.7807 -0.6083 0.1431
vn 0.0399 0.9911 0.1272
vn 0.1401 -0.9737 -0.1797
vn -0.0909 -0.9732 -0.2114
vt 0.000000 0.000000
vt 0.000000 0.000000
vt 0.000000 0.000000
vt 0.000000 0.000000
vt 0.000000 0.000000
vt 0.000000 0.000000
vt 0.000000 0.000000
vt 0.000000 0.000000
vt 0.000000 0.000000
vt 0.000000 0.000000
vt 0.000000 0.000000
vt 0.000000 0.000000
vt 0.000000 0.000000
vt 0.000000 0.000000
vt 0.000000 0.000000
vt 0.000000 0.000000
vt 0.000000 0.000000
vt 0.000000 0.000000
vt 0.000000 0.000000
vt 0.000000 0.000000
vt 0.000000 0.000000
vt 0.000000 0.000000
vt 0.000000 0.000000
vt 0.000000 0.000000
vt 0.000000 0.000000
vt 0.000000 0.000000
vt 0.000000 0.000000
vt 0.000000 0.000000
vt 0.000000 0.000000
vt 0.000000 0.000000
vt 0.000000 0.000000
vt 0.000000 0.000000
vt 0.000000 0.000000
vt 0.000000 0.000000
vt 0.000000 0.000000
vt 0.000000 0.000000
vt 0.000000 0.000000
vt 0.000000 0.000000
vt 0.000000 0.000000
vt 0.000000 0.000000
vt 0.000000 0.000000
vt 0.000000 0.000000
vt 0.000000 0.000000
vt 0.000000 0.000000
vt 0.000000 0.000000
vt 0.000000 0.000000
vt 0.000000 0.000000
vt 0.000000 0.000000
vt 0.000000 0.000000
vt 0.000000 0.000000
vt 0.000000 0.000000
vt 0.000000 0.000000
vt 0.000000 0.000000
vt 0.000000 0.000000
vt 0.000000 0.000000
vt 0.000000 0.000000
vt 0.000000 0.000000
vt 0.000000 0.000000
vt 0.000000 0.000000
vt 0.000000 0.000000
vt 0.000000 0.000000
vt 0.000000 0.000000
vt 0.000000 0.000000
vt 0.000000 0.000000
vt 0.000000 0.000000
vt 0.000000 0.000000
vt 0.000000 0.000000
vt 0.000000 0.000000
vt 0.000000 0.000000
vt 0.000000 0.000000
vt 0.000000 0.000000
vt 0.000000 0.000000
vt 0.000000 0.000000
vt 0.000000 0.000000
vt 0.000000 0.000000
vt 0.000000 0.000000
vt 0.000000 0.000000
vt 0.000000 0.000000
vt 0.000000 0.000000
vt 0.000000 0.000000
vt 0.000000 0.000000
vt 0.000000 0.000000
vt 0.000000 0.000000
vt 0.000000 0.000000
vt 0.000000 0.000000
vt 0.000000 0.000000
vt 0.000000 0.000000
vt 0.000000 0.000000
vt 0.000000 0.000000
vt 0.000000 0.000000
vt 0.000000 0.000000
vt 0.000000 0.000000
vt 0.000000 0.000000
vt 0.000000 0.000000
vt 0.000000 0.000000
vt 0.000000 0.000000
vt 0.000000 0.000000
vt 0.000000 0.000000
vt 0.000000 0.000000
vt 0.000000 0.000000
vt 0.847803 0.569871
vt 0.595466 0.177053
vt 0.375000 0.459992
vt 0.366662 0.553638
vt 0.402792 1.000000
vt 0.125000 0.718113
vt 0.417679 0.049603
vt 0.394115 0.875489
vt 0.249150 0.723133
vt 0.459123 0.238284
vt 0.125000 0.527341
vt 0.616177 0.788057
vt 0.605882 0.776980
vt 0.578485 0.662926
vt 0.489340 0.442392
vt 0.409933 0.720606
vt 0.602751 1.000000
vt 0.875000 0.736292
vt 0.590169 0.051880
vt 0.623585 0.487734
vt 0.619345 0.533503
vt 0.558407 0.724343
vt 0.875000 0.520491
vt 0.568806 0.205262
vt 0.603084 0.375000
vt 0.750603 0.517105
vt 0.402755 0.620509
vt 0.401987 0.875855
vt 0.248405 0.720316
vt 0.611897 0.875795
vt 0.751732 0.723929
vt 0.414668 0.375000
vt 0.249496 0.517645
vt 0.570940 0.544544
vt 0.875000 0.731242
vt 0.555336 0.032752
vt 0.572742 1.000000
vt 0.408575 0.130379
vt 0.390147 1.000000
vt 0.125000 0.627626
vt 0.563694 0.127296
vt 0.571543 1.000000
vt 0.125000 0.627344
vt 0.397072 0.122656
vt 0.398228 1.000000
vt 0.564868 0.622704
vt 0.393496 0.627344
vt 0.625000 0.375000
vt 0.592511 0.875000
vt 0.249436 0.536243
vt 0.461130 0.375000
vt 0.250000 0.750000
vt 0.434922 0.875000
vt 0.509383 0.519477
vt 0.196020 0.500000
vt 0.830846 0.518980
vt 0.452641 0.673763
vt 0.289964 0.752870
vt 0.567305 0.756881
vt 0.477921 0.010476
vt 0.125075 0.624803
vt 0.486558 0.125197
vt 0.875000 0.625000
vt 0.524741 0.062500
vt 0.859226 0.687500
vt 0.551186 0.625000
vt 0.476463 0.153428
vt 0.851746 0.599401
vt 0.517836 0.610986
vt 0.875000 0.750000
vt 0.170663 0.743822
vt 0.486931 0.007330
vt 0.207373 0.454712
vt 0.250378 0.272777
vt 0.815859 0.500726
vt 0.368668 0.481337
vt 0.507562 0.734788
vt 0.504391 0.737959
vt 0.858606 0.674311
vt 0.513005 0.075986
vt 0.473051 0.551878
vt 0.329525 0.172726
vt 0.159499 0.602105
vt 0.509383 0.519477
vt 0.196020 0.500000
vt 0.830846 0.518980
vt 0.452641 0.673763
vt 0.289964 0.752870
vt 0.567305 0.756881
vt 0.477921 0.010476
vt 0.125075 0.624803
vt 0.486558 0.125197
vt 0.875000 0.625000
vt 0.524741 0.062500
vt 0.859226 0.687500
vt 0.551186 0.625000
vt 0.142911 0.750000
vt 0.505646 0.000000
vt 0.859552 0.750000
vt 0.494487 0.524612
vt 0.790666 0.537768
vt 0.625000 0.332001
vt 0.375000 0.062500
vt 0.166912 0.653647
vt 0.864087 0.522183
vt 0.125000 0.530166
vt 0.547262 0.241563
vt 0.394915 0.732705
vt 0.517863 0.745491
vt 0.522793 0.092282
vt 0.125000 0.625000
vt 0.868756 0.657718
vt 0.455378 0.625000
vt 0.220266 0.509086
vt 0.494089 0.350565
vt 0.476463 0.153428
vt 0.851746 0.599401
vt 0.517836 0.610986
vt 0.875000 0.750000
vt 0.170663 0.743822
vt 0.486931 0.007330
vt 0.207373 0.454712
vt 0.250378 0.272777
vt 0.815859 0.500726
vt 0.368668 0.481337
vt 0.507562 0.734788
vt 0.504391 0.737959
vt 0.858606 0.674311
vt 0.513005 0.075986
vt 0.473051 0.551878
vt 0.329525 0.172726
vt 0.159499 0.602105
s 0
g main_palm.002_wood
usemtl wood
f 1/1/1 2/2/1 3/3/1 4/4/1 5/5/1
f 1/1/2 6/6/2 7/7/2 2/2/2
f 2/2/3 7/7/3 8/8/3 3/3/3
f 3/3/4 8/8/4 9/9/4 4/4/4
f 4/4/5 9/9/5 10/10/5 5/5/5
f 5/5/6 10/10/6 6/6/6 1/1/6
f 10/10/7 9/9/7 8/8/7 7/7/7 6/6/7
f 11/11/8 12/12/8 13/13/8 14/14/8 15/15/8
f 11/11/9 16/16/9 17/17/9 12/12/9
f 12/12/10 17/17/10 18/18/10 13/13/10
f 13/13/11 18/18/11 19/19/11 14/14/11
f 14/14/12 19/19/12 20/20/12 15/15/12
f 15/15/13 20/20/13 16/16/13 11/11/13
f 20/20/14 19/19/14 18/18/14 17/17/14 16/16/14
f 21/21/15 22/22/15 23/23/15 24/24/15 25/25/15
f 21/21/16 26/26/16 27/27/16 22/22/16
f 22/22/17 27/27/17 28/28/17 23/23/17
f 23/23/18 28/28/18 29/29/18 24/24/18
f 24/24/19 29/29/19 30/30/19 25/25/19
f 25/25/20 30/30/20 26/26/20 21/21/20
f 30/30/21 29/29/21 28/28/21 27/27/21 26/26/21
f 31/31/15 32/32/15 33/33/15 34/34/15 35/35/15
f 31/31/22 36/36/22 37/37/22 32/32/22
f 32/32/23 37/37/23 38/38/23 33/33/23
f 33/33/24 38/38/24 39/39/24 34/34/24
f 34/34/25 39/39/25 40/40/25 35/35/25
f 35/35/26 40/40/26 36/36/26 31/31/26
f 40/40/21 39/39/21 38/38/21 37/37/21 36/36/21
f 41/41/27 42/42/27 43/43/27 44/44/27 45/45/27
f 41/41/28 46/46/28 47/47/28 42/42/28
f 42/42/29 47/47/29 48/48/29 43/43/29
f 43/43/30 48/48/30 49/49/30 44/44/30
f 44/44/31 49/49/31 50/50/31 45/45/31
f 45/45/32 50/50/32 46/46/32 41/41/32
f 50/50/33 49/49/33 48/48/33 47/47/33 46/46/33
f 51/51/34 52/52/34 53/53/34 54/54/34 55/55/34
f 51/51/35 56/56/35 57/57/35 52/52/35
f 52/52/36 57/57/36 58/58/36 53/53/36
f 53/53/37 58/58/37 59/59/37 54/54/37
f 54/54/38 59/59/38 60/60/38 55/55/38
f 55/55/39 60/60/39 56/56/39 51/51/39
f 60/60/40 59/59/40 58/58/40 57/57/40 56/56/40
f 61/61/41 62/62/41 63/63/41 64/64/41 65/65/41
f 61/61/42 66/66/42 67/67/42 62/62/42
f 62/62/43 67/67/43 68/68/43 63/63/43
f 63/63/44 68/68/44 69/69/44 64/64/44
f 64/64/45 69/69/45 70/70/45 65/65/45
f 65/65/46 70/70/46 66/66/46 61/61/46
f 70/70/47 69/69/47 68/68/47 67/67/47 66/66/47
f 71/71/48 72/72/48 73/73/48 74/74/48 75/75/48
f 71/71/49 76/76/49 77/77/49 72/72/49
f 72/72/50 77/77/50 78/78/50 73/73/50
f 73/73/51 78/78/51 79/79/51 74/74/51
f 74/74/52 79/79/52 80/80/52 75/75/52
f 75/75/53 80/80/53 76/76/53 71/71/53
f 80/80/54 79/79/54 78/78/54 77/77/54 76/76/54
f 81/81/55 82/82/55 83/83/55 84/84/55 85/85/55
f 81/81/56 86/86/56 87/87/56 82/82/56
f 82/82/57 87/87/57 88/88/57 83/83/57
f 83/83/58 88/88/58 89/89/58 84/84/58
f 84/84/59 89/89/59 90/90/59 85/85/59
f 85/85/60 90/90/60 86/86/60 81/81/60
f 90/90/61 89/89/61 88/88/61 87/87/61 86/86/61
f 91/91/62 92/92/62 93/93/62 94/94/62 95/95/62
f 91/91/63 96/96/63 97/97/63 92/92/63
f 92/92/64 97/97/64 98/98/64 93/93/64
f 93/93/65 98/98/65 99/99/65 94/94/65
f 94/94/66 99/99/66 100/100/66 95/95/66
f 95/95/67 100/100/67 96/96/67 91/91/67
f 100/100/68 99/99/68 98/98/68 97/97/68 96/96/68
g main_palm.002_coconut
usemtl coconut
f 106/112/69 110/117/69 103/105/69
f 101/101/70 110/118/70 106/113/70
f 109/116/71 106/112/71 104/108/71
f 106/112/72 103/105/72 104/108/72
f 105/110/73 108/115/73 102/103/73
f 101/102/74 111/120/74 105/110/74
f 105/110/75 111/120/75 108/115/75
f 107/114/76 111/121/76 106/113/76
f 109/116/77 102/104/77 111/121/77 107/114/77
f 102/104/78 109/116/78 104/109/78
f 111/121/79 101/101/79 106/113/79
f 107/114/80 106/113/80 109/116/80
f 103/107/81 101/102/81 105/110/81
f 103/106/82 105/111/82 102/104/82 104/109/82
f 103/107/83 110/119/83 101/102/83
f 108/115/84 111/121/84 102/104/84
f 118/132/85 121/138/85 113/124/85 114/125/85
f 115/127/86 116/129/86 118/133/86
f 112/122/87 117/130/87 116/128/87
f 116/128/88 117/130/88 120/137/88
f 119/134/89 115/127/89 118/132/89 114/125/89
f 117/131/90 114/126/90 113/123/90 120/135/90
f 121/138/91 120/136/91 113/124/91
f 115/127/92 112/122/92 116/128/92
f 116/128/93 120/137/93 121/139/93
f 119/134/94 112/122/94 115/127/94
f 117/131/95 112/122/95 119/134/95 114/126/95
f 121/140/96 118/133/96 116/129/96
f 127/150/97 125/147/97 128/152/97
f 122/141/98 126/148/98 127/151/98
f 127/151/99 126/148/99 124/146/99
f 127/150/100 128/152/100 123/143/100
f 124/146/101 126/149/101 128/153/101
f 128/153/102 126/149/102 122/142/102
f 123/144/103 122/141/103 127/151/103
f 127/151/104 124/146/104 125/147/104
f 125/147/105 124/146/105 128/153/105
f 128/153/106 122/142/106 123/145/106
g main_palm.002_leaf
usemtl leaf
f 131/157/107 132/158/107 133/161/107
f 134/165/108 132/159/108 131/157/108
f 129/154/109 133/161/109 130/155/109
f 129/154/110 131/157/110 133/161/110
f 134/164/111 133/162/111 132/160/111
f 135/166/112 134/165/112 131/157/112
f 135/166/113 133/163/113 134/165/113
f 130/156/114 133/163/114 135/166/114
f 129/154/115 130/156/115 135/166/115
f 129/154/116 135/166/116 131/157/116
f 142/179/117 138/170/117 141/177/117
f 138/171/118 144/183/118 137/169/118 141/178/118
f 140/176/119 139/175/119 143/181/119
f 143/181/120 136/168/120 137/169/120
f 140/176/121 144/183/121 139/173/121
f 136/167/122 139/174/122 144/182/122
f 142/179/123 141/178/123 137/169/123 136/168/123
f 144/182/124 138/172/124 142/180/124 136/167/124
f 143/181/125 139/175/125 136/168/125
f 140/176/126 143/181/126 144/183/126
f 143/181/127 137/169/127 144/183/127
f 147/187/128 148/188/128 149/191/128
f 150/195/129 148/189/129 147/187/129
f 145/184/130 149/191/130 146/185/130
f 145/184/131 147/187/131 149/191/131
f 150/194/132 149/192/132 148/190/132
f 151/196/133 150/195/133 147/187/133
f 151/196/134 149/193/134 150/195/134
f 146/186/135 149/193/135 151/196/135
f 145/184/136 146/186/136 151/196/136
f 145/184/137 151/196/137 147/187/137
f 155/204/138 157/208/138 152/197/138
f 160/214/139 159/213/139 155/204/139
f 152/198/140 158/210/140 155/203/140
f 154/201/141 159/213/141 153/200/141
f 158/212/142 157/209/142 159/213/142
f 160/215/143 154/202/143 153/200/143
f 155/204/144 159/213/144 157/209/144
f 154/201/145 156/205/145 158/212/145
f 160/214/146 153/200/146 159/213/146
f 154/201/147 158/212/147 159/213/147
f 158/211/148 156/206/148 160/214/148 155/204/148
f 158/212/149 152/199/149 157/209/149
f 156/207/150 154/202/150 160/215/150
f 167/228/151 163/219/151 166/226/151
f 163/220/152 169/232/152 162/218/152 166/227/152
f 165/225/153 164/224/153 168/230/153
f 168/230/154 161/217/154 162/218/154
f 165/225/155 169/232/155 164/222/155
f 161/216/156 164/223/156 169/231/156
f 167/228/157 166/227/157 162/218/157 161/217/157
f 169/231/158 163/221/158 167/229/158 161/216/158
f 168/230/159 164/224/159 161/217/159
f 165/225/160 168/230/160 169/232/160
f 168/230/161 162/218/161 169/232/161
