<svg width="739" height="288" viewBox="0 0 739 288" fill="none" xmlns="http://www.w3.org/2000/svg">
<path d="M101.525 287.492L49.7266 246.224L48.0897 84.7539L0 45.7435L56.3775 0L108.963 41.9108L109.067 99.3803L144.021 71.0184L186.993 105.885L229.965 71.0184L278.945 110.795L281.701 113.178V202.738L329.293 242.08L273.351 287.471L230.379 252.604L187.407 287.471L144.166 252.377L135.671 259.71V259.255L101.546 287.471L101.525 287.492ZM151.521 237.937L187.366 267.024L218.175 242.018L182.165 212.807L179.036 210.424V133.501L151.542 155.814V237.916L151.521 237.937ZM237.465 237.937L273.31 267.024L304.181 241.977L265.768 210.238V132.838L237.444 155.835V237.957L237.465 237.937ZM70.2595 242.287L101.318 267.044L135.629 238.662V148.066L139.089 145.455L174.789 116.493L143.979 91.487L108.963 119.911L109.233 210.466L70.2595 242.287V242.287ZM25.2155 45.7435L63.9193 77.1507L65.4319 225.755L93.3616 202.945L93.0923 112.826L93.2166 112.701L93.113 49.5555L56.4604 20.3857L25.2155 45.7435ZM194.907 202.697L221.594 224.346V148.086L225.033 145.476L260.733 116.493L229.944 91.5077L194.907 119.932V202.717V202.697Z" fill="black"/>
<path d="M361.926 97.6605H388.841L404.463 130.435L420.003 97.6605H446.834V150.282H429.596V114.006L412.44 150.282H396.383L379.144 114.006V150.282H361.906V97.6605H361.926Z" fill="black"/>
<path d="M479.675 97.6605H501.658L528.573 150.282H510.174L505.554 140.524H475.718L471.035 150.282H452.698L479.675 97.6605V97.6605ZM499.607 128.156L490.594 109.324L481.581 128.156H499.607Z" fill="black"/>
<path d="M534.436 97.6605H575.627C588.742 97.6605 596.74 104.994 596.74 117.445C596.74 129.896 588.742 137.23 575.627 137.23H551.654V150.282H534.436V97.6605V97.6605ZM571.524 122.811C576.435 122.811 578.776 121.775 578.776 117.466C578.776 113.157 576.435 112.183 571.524 112.183H551.654V122.811H571.524V122.811Z" fill="black"/>
<path d="M604.011 97.6605H645.222C658.338 97.6605 666.335 104.994 666.335 117.445C666.335 129.896 658.338 137.23 645.222 137.23H621.25V150.282H604.011V97.6605V97.6605ZM641.099 122.811C646.01 122.811 648.351 121.775 648.351 117.466C648.351 113.157 646.01 112.183 641.099 112.183H621.229V122.811H641.099V122.811Z" fill="black"/>
<path d="M689.501 97.6605H711.505L738.419 150.282H720.02L715.4 140.524H685.564L680.881 150.282H662.545L689.521 97.6605H689.501ZM709.433 128.156L700.42 109.324L691.407 128.156H709.433V128.156Z" fill="black"/>
<path d="M362.03 160.579H385.858V213.304H434.424V233.379H362.01V160.579H362.03Z" fill="black"/>
<path d="M480.566 160.579H510.982L548.194 233.379H522.751L516.369 219.892H475.096L468.611 233.379H443.25L480.566 160.579V160.579ZM508.144 202.759L495.671 176.697L483.198 202.759H508.144V202.759Z" fill="black"/>
<path d="M556.337 160.579H612.611C631.569 160.579 637.557 167.871 637.557 178.416C637.557 187.138 632.481 192.607 624.981 195.239C634.118 197.58 641.722 202.635 641.722 213.283C641.722 225.154 634.615 233.358 616.776 233.358H556.337V160.558V160.579ZM605.111 189.686C610.083 189.686 613.73 189.272 613.73 183.595C613.73 177.919 610.29 177.815 605.111 177.815H580.164V189.686H605.111ZM609.172 216.142C613.523 216.142 616.983 215.831 616.983 210.155C616.983 204.478 613.336 204.168 609.172 204.168H580.164V216.142H609.172Z" fill="black"/>
<path d="M648.724 209.347H673.463C673.463 214.609 678.933 218.172 694.762 218.172C710.592 218.172 713.928 215.935 713.928 212.081C713.928 207.627 711.193 206.716 693.54 205.597L689.997 205.39C662.109 203.774 649.843 196.875 649.843 181.254C649.843 165.634 665.755 158.838 690.805 158.838C719.398 158.838 734.709 167.56 735.621 183.678H710.882C710.882 178.105 704.293 176.075 690.598 176.075C677.71 176.075 674.582 178.105 674.582 181.254C674.582 185.004 677.317 186.434 693.644 187.532L697.808 187.842C722.651 189.769 738.667 192.4 738.667 211.17C738.667 229.94 722.651 235.409 695.778 235.409C666.48 235.409 649.636 228.407 648.724 209.347V209.347Z" fill="black"/>
</svg>
