<svg width="32" height="33" viewBox="0 0 32 33" fill="none" xmlns="http://www.w3.org/2000/svg">
<path d="M22.1234 22.7207C22.6127 22.3199 23.2656 20.8439 23.2656 20.8439C23.2656 20.8439 21.2369 18.0239 18.4986 15.0227C20.2214 12.3771 21.3471 10.1976 21.3471 10.1976L20.9174 9.7266C20.9174 9.7266 19.3904 11.7366 17.4467 13.8947C14.7194 11.0234 11.7546 8.3226 11.7546 8.3226L11.2747 8.7755C11.2747 8.77538 11.2746 8.77545 11.2747 8.7755C11.296 8.78485 14.0759 12.0765 16.1845 15.0306C16.1564 15.0609 16.1287 15.0912 16.1009 15.1216C16.0816 15.1427 16.0623 15.1639 16.0427 15.1851C13.3004 18.136 9.93323 21.2024 9.93323 21.2024C9.93323 21.2024 10.981 22.1781 11.5142 22.6562C11.9245 23.0237 12.2335 22.6562 12.2335 22.6562C12.2335 22.6562 14.9612 19.4867 17.2982 16.5434C17.3135 16.524 17.3284 16.5048 17.3431 16.4856C17.3569 16.4678 17.3707 16.4499 17.3849 16.432C19.7387 19.5711 21.3291 22.7129 21.3291 22.7129C21.3291 22.7129 21.5541 23.1884 22.1234 22.7207Z" fill="black"/>
<path fill-rule="evenodd" clip-rule="evenodd" d="M4 16.1511C4 9.52372 10.4976 4.15109 17.125 4.15109C23.7524 4.15109 28 8.39872 28 15.0261C28 21.6535 23.7524 28.1511 17.125 28.1511C10.4976 28.1511 4 22.7785 4 16.1511ZM6.25 15.4011C6.25 20.9931 11.533 26.6511 17.125 26.6511C22.717 26.6511 26.5938 22.4931 26.5938 16.9011C26.5938 9.68234 20.842 6.02609 15.25 6.02609C9.658 6.02609 6.25 9.28109 6.25 15.4011Z" fill="black"/>
</svg>
