<svg width="32" height="33" viewBox="0 0 32 33" xmlns="http://www.w3.org/2000/svg">
<path d="M15.7383 7.12372C15.7058 7.13762 15.6132 7.15384 15.5298 7.16079C15.4464 7.16774 15.3467 7.18627 15.305 7.20249C15.2657 7.22102 15.1452 7.25114 15.0409 7.27199C14.705 7.34149 14.5359 7.44343 14.2764 7.73765C14.0749 7.967 13.9173 8.20563 13.3405 9.1717C12.4323 10.6891 12.3188 10.8791 11.6307 12.0792C11.2624 12.7232 10.8569 13.4206 10.7342 13.6314C10.3403 14.2986 10.0391 14.8361 9.86075 15.1952L9.687 15.5403L9.55726 15.4037C9.48545 15.3272 9.26072 15.0863 9.05685 14.8708C8.55876 14.3426 8.29002 14.0368 7.68767 13.307C6.7355 12.151 6.46676 11.8915 5.98488 11.6575C5.78101 11.5556 5.72078 11.5371 5.61421 11.5394C5.45435 11.5394 5.17403 11.5788 5.11379 11.6089C5.09063 11.6228 5.00259 11.6459 4.91919 11.6622C4.58095 11.7247 4.44658 11.8707 4.27514 12.3595C3.98324 13.1889 3.92995 14.4237 4.08517 16.8284C4.16162 17.9798 4.40256 19.8657 4.62033 20.9754C4.7269 21.5267 4.95394 22.3191 5.09526 22.6388C5.13465 22.7268 5.1416 22.7639 5.12074 22.7708C5.10453 22.7754 5.03503 22.7917 4.96552 22.8079C4.79872 22.8449 4.67362 22.9075 4.56473 23.0118C4.37244 23.1925 4.36549 23.2967 4.5184 23.5979C4.6574 23.8666 4.84042 24.0659 5.1972 24.3323C5.49374 24.5547 5.63274 24.6242 5.876 24.6705C6.35324 24.7609 6.50151 24.7632 11.0701 24.7655C15.4996 24.7655 16.4588 24.7794 19.0743 24.8674C20.4041 24.9138 22.7765 25.0458 24.4955 25.1686C25.589 25.2451 25.9365 25.208 26.2793 24.9786C26.4647 24.8559 26.5828 24.696 26.7844 24.2883C27.1041 23.6512 27.257 23.0859 27.5072 21.5893C27.7759 19.9977 27.8501 19.312 27.959 17.3729C28.0215 16.2655 28.0146 15.2925 27.9242 13.3928C27.8686 12.1788 27.8408 11.778 27.7945 11.4305C27.7088 10.7656 27.535 10.4459 27.2431 10.4019C27.1852 10.3926 27.1226 10.3648 27.0995 10.337C27.0369 10.2675 26.8377 10.1795 26.7404 10.1795C26.694 10.1795 26.606 10.1957 26.5435 10.2142C26.4809 10.2328 26.379 10.249 26.3141 10.249C26.2515 10.249 26.1218 10.2745 26.0245 10.3046C25.9295 10.3347 25.7674 10.3787 25.6677 10.3996C25.2461 10.4922 24.6878 10.8861 23.7541 11.7571C23.2653 12.2135 23.0985 12.3572 22.7 12.6676C22.1301 13.1124 21.8034 13.3789 21.5324 13.6175C20.8443 14.2268 20.4899 14.5164 20.4644 14.5001C20.4366 14.4839 20.3231 14.2731 20.0474 13.7356C19.5887 12.8414 19.2574 12.2344 18.7616 11.3726C18.6434 11.1687 18.3585 10.6729 18.1291 10.2721C17.8998 9.87134 17.6194 9.3802 17.5036 9.18096C17.3901 8.98173 17.1631 8.56008 17.0009 8.24269C16.5885 7.43879 16.5121 7.33454 16.3059 7.29747C16.2572 7.28821 16.1784 7.24882 16.1367 7.20944C16.0093 7.09824 15.8726 7.07044 15.7383 7.12372ZM15.9862 9.61187C16.102 9.80184 16.3453 10.2096 16.5306 10.5154C17.2024 11.6228 17.5314 12.2668 18.6434 14.6368C18.7037 14.7642 18.8265 15.0029 18.9214 15.1697C19.0141 15.3365 19.1299 15.545 19.1786 15.6353C19.3848 16.013 19.7091 16.4137 19.9061 16.5319C19.9524 16.5597 20.0335 16.6199 20.0844 16.6686C20.2373 16.8076 20.3115 16.8354 20.4783 16.8215C20.5825 16.8145 20.6683 16.7867 20.791 16.7242C21.0227 16.6084 21.5556 16.2516 21.8544 16.0176C22.1255 15.8021 22.1417 15.7906 22.6467 15.3272C23.1008 14.9125 23.3209 14.7364 23.9093 14.3125C24.1688 14.1271 24.5233 13.8654 24.697 13.731C25.6005 13.0313 26.0176 12.7348 26.05 12.7672C26.0593 12.7765 26.0732 13.3279 26.0824 13.9905C26.0986 15.2994 26.0847 15.8415 25.9898 17.3497C25.8716 19.2378 25.8137 19.8031 25.5496 21.6472C25.4198 22.56 25.3457 22.9399 25.2716 23.0511L25.2322 23.1137L24.1387 23.0998C23.5387 23.0928 22.8761 23.0743 22.6653 23.0627C22.1185 23.028 20.5501 22.9724 19.028 22.933C18.3075 22.9144 17.5777 22.8936 17.4063 22.8866C17.2349 22.8797 16.614 22.8542 16.0279 22.8287C14.5961 22.7685 13.8247 22.743 12.2169 22.7013C11.4709 22.6828 10.5442 22.6573 10.155 22.6434C7.50233 22.56 6.17254 22.5554 5.76016 22.6318C5.64201 22.655 5.5308 22.6666 5.51459 22.6596C5.45435 22.6364 5.33852 21.8858 5.28987 21.207C5.22963 20.3313 5.20183 17.8547 5.24353 16.7335C5.25511 16.3836 5.27596 15.7535 5.28987 15.3342C5.30377 14.9125 5.32925 14.3982 5.3501 14.1874C5.38485 13.8144 5.48215 13.1657 5.51227 13.1194C5.53312 13.0846 5.65359 13.1171 5.81113 13.2005C6.06597 13.3348 6.48066 13.7681 7.56257 15.033C8.08383 15.6423 8.46841 16.1056 8.82286 16.5504C9.20281 17.023 9.64993 17.447 9.8677 17.5374C10.06 17.6184 10.3403 17.5026 10.5789 17.2454C10.6577 17.1597 10.8106 16.9512 10.9195 16.7844C11.0284 16.6153 11.4732 15.955 11.9111 15.3156C12.7219 14.1295 13.0648 13.6082 13.8316 12.3873C14.4085 11.4676 14.5915 11.1618 14.9019 10.5965C15.5367 9.44739 15.7012 9.18096 15.7522 9.23656C15.7661 9.25278 15.8726 9.41958 15.9862 9.61187Z" />
</svg>
