<svg width="32" height="33" viewBox="0 0 32 33" fill="none" xmlns="http://www.w3.org/2000/svg">
<rect width="32" height="32" transform="matrix(1 0 0 -1 0 32.1511)" fill="white"/>
<path fill-rule="evenodd" clip-rule="evenodd" d="M17.9658 6.48234C17.9658 6.83088 18.1637 7.22683 18.4061 7.36231C18.6536 7.50086 17.7247 7.60862 16.2819 7.60862C14.8714 7.60862 13.7735 7.51718 13.8415 7.40541C14.102 6.97774 13.5629 6.22309 12.9966 6.22309C12.1906 6.22309 7.6294 8.00211 7.24392 8.46673C6.77776 9.02925 4.76998 16.1503 4.27088 19.0131C3.5464 23.1672 4.02641 23.8446 8.82373 25.4382L11.5187 26.3336L12.4538 25.4382C13.0918 24.8277 13.348 24.3273 13.2599 23.8649C13.1367 23.2192 13.2306 23.1872 15.2403 23.1937L17.35 23.2005V24.5586C17.35 25.7178 17.4534 25.9426 18.056 26.0937C19.0129 26.3339 22.9669 25.4804 24.6323 24.674C27.5912 23.2417 28.421 21.5541 27.8135 18.2045C27.0379 13.9269 25.4864 10.1093 23.9214 8.62683C23.0291 7.78135 20.3406 6.42815 18.8125 6.05498C18.096 5.8801 17.9658 5.94599 17.9658 6.48234ZM10.1175 8.68318C9.63257 9.18936 9.32529 9.69308 9.4346 9.80269C9.54421 9.91199 10.3654 9.67122 11.2598 9.26695C12.6392 8.64346 13.3516 8.53539 15.9644 8.55232C18.036 8.56587 19.4969 8.74045 20.4289 9.08591C21.6307 9.53143 21.8588 9.54036 22.1476 9.15457C23.1049 7.87711 25.3439 12.091 26.363 17.0875C27.1971 21.1763 27.0727 21.6243 24.8217 22.6312C22.2021 23.8027 18.5816 24.755 18.5816 24.2725C18.5816 24.0604 19.0677 23.6552 19.6623 23.372C20.9964 22.7355 23.5079 20.4586 23.5079 19.8853C23.5079 19.2994 23.2914 19.3459 21.2932 20.3595C19.2248 21.4085 15.707 22.0723 13.5613 21.818C12.7205 21.7186 11.161 21.229 10.0956 20.7305C8.60728 20.0341 8.12173 19.9195 8.00042 20.2357C7.81045 20.7308 9.12762 22.109 10.4159 22.7632C11.6487 23.3895 11.6437 23.3827 11.2167 23.8972C10.8928 24.2876 10.6434 24.2849 9.24863 23.876C6.95019 23.202 5.6755 22.5489 5.30387 21.8546C4.82109 20.9525 5.50154 16.8858 6.8378 12.6889C7.95824 9.16904 7.97302 9.1441 9.33576 8.45534C11.1077 7.55997 11.1748 7.57968 10.1175 8.68318ZM11.5969 13.6147C9.38841 14.5046 10.0609 19.1547 12.3984 19.1547C14.7322 19.1547 15.3539 14.653 13.158 13.6526C12.7383 13.4611 12.3667 13.3136 12.3322 13.3241C12.2977 13.3349 11.967 13.4657 11.5969 13.6147ZM17.6579 13.9205C16.7305 14.8479 16.7884 17.5774 17.7546 18.4853C18.6795 19.3542 19.3568 19.3311 20.2888 18.3988C21.3443 17.3437 21.3677 14.947 20.3323 13.9741C19.4431 13.139 18.459 13.1193 17.6579 13.9205ZM19.6373 15.6358C20.2282 16.2269 20.2482 16.7076 19.7128 17.44C19.0465 18.3514 17.9658 17.812 17.9658 16.5681C17.9658 15.0726 18.6773 14.6761 19.6373 15.6358ZM13.597 16.2879C13.7319 17.2347 12.5382 18.4016 11.9412 17.9059C11.483 17.5256 11.3362 16.0342 11.7195 15.6512C11.8399 15.5305 12.2903 15.4726 12.7202 15.5228C13.2531 15.585 13.5318 15.8279 13.597 16.2879Z" fill="black"/>
</svg>
