<svg width="32" height="33" viewBox="0 0 32 33" fill="none" xmlns="http://www.w3.org/2000/svg">
<path d="M24.7556 12.5417C25.0684 7.86997 21.6847 4.15109 15.8494 4.15109C11.2822 4.15109 7.22437 7.63747 7.22437 13.1511C7.22437 14.9608 7.78387 17.014 8.73674 18.4011H8.72437L15.8494 28.1511C15.8494 28.1511 20.8024 21.745 22.212 19.5261C23.1142 18.106 24.5947 14.9428 24.7556 12.5417ZM10.2244 17.6511C10.2244 17.6511 8.34937 15.3422 8.34937 12.7761C8.34937 8.84084 11.352 5.65109 16.5994 5.65109C20.5162 5.65109 22.5994 8.09122 22.5994 12.0261C22.5994 18.6595 16.7572 25.4927 16.7572 25.4927L10.2244 17.6511ZM16.2244 8.65109C13.8079 8.65109 12.0994 9.67972 12.0994 12.0261C12.0994 13.7863 13.3702 15.4011 15.6619 15.4011C17.4217 15.4011 18.8494 13.5988 18.8494 11.8386C18.8494 10.0783 17.547 8.65109 16.2244 8.65109ZM15.8494 13.5261C14.8136 13.5261 13.9744 12.6865 13.9744 11.6511C13.9744 10.6153 14.4386 9.77609 15.4744 9.77609C16.9166 9.77609 18.0994 10.6153 18.0994 12.0261C18.0994 13.093 16.8851 13.5261 15.8494 13.5261Z" />
</svg>
